<svg xmlns="http://www.w3.org/2000/svg" xmlns:xlink="http://www.w3.org/1999/xlink" width="302" height="68"><defs><path id="b" d="M290.143 9.192c-3.072-6.306-14.53-7.454-18.725-7.646C267.54 1.368 163.63.194 148.144.019V0l-1.628.001-.039-.001v.001C94.672.009 34.495.398 19.007 2.1c-2.5.275-8.385 1.72-13.138 6.688C1.12 13.756 0 30.588 0 30.588s1.397 13.935 4.473 20.243c3.074 6.306 14.534 7.452 18.727 7.643 3.877.177 107.704 1.334 123.255 1.508V60h1.689c51.8 0 111.963-.38 127.45-2.079 2.498-.275 8.385-1.72 13.138-6.686 4.754-4.968 5.878-21.8 5.878-21.8s-1.392-13.935-4.467-20.243"/><filter id="a" width="105.1%" height="125%" x="-2.5%" y="-7.5%" filterUnits="objectBoundingBox"><feOffset dy="3" in="SourceAlpha" result="shadowOffsetOuter1"/><feGaussianBlur in="shadowOffsetOuter1" result="shadowBlurOuter1" stdDeviation="2"/><feColorMatrix in="shadowBlurOuter1" values="0 0 0 0 0.81114477 0 0 0 0 0.658932499 0 0 0 0 0.516647114 0 0 0 0.274796196 0"/></filter></defs><g transform="translate(3.71 1)" fill="none" fill-rule="evenodd"><use fill="#000" filter="url(#a)" xlink:href="#b"/><use fill="#FFF" xlink:href="#b"/></g></svg>