<svg width="207" height="86" xmlns="http://www.w3.org/2000/svg"><g fill="none" fill-rule="evenodd"><path d="M49.98 70.133c1.692 0 3.095-.43 4.168-1.294 1.198-1.024 1.82-2.51 1.814-4.498 0-.857-.074-1.62-.258-2.278-.65-2.321-2.325-3.478-4.986-3.478h-1.245c-.727 0-1.313.628-1.359 1.323.022.201.01 3.607-.004 10.225h1.87zm-1.844 1.688l-.022 7.444c-.02 1.287.145 2.117.402 2.413.31.363.916.56 1.834.63l.023.692h-10.34l.012-.692c.917-.07 1.516-.267 1.803-.598.29-.328.436-1.158.42-2.445l-.018-18.56c.018-1.292-.144-2.12-.402-2.416-.342-.365-.953-.562-1.827-.599L40 57h13.835c3.907 0 7.053 2.083 7.932 5.228.16.562.232 1.188.233 1.817.02 2.284-.947 4.135-2.859 5.59-1.906 1.455-4.296 2.186-7.167 2.186h-3.838z" fill="#1A1919"/><path d="M49.98 70.133c1.692 0 3.095-.43 4.168-1.294 1.198-1.024 1.82-2.51 1.814-4.498 0-.857-.074-1.62-.258-2.278-.65-2.321-2.325-3.478-4.986-3.478h-1.245c-.727 0-1.313.628-1.359 1.323.022.201.01 3.607-.004 10.225h1.87zm-1.844 1.688l-.022 7.444c-.02 1.287.145 2.117.402 2.413.31.363.916.56 1.834.63l.023.692h-10.34l.012-.692c.917-.07 1.516-.267 1.803-.598.29-.328.436-1.158.42-2.445l-.018-18.56c.018-1.292-.144-2.12-.402-2.416-.342-.365-.953-.562-1.827-.599L40 57h13.835c3.907 0 7.053 2.083 7.932 5.228.16.562.232 1.188.233 1.817.02 2.284-.947 4.135-2.859 5.59-1.906 1.455-4.296 2.186-7.167 2.186h-3.838z" stroke="#1A1919" stroke-width="2.013"/><path d="M81.823 68.305c.132.48.201.995.17 1.513-.05 1.485-1.337 2.753-2.85 2.786-1.236.037-2.296-.686-2.585-1.754-.252-.929.01-1.753.786-2.477.184-.208.295-.444.297-.689-.02-.584-.473-.86-1.348-.894-.73 0-1.44.31-2.218.894-.896.655-1.557 1.546-2.021 2.65l-.008 9.707c-.01.86.062 1.516.184 1.96.21.794.921 1.243 2.117 1.31l.012.689h-2.943c-2.745-.036-4.398-1.034-4.946-3.064a3.93 3.93 0 0 1-.158-1.1l.021-10.567c-.006-.793-.061-1.376-.174-1.789-.232-.861-.95-1.343-2.146-1.412L64 65.382h8.031l.01 2.2C73.477 65.861 75.08 65 76.846 65c2.529 0 4.419 1.239 4.976 3.305" fill="#1A1919"/><path d="M81.823 68.305c.132.48.201.995.17 1.513-.05 1.485-1.337 2.753-2.85 2.786-1.236.037-2.296-.686-2.585-1.754-.252-.929.01-1.753.786-2.477.184-.208.295-.444.297-.689-.02-.584-.473-.86-1.348-.894-.73 0-1.44.31-2.218.894-.896.655-1.557 1.546-2.021 2.65l-.008 9.707c-.01.86.062 1.516.184 1.96.21.794.921 1.243 2.117 1.31l.012.689h-2.943c-2.745-.036-4.398-1.034-4.946-3.064a3.93 3.93 0 0 1-.158-1.1l.021-10.567c-.006-.793-.061-1.376-.174-1.789-.232-.861-.95-1.343-2.146-1.412L64 65.382h8.031l.01 2.2C73.477 65.861 75.08 65 76.846 65c2.529 0 4.419 1.239 4.976 3.305z" stroke="#1A1919" stroke-width="2.013"/><path d="M90.352 68.752c-.449 1.352-.702 3.042-.757 5.106a9.337 9.337 0 0 0 1.394-.205c2.36-.371 3.553-1.821 3.555-4.327a4.938 4.938 0 0 0-.145-1.183c-.318-1.183-.942-1.759-1.917-1.759-.878 0-1.579.779-2.13 2.368zM100 79.772C98.357 82.578 95.776 84 92.207 84c-3.874 0-6.843-2.538-7.853-6.322a10.177 10.177 0 0 1-.35-2.942c-.011-2.942.77-5.308 2.33-7.033C87.978 65.914 90.225 65 93.153 65c1.279 0 2.481.338 3.627.98 1.3.71 2.085 1.622 2.392 2.772.09.34.114.676.111 1.048-.018 1.32-.795 2.434-2.317 3.414-1.77 1.182-4.238 1.792-7.384 1.86-.011 1.082.079 2.063.315 2.937.333 1.254.891 2.2 1.687 2.911a4.074 4.074 0 0 0 2.51 1.08c.919.036 1.89-.237 2.898-.88 1.007-.639 1.748-1.383 2.174-2.195l.833.845z" fill="#1A1919"/><path d="M90.352 68.752c-.449 1.352-.702 3.042-.757 5.106a9.337 9.337 0 0 0 1.394-.205c2.36-.371 3.553-1.821 3.555-4.327a4.938 4.938 0 0 0-.145-1.183c-.318-1.183-.942-1.759-1.917-1.759-.878 0-1.579.779-2.13 2.368zM100 79.772C98.357 82.578 95.776 84 92.207 84c-3.874 0-6.843-2.538-7.853-6.322a10.177 10.177 0 0 1-.35-2.942c-.011-2.942.77-5.308 2.33-7.033C87.978 65.914 90.225 65 93.153 65c1.279 0 2.481.338 3.627.98 1.3.71 2.085 1.622 2.392 2.772.09.34.114.676.111 1.048-.018 1.32-.795 2.434-2.317 3.414-1.77 1.182-4.238 1.792-7.384 1.86-.011 1.082.079 2.063.315 2.937.333 1.254.891 2.2 1.687 2.911a4.074 4.074 0 0 0 2.51 1.08c.919.036 1.89-.237 2.898-.88 1.007-.639 1.748-1.383 2.174-2.195l.833.845z" stroke="#1A1919" stroke-width="2.013"/><path d="M131.672 80.041c-.015.861.062 1.516.182 1.96.215.794.927 1.243 2.133 1.31L134 84h-2.963c-2.76-.035-4.424-1.034-4.98-3.063a4.054 4.054 0 0 1-.155-1.1l.014-9.812a3.546 3.546 0 0 0-.12-.961c-.273-1.002-.904-1.515-1.91-1.515-1.218 0-2.399.79-3.49 2.406-.029.036-.018.07-.011.104l-.003 9.982c-.011.861.065 1.516.183 1.96.216.794.93 1.243 2.136 1.31l.01.689h-2.963c-2.76-.035-4.424-1.034-4.978-3.063-.1-.379-.16-.724-.157-1.1l-.018-9.812c.005-.378-.014-.688-.088-.961-.271-1.002-.9-1.515-1.909-1.515-1.22 0-2.396.79-3.492 2.406l-.012 10.086c-.01.861.027 1.516.148 1.96.217.794.93 1.243 2.168 1.31l-.022.689h-2.961c-2.761-.035-4.426-1.034-4.98-3.063a3.935 3.935 0 0 1-.123-1.1l.02-10.568c-.006-.793-.06-1.376-.172-1.789-.233-.861-.957-1.343-2.16-1.412l-.012-.686h8.083l-.012 2.408c1.657-1.859 3.673-2.79 6.04-2.79a5.6 5.6 0 0 1 2.862.792c.995.586 1.7 1.377 2.084 2.406.586-.788 1.376-1.478 2.367-2.061 1.29-.755 2.616-1.137 3.976-1.137 1.114 0 2.137.312 3.065.897a4.528 4.528 0 0 1 2.028 2.717c.123.45.18.929.18 1.445l-.001 9.982z" fill="#1A1919"/><path d="M131.672 80.041c-.015.861.062 1.516.182 1.96.215.794.927 1.243 2.133 1.31L134 84h-2.963c-2.76-.035-4.424-1.034-4.98-3.063a4.054 4.054 0 0 1-.155-1.1l.014-9.812a3.546 3.546 0 0 0-.12-.961c-.273-1.002-.904-1.515-1.91-1.515-1.218 0-2.399.79-3.49 2.406-.029.036-.018.07-.011.104l-.003 9.982c-.011.861.065 1.516.183 1.96.216.794.93 1.243 2.136 1.31l.01.689h-2.963c-2.76-.035-4.424-1.034-4.978-3.063-.1-.379-.16-.724-.157-1.1l-.018-9.812c.005-.378-.014-.688-.088-.961-.271-1.002-.9-1.515-1.909-1.515-1.22 0-2.396.79-3.492 2.406l-.012 10.086c-.01.861.027 1.516.148 1.96.217.794.93 1.243 2.168 1.31l-.022.689h-2.961c-2.761-.035-4.426-1.034-4.98-3.063a3.935 3.935 0 0 1-.123-1.1l.02-10.568c-.006-.793-.06-1.376-.172-1.789-.233-.861-.957-1.343-2.16-1.412l-.012-.686h8.083l-.012 2.408c1.657-1.859 3.673-2.79 6.04-2.79a5.6 5.6 0 0 1 2.862.792c.995.586 1.7 1.377 2.084 2.406.586-.788 1.376-1.478 2.367-2.061 1.29-.755 2.616-1.137 3.976-1.137 1.114 0 2.137.312 3.065.897a4.528 4.528 0 0 1 2.028 2.717c.123.45.18.929.18 1.445l-.001 9.982z" stroke="#1A1919" stroke-width="2.013"/><path d="M136.278 61.647c-.253-.946-.078-1.792.493-2.534.573-.744 1.344-1.113 2.245-1.113 1.335 0 2.446.911 2.767 2.126.252.944.077 1.789-.496 2.53-.571.744-1.34 1.115-2.274 1.115-1.302 0-2.404-.876-2.735-2.124zM141.14 84c-2.646-.035-4.241-1.014-4.77-3.005a3.95 3.95 0 0 1-.12-1.08l-.014-10.368c.03-.777-.024-1.35-.132-1.754-.222-.845-.918-1.318-2.104-1.385l.022-.674h7.745l.013 14.382c-.009.845.028 1.487.143 1.923.209.78.89 1.219 2.077 1.284l-.02.677h-2.84z" fill="#1A1919"/><path d="M136.278 61.647c-.253-.946-.078-1.792.493-2.534.573-.744 1.344-1.113 2.245-1.113 1.335 0 2.446.911 2.767 2.126.252.944.077 1.789-.496 2.53-.571.744-1.34 1.115-2.274 1.115-1.302 0-2.404-.876-2.735-2.124zM141.14 84c-2.646-.035-4.241-1.014-4.77-3.005a3.95 3.95 0 0 1-.12-1.08l-.014-10.368c.03-.777-.024-1.35-.132-1.754-.222-.845-.918-1.318-2.104-1.385l.022-.674h7.745l.013 14.382c-.009.845.028 1.487.143 1.923.209.78.89 1.219 2.077 1.284l-.02.677h-2.84z" stroke="#1A1919" stroke-width="2.013"/><path d="M164.805 81.621c.22.794.94 1.242 2.195 1.31l-.02.689h-3c-2.622-.036-4.246-.928-4.916-2.723-.627.794-1.435 1.45-2.406 2.034A7.735 7.735 0 0 1 152.72 84a5.718 5.718 0 0 1-3.069-.898c-1.065-.652-1.779-1.585-2.099-2.756a5.037 5.037 0 0 1-.177-1.408l-.011-10.05c.028-.793-.026-1.376-.141-1.789-.24-.861-.973-1.344-2.223-1.412l.023-.687h8.186l-.003 13.972c-.01.346.04.656.122.965.277.997.905 1.483 1.927 1.483 1.235 0 2.43-.793 3.555-2.344l-.015-10.188c.028-.793-.025-1.376-.137-1.789-.241-.861-.973-1.344-2.224-1.412l.017-.687h8.192l.01 14.661c-.01.86.028 1.516.152 1.96" fill="#1A1919"/><path d="M164.805 81.621c.22.794.94 1.242 2.195 1.31l-.02.689h-3c-2.622-.036-4.246-.928-4.916-2.723-.627.794-1.435 1.45-2.406 2.034A7.735 7.735 0 0 1 152.72 84a5.718 5.718 0 0 1-3.069-.898c-1.065-.652-1.779-1.585-2.099-2.756a5.037 5.037 0 0 1-.177-1.408l-.011-10.05c.028-.793-.026-1.376-.141-1.789-.24-.861-.973-1.344-2.223-1.412l.023-.687h8.186l-.003 13.972c-.01.346.04.656.122.965.277.997.905 1.483 1.927 1.483 1.235 0 2.43-.793 3.555-2.344l-.015-10.188c.028-.793-.025-1.376-.137-1.789-.241-.861-.973-1.344-2.224-1.412l.017-.687h8.192l.01 14.661c-.01.86.028 1.516.152 1.96z" stroke="#1A1919" stroke-width="2.013"/><path d="M197.672 80.041c-.014.861.062 1.516.18 1.96.216.794.933 1.243 2.135 1.31L200 84h-2.962c-2.762-.035-4.425-1.034-4.977-3.063a3.806 3.806 0 0 1-.156-1.1l.012-9.812a3.358 3.358 0 0 0-.122-.961c-.273-1.002-.898-1.515-1.91-1.515-1.217 0-2.397.79-3.489 2.406-.027.036-.015.07-.011.104l-.001 9.982c-.013.861.063 1.516.184 1.96.214.794.929 1.243 2.132 1.31l.012.689h-2.96c-2.763-.035-4.426-1.034-4.981-3.063a4.03 4.03 0 0 1-.156-1.1l-.02-9.812c.003-.378-.013-.688-.088-.961-.273-1.002-.899-1.515-1.908-1.515-1.22 0-2.397.79-3.49 2.406l-.013 10.086c-.01.861.028 1.516.147 1.96.215.794.934 1.243 2.167 1.31l-.02.689h-2.96c-2.761-.035-4.425-1.034-4.981-3.063a3.935 3.935 0 0 1-.123-1.1l.018-10.568c-.006-.793-.06-1.376-.171-1.789-.233-.861-.954-1.343-2.16-1.412l-.013-.686h8.083l-.01 2.408c1.659-1.859 3.67-2.79 6.041-2.79a5.58 5.58 0 0 1 2.858.792c1 .586 1.7 1.377 2.085 2.406.584-.788 1.378-1.478 2.37-2.061C189.715 65.382 191.04 65 192.4 65c1.115 0 2.136.312 3.063.897a4.511 4.511 0 0 1 2.027 2.717c.122.45.184.929.184 1.445l-.003 9.982z" fill="#1A1919"/><path d="M197.672 80.041c-.014.861.062 1.516.18 1.96.216.794.933 1.243 2.135 1.31L200 84h-2.962c-2.762-.035-4.425-1.034-4.977-3.063a3.806 3.806 0 0 1-.156-1.1l.012-9.812a3.358 3.358 0 0 0-.122-.961c-.273-1.002-.898-1.515-1.91-1.515-1.217 0-2.397.79-3.489 2.406-.027.036-.015.07-.011.104l-.001 9.982c-.013.861.063 1.516.184 1.96.214.794.929 1.243 2.132 1.31l.012.689h-2.96c-2.763-.035-4.426-1.034-4.981-3.063a4.03 4.03 0 0 1-.156-1.1l-.02-9.812c.003-.378-.013-.688-.088-.961-.273-1.002-.899-1.515-1.908-1.515-1.22 0-2.397.79-3.49 2.406l-.013 10.086c-.01.861.028 1.516.147 1.96.215.794.934 1.243 2.167 1.31l-.02.689h-2.96c-2.761-.035-4.425-1.034-4.981-3.063a3.935 3.935 0 0 1-.123-1.1l.018-10.568c-.006-.793-.06-1.376-.171-1.789-.233-.861-.954-1.343-2.16-1.412l-.013-.686h8.083l-.01 2.408c1.659-1.859 3.67-2.79 6.041-2.79a5.58 5.58 0 0 1 2.858.792c1 .586 1.7 1.377 2.085 2.406.584-.788 1.378-1.478 2.37-2.061C189.715 65.382 191.04 65 192.4 65c1.115 0 2.136.312 3.063.897a4.511 4.511 0 0 1 2.027 2.717c.122.45.184.929.184 1.445l-.003 9.982z" stroke="#1A1919" stroke-width="2.013"/><path d="M20.974 53.836c2.493 0 4.762-.345 6.796-1.03 2.039-.686 3.762-1.658 5.2-2.896a12.82 12.82 0 0 0 3.325-4.544c.787-1.777 1.175-3.765 1.175-5.95 0-3.105-.664-5.706-1.967-7.782a20.423 20.423 0 0 0-4.955-5.389 35.958 35.958 0 0 0-6.407-3.85 143.686 143.686 0 0 1-6.406-3.163c-1.982-1.046-3.636-2.201-4.952-3.476-1.317-1.264-1.972-2.818-1.972-4.65 0-2.388.725-4.18 2.187-5.379 1.455-1.193 3.223-1.794 5.3-1.794 1.672 0 3.303.383 4.928 1.077 4.462 1.916 10.249 7.664 11.307 12.502h.145l.007-13.983h-2.499c-.875 0-1.82-.114-2.835-.35a92.333 92.333 0 0 1-3.257-.83 45.766 45.766 0 0 0-3.679-.816 22.338 22.338 0 0 0-4.03-.347c-5.355 0-9.35 1.072-11.992 3.229-2.628 2.173-4.345 5.314-4.345 10.096 0 2.75 1.064 5.39 2.41 7.279 1.341 1.876 3.02 3.506 5.03 4.87a43.538 43.538 0 0 0 6.525 3.666 83.927 83.927 0 0 1 6.521 3.318c2.018 1.144 3.685 2.419 5.028 3.814 1.341 1.405 2.012 3.137 2.012 5.222 0 1.53-.24 2.794-.723 3.783-.493 1.005-1.186 1.783-2.09 2.355-.894.595-1.977 1.007-3.218 1.262-1.252.259-2.636.384-4.168.384-1.865 0-3.712-.393-5.522-1.204C7.95 46.6 2.687 39.653 1.286 35.25h-.26l-.014 15.973h2.797c.987 0 2.047.132 3.191.395 1.133.27 2.337.617 3.644.928 2.764.647 4.26 1.29 10.33 1.29" fill="#1A1919"/><path d="M20.974 53.836c2.493 0 4.762-.345 6.796-1.03 2.039-.686 3.762-1.658 5.2-2.896a12.82 12.82 0 0 0 3.325-4.544c.787-1.777 1.175-3.765 1.175-5.95 0-3.105-.664-5.706-1.967-7.782a20.423 20.423 0 0 0-4.955-5.389 35.958 35.958 0 0 0-6.407-3.85 143.686 143.686 0 0 1-6.406-3.163c-1.982-1.046-3.636-2.201-4.952-3.476-1.317-1.264-1.972-2.818-1.972-4.65 0-2.388.725-4.18 2.187-5.379 1.455-1.193 3.223-1.794 5.3-1.794 1.672 0 3.303.383 4.928 1.077 4.462 1.916 10.249 7.664 11.307 12.502h.145l.007-13.983h-2.499c-.875 0-1.82-.114-2.835-.35a92.333 92.333 0 0 1-3.257-.83 45.766 45.766 0 0 0-3.679-.816 22.338 22.338 0 0 0-4.03-.347c-5.355 0-9.35 1.072-11.992 3.229-2.628 2.173-4.345 5.314-4.345 10.096 0 2.75 1.064 5.39 2.41 7.279 1.341 1.876 3.02 3.506 5.03 4.87a43.538 43.538 0 0 0 6.525 3.666 83.927 83.927 0 0 1 6.521 3.318c2.018 1.144 3.685 2.419 5.028 3.814 1.341 1.405 2.012 3.137 2.012 5.222 0 1.53-.24 2.794-.723 3.783-.493 1.005-1.186 1.783-2.09 2.355-.894.595-1.977 1.007-3.218 1.262-1.252.259-2.636.384-4.168.384-1.865 0-3.712-.393-5.522-1.204C7.95 46.6 2.687 39.653 1.286 35.25h-.26l-.014 15.973h2.797c.987 0 2.047.132 3.191.395 1.133.27 2.337.617 3.644.928 2.764.647 4.26 1.29 10.33 1.29" stroke="#1A1919" stroke-width="1.867" stroke-linecap="round" stroke-linejoin="round"/><path d="M198.77 42.946l.125.032c-.673 5.02-3.081 7.881-5.328 9.333-2.26 1.453-4.671 2.185-7.219 2.185-4.283 0-7.708-1.701-10.292-5.053-2.566-3.368-3.828-7.41-3.828-12.135 0-4.55 1.163-8.547 3.514-12.014 2.828-4.17 6.74-6.26 11.715-6.26 3.333 0 5.994.873 7.977 2.626 1.943 1.746 2.95 3.704 2.95 5.849 0 1.365-.408 2.46-1.214 3.27-.79.81-1.85 1.225-3.146 1.225-1.369 0-2.488-.458-3.385-1.406-.904-.93-1.443-2.599-1.654-4.995-.141-1.5-.48-2.561-1.017-3.156-.532-.602-1.157-.908-1.882-.908-1.105 0-2.052.608-2.848 1.827-1.209 1.83-1.805 4.633-1.805 8.418 0 3.14.44 6.158 1.437 9.014 2.851 8.044 13.333 7.791 15.9 2.148" fill="#1A1919"/><path d="M198.77 42.946l.125.032c-.673 5.02-3.081 7.881-5.328 9.333-2.26 1.453-4.671 2.185-7.219 2.185-4.283 0-7.708-1.701-10.292-5.053-2.566-3.368-3.828-7.41-3.828-12.135 0-4.55 1.163-8.547 3.514-12.014 2.828-4.17 6.74-6.26 11.715-6.26 3.333 0 5.994.873 7.977 2.626 1.943 1.746 2.95 3.704 2.95 5.849 0 1.365-.408 2.46-1.214 3.27-.79.81-1.85 1.225-3.146 1.225-1.369 0-2.488-.458-3.385-1.406-.904-.93-1.443-2.599-1.654-4.995-.141-1.5-.48-2.561-1.017-3.156-.532-.602-1.157-.908-1.882-.908-1.105 0-2.052.608-2.848 1.827-1.209 1.83-1.805 4.633-1.805 8.418 0 3.14.44 6.158 1.437 9.014 2.851 8.044 13.333 7.791 15.9 2.148" stroke="#1A1919" stroke-width="1.867" stroke-linecap="round" stroke-linejoin="round"/><path d="M51.743 53.45V20.041H39.108c1.744.756 2.743 3.116 2.743 5.51v20.435c.159 2.313 1.368 7.458 8.812 7.458l-.006.004h1.086" fill="#1A1919"/><path d="M51.743 53.45V20.041H39.108c1.744.756 2.743 3.116 2.743 5.51v20.435c.159 2.313 1.368 7.458 8.812 7.458l-.006.004h1.086" stroke="#1A1919" stroke-width="1.867" stroke-linecap="round" stroke-linejoin="round"/><path d="M120.987 53.45V20.041h-11.482c1.275 1.188 2.19 3.473 2.19 5.879v20.066c.151 2.313 1.28 7.458 8.26 7.458v.004h1.032" fill="#1A1919"/><path d="M120.987 53.45V20.041h-11.482c1.275 1.188 2.19 3.473 2.19 5.879v20.066c.151 2.313 1.28 7.458 8.26 7.458v.004h1.032" stroke="#1A1919" stroke-width="1.867" stroke-linecap="round" stroke-linejoin="round"/><path d="M104.576 53.445V32.35c0-3.615-.244-6.257-.768-7.906-.509-1.648-1.422-3.017-2.747-4.09-1.323-1.07-3.092-1.605-5.323-1.605-1.842 0-3.601.479-5.268 1.445-1.706.96-3.462 2.52-5.292 4.69-.75-2.067-1.842-3.612-3.246-4.617-1.389-1.011-3.125-1.518-5.203-1.518-1.79 0-3.442.403-4.933 1.206-1.515.806-3.15 2.217-4.92 4.238v-4.4h-11.86s2.213 1.003 2.213 4.013v22.122c.16 2.33 1.344 7.513 8.59 7.513v.004h1.057v-25.43c1.214-1.777 2.362-3.043 3.44-3.788a4.49 4.49 0 0 1 2.53-.744c.616 0 1.211.213 1.74.646.547.431.917 1.04 1.162 1.808.232.764.335 2.687.335 5.742v13.143c0 .025-.02.392 0 .953.124 2.219 1.174 7.666 8.609 7.666v.004h1.036v-25.43c1.037-1.51 2.051-2.648 3.054-3.402 1.018-.758 2.02-1.135 3.001-1.135.674 0 1.232.195 1.727.597.494.398.858 1.012 1.083 1.83.23.814.36 2.733.36 5.75v14.273c.153 2.33 1.33 7.513 8.59 7.513l-.02.004h1.053" fill="#1A1919"/><path d="M104.576 53.445V32.35c0-3.615-.244-6.257-.768-7.906-.509-1.648-1.422-3.017-2.747-4.09-1.323-1.07-3.092-1.605-5.323-1.605-1.842 0-3.601.479-5.268 1.445-1.706.96-3.462 2.52-5.292 4.69-.75-2.067-1.842-3.612-3.246-4.617-1.389-1.011-3.125-1.518-5.203-1.518-1.79 0-3.442.403-4.933 1.206-1.515.806-3.15 2.217-4.92 4.238v-4.4h-11.86s2.213 1.003 2.213 4.013v22.122c.16 2.33 1.344 7.513 8.59 7.513v.004h1.057v-25.43c1.214-1.777 2.362-3.043 3.44-3.788a4.49 4.49 0 0 1 2.53-.744c.616 0 1.211.213 1.74.646.547.431.917 1.04 1.162 1.808.232.764.335 2.687.335 5.742v13.143c0 .025-.02.392 0 .953.124 2.219 1.174 7.666 8.609 7.666v.004h1.036v-25.43c1.037-1.51 2.051-2.648 3.054-3.402 1.018-.758 2.02-1.135 3.001-1.135.674 0 1.232.195 1.727.597.494.398.858 1.012 1.083 1.83.23.814.36 2.733.36 5.75v14.273c.153 2.33 1.33 7.513 8.59 7.513l-.02.004h1.053" stroke="#1A1919" stroke-width="1.867" stroke-linecap="round" stroke-linejoin="round"/><path d="M136.855 53.44V4.274H124.41c.86.323 2.54 2.45 2.54 6.997v33.482l.016-.002-.016.048v.854c.11 2.224 1.156 7.785 8.836 7.785v.004h1.07" fill="#1A1919"/><path d="M136.855 53.44V4.274H124.41c.86.323 2.54 2.45 2.54 6.997v33.482l.016-.002-.016.048v.854c.11 2.224 1.156 7.785 8.836 7.785v.004h1.07" stroke="#1A1919" stroke-width="1.867" stroke-linecap="round" stroke-linejoin="round"/><path d="M159.516 46.139c-1.565 1.42-3.15 2.18-4.567 2.18-1.397 0-2.65-.252-3.303-.833-.657-.58-1.022-1.283-1.11-2.607-.095-1.323.053-2.545 1.868-4.667 1.822-2.117 4.26-3.575 7.112-5.282v11.209zm9.791.61V31.584c0-6.332-.561-8.142-3.904-10.536-1.86-1.338-4.347-2.047-7.508-2.047-2.617 0-5.125.423-7.536 1.272-2.438.847-4.33 2.063-5.675 3.644-1.366 1.588-2.032 3.248-2.032 4.997 0 1.23.506 2.301 1.504 3.228 1.002.92 2.27 1.378 3.765 1.378 1.396 0 2.542-.415 3.393-1.245.877-.84 1.308-1.857 1.308-3.032 0-.974-.45-1.974-1.356-3.024-.656-.74-1-1.378-1-1.885 0-.581.306-1.08.928-1.531.997-.701 2.27-1.044 3.811-1.044.944 0 1.8.246 2.561.74.747.5 1.274 1.082 1.544 1.748.28.666.406 2.287.406 4.856v3.413c-7.64 3.132-12.321 4.327-15.198 6.76-2.394 2.03-3.433 4.199-3.308 6.884.09 1.908.64 4.003 1.89 5.29 1.49 1.567 3.854 2.53 5.689 2.53 3.75 0 6.867-1.446 10.927-5.18.235 1.875.904 3.264 1.96 4.217 1.385 1.21 6.923.963 6.923.963H170s-.693-3.199-.693-7.23z" fill="#1A1919"/><path d="M159.516 46.139c-1.565 1.42-3.15 2.18-4.567 2.18-1.397 0-2.65-.252-3.303-.833-.657-.58-1.022-1.283-1.11-2.607-.095-1.323.053-2.545 1.868-4.667 1.822-2.117 4.26-3.575 7.112-5.282v11.209zm9.791.61V31.584c0-6.332-.561-8.142-3.904-10.536-1.86-1.338-4.347-2.047-7.508-2.047-2.617 0-5.125.423-7.536 1.272-2.438.847-4.33 2.063-5.675 3.644-1.366 1.588-2.032 3.248-2.032 4.997 0 1.23.506 2.301 1.504 3.228 1.002.92 2.27 1.378 3.765 1.378 1.396 0 2.542-.415 3.393-1.245.877-.84 1.308-1.857 1.308-3.032 0-.974-.45-1.974-1.356-3.024-.656-.74-1-1.378-1-1.885 0-.581.306-1.08.928-1.531.997-.701 2.27-1.044 3.811-1.044.944 0 1.8.246 2.561.74.747.5 1.274 1.082 1.544 1.748.28.666.406 2.287.406 4.856v3.413c-7.64 3.132-12.321 4.327-15.198 6.76-2.394 2.03-3.433 4.199-3.308 6.884.09 1.908.64 4.003 1.89 5.29 1.49 1.567 3.854 2.53 5.689 2.53 3.75 0 6.867-1.446 10.927-5.18.235 1.875.904 3.264 1.96 4.217 1.385 1.21 6.923.963 6.923.963H170s-.693-3.199-.693-7.23z" stroke="#1A1919" stroke-width="1.867" stroke-linecap="round" stroke-linejoin="round"/><path d="M42 12.496a4.5 4.5 0 1 0 9 0A4.501 4.501 0 0 0 46.508 8C44.02 8 42 10.02 42 12.496" fill="#1A1919"/><path d="M42 12.496a4.5 4.5 0 1 0 9 0A4.501 4.501 0 0 0 46.508 8C44.02 8 42 10.02 42 12.496z" stroke="#1A1919" stroke-width="1.867" stroke-linecap="round" stroke-linejoin="round"/><path d="M113 12.496A4.498 4.498 0 0 0 117.499 17 4.505 4.505 0 0 0 122 12.496a4.5 4.5 0 1 0-9 0" fill="#1A1919"/><path d="M113 12.496A4.498 4.498 0 0 0 117.499 17 4.505 4.505 0 0 0 122 12.496a4.5 4.5 0 1 0-9 0z" stroke="#1A1919" stroke-width="1.867" stroke-linecap="round" stroke-linejoin="round"/><path d="M202.9 20.163h.674c.429 0 .745-.065.745-.543 0-.42-.438-.486-.78-.486h-.64v1.029zm-.76-1.637h1.445c.954 0 1.493.307 1.493 1.16 0 .722-.439 1.003-1.003 1.048l1.02 1.714h-.792l-.93-1.678h-.474v1.678h-.76v-3.922zm1.358 4.725c1.416 0 2.57-1.16 2.57-2.759 0-1.592-1.154-2.743-2.57-2.743-1.43 0-2.568 1.15-2.568 2.743 0 1.6 1.139 2.759 2.568 2.759zm0-6.251c1.852 0 3.502 1.366 3.502 3.492 0 2.133-1.65 3.508-3.502 3.508-1.847 0-3.498-1.375-3.498-3.508 0-2.126 1.65-3.492 3.498-3.492z" fill="#1A1919"/><path d="M20.71 54c2.461 0 4.7-.347 6.712-1.036 2.009-.695 3.714-1.67 5.132-2.915a12.883 12.883 0 0 0 3.284-4.575c.776-1.789 1.162-3.79 1.162-5.99 0-3.125-.657-5.743-1.945-7.833a20.396 20.396 0 0 0-4.891-5.425 35.416 35.416 0 0 0-6.327-3.877 140.771 140.771 0 0 1-6.325-3.183c-1.956-1.055-3.59-2.216-4.887-3.499-1.303-1.275-1.949-2.837-1.949-4.681 0-2.405.716-4.208 2.16-5.418 1.436-1.198 3.182-1.803 5.233-1.803 1.652 0 3.26.383 4.865 1.084 4.405 1.929 10.12 7.715 11.165 12.586h.143l.007-14.076h-2.468c-.865 0-1.798-.118-2.8-.353a100.86 100.86 0 0 1-3.217-.835 45.212 45.212 0 0 0-3.63-.824A21.818 21.818 0 0 0 18.154 1C12.867 1 8.92 2.079 6.314 4.25 3.72 6.437 2.022 9.6 2.022 14.414c0 2.768 1.053 5.426 2.382 7.327a19.686 19.686 0 0 0 4.963 4.903 42.988 42.988 0 0 0 6.446 3.69 81.278 81.278 0 0 1 6.438 3.34c1.99 1.151 3.64 2.432 4.963 3.84 1.326 1.414 1.987 3.158 1.987 5.256 0 1.541-.235 2.813-.714 3.809-.486 1.01-1.17 1.794-2.062 2.37-.884.6-1.952 1.014-3.179 1.27-1.236.261-2.602.385-4.115.385-1.841 0-3.665-.394-5.45-1.21C7.85 46.716 2.656 39.721 1.27 35.29h-.257L1 51.37h2.764c.973 0 2.019.133 3.149.398 1.12.271 2.308.62 3.596.933C13.24 53.353 14.718 54 20.71 54m178.164-10.726l.126.034c-.68 5.094-3.118 8-5.391 9.474-2.288 1.475-4.73 2.218-7.311 2.218-4.338 0-7.806-1.73-10.421-5.13-2.598-3.42-3.877-7.523-3.877-12.32 0-4.621 1.177-8.677 3.557-12.196C178.42 21.122 182.383 19 187.42 19c3.376 0 6.069.886 8.075 2.666 1.967 1.773 2.988 3.76 2.988 5.933 0 1.387-.412 2.502-1.23 3.325-.797.821-1.872 1.243-3.18 1.243-1.39 0-2.523-.465-3.433-1.428-.912-.944-1.46-2.639-1.673-5.073-.142-1.521-.483-2.598-1.031-3.202-.537-.61-1.17-.921-1.904-.921-1.12 0-2.079.617-2.883 1.852-1.226 1.86-1.829 4.705-1.829 8.549 0 3.186.444 6.25 1.457 9.15 2.885 8.166 13.498 7.91 16.097 2.18M51 53V20H39c1.655.746 2.605 3.078 2.605 5.443v20.185c.152 2.285 1.301 7.368 8.367 7.368l-.004.004H51m70 0V20h-12c1.332 1.174 2.288 3.43 2.288 5.807v19.821c.159 2.285 1.338 7.368 8.632 7.368V53H121m-16 1V32.721c0-3.647-.25-6.311-.774-7.975-.518-1.661-1.437-3.042-2.773-4.125-1.334-1.08-3.12-1.621-5.37-1.621-1.857 0-3.633.485-5.314 1.46-1.721.966-3.493 2.542-5.34 4.73-.755-2.085-1.857-3.643-3.275-4.657C80.754 19.511 79 19 76.904 19c-1.802 0-3.47.405-4.977 1.219-1.525.813-3.176 2.236-4.961 4.274v-4.437H55s2.233 1.01 2.233 4.047v22.314c.16 2.351 1.354 7.58 8.667 7.58V54h1.066V28.348c1.224-1.793 2.382-3.07 3.472-3.82.78-.51 1.614-.75 2.551-.75.622 0 1.22.215 1.756.648.551.438.923 1.052 1.17 1.826.234.771.34 2.71.34 5.792v13.258c0 .021-.023.395 0 .96.123 2.239 1.183 7.734 8.683 7.734V54h1.045V28.348c1.047-1.523 2.07-2.67 3.083-3.43 1.026-.765 2.04-1.146 3.028-1.146.678 0 1.243.197 1.741.601.499.403.866 1.022 1.095 1.847.231.82.364 2.757.364 5.8v14.397c.148 2.351 1.338 7.58 8.66 7.58l-.017.003H105m32-1V4h-12c.83.321 2.45 2.442 2.45 6.973V44.34l.013-.002-.013.048v.851c.103 2.217 1.113 7.76 8.522 7.76V53H137m22.518-6.861c-1.565 1.42-3.149 2.18-4.566 2.18-1.398 0-2.654-.252-3.303-.833-.662-.579-1.024-1.283-1.115-2.606-.094-1.324.058-2.546 1.874-4.667 1.819-2.117 4.254-3.576 7.11-5.283v11.21zm9.795.611V31.584c0-6.332-.567-8.143-3.909-10.536-1.856-1.34-4.35-2.048-7.506-2.048-2.62 0-5.126.423-7.54 1.273-2.438.847-4.329 2.063-5.672 3.644-1.372 1.586-2.034 3.248-2.034 4.997 0 1.229.506 2.3 1.506 3.228.999.919 2.27 1.378 3.762 1.378 1.397 0 2.546-.416 3.394-1.246.88-.84 1.311-1.857 1.311-3.033 0-.975-.454-1.972-1.36-3.023-.654-.738-.998-1.377-.998-1.886 0-.58.305-1.08.928-1.53.998-.7 2.272-1.043 3.81-1.043.946 0 1.798.245 2.561.74.752.5 1.274 1.082 1.545 1.747.28.667.407 2.287.407 4.856v3.414c-7.64 3.13-12.326 4.326-15.2 6.759-2.394 2.03-3.433 4.199-3.308 6.883.09 1.91.64 4.005 1.889 5.29 1.489 1.568 3.854 2.531 5.694 2.531 3.747 0 6.866-1.446 10.925-5.18.236 1.875.902 3.264 1.96 4.217 1.386 1.21 6.923.963 6.923.963H170s-.687-3.198-.687-7.229zM42 12.497A4.503 4.503 0 0 0 46.506 17 4.499 4.499 0 0 0 51 12.497 4.502 4.502 0 0 0 46.506 8 4.506 4.506 0 0 0 42 12.497m71 0A4.496 4.496 0 0 0 117.5 17c2.481 0 4.5-2.013 4.5-4.503a4.5 4.5 0 1 0-9 0" fill="#EAB53C"/><path d="M35.184 31.346a19.51 19.51 0 0 0-4.69-5.129 34.453 34.453 0 0 0-6.178-3.733 148.83 148.83 0 0 1-6.373-3.165c-2.035-1.083-3.748-2.29-5.085-3.596-1.47-1.42-2.216-3.188-2.216-5.245 0-1.777.387-3.27 1.138-4.478C10.606 7.32 10 9.107 10 11.337c0 2.059.748 3.819 2.22 5.245 1.334 1.302 3.045 2.513 5.082 3.595a148.815 148.815 0 0 0 6.375 3.159 34.66 34.66 0 0 1 6.178 3.738 19.36 19.36 0 0 1 4.69 5.134c1.205 1.923 1.816 4.376 1.816 7.276 0 2.05-.368 3.925-1.093 5.568A12.596 12.596 0 0 1 34.19 47a12.17 12.17 0 0 0 1.721-2.807c.722-1.645 1.09-3.517 1.09-5.564 0-2.903-.612-5.354-1.816-7.283" fill="#1A1919"/><path d="M6.444 6.061c2.462-2.1 6.318-3.368 11.453-3.368 1.343 0 2.65.116 3.881.348a42.07 42.07 0 0 1 3.61.84c1.163.326 2.26.622 3.29.872 1.065.257 2.088.391 3.04.391h1.636l-.008 7.795c.228.357.445.703.648 1.061L34 4.447h-1.642c-.945 0-1.967-.133-3.034-.391a82.886 82.886 0 0 1-3.287-.874 44.067 44.067 0 0 0-3.611-.839A21.94 21.94 0 0 0 18.545 2C13.408 2 9.552 3.068 7.092 5.163A11.218 11.218 0 0 0 5 7.579c.432-.542.905-1.052 1.444-1.518m6.243 44.689c1.852.83 3.773 1.25 5.719 1.25 1.541 0 2.963-.13 4.226-.39 1.341-.279 2.498-.736 3.433-1.359.781-.506 1.428-.976 1.935-1.776a6.249 6.249 0 0 1-1.307 1.13c-.935.614-2.088 1.07-3.435 1.351-1.26.256-2.68.39-4.223.39-1.943 0-3.867-.42-5.717-1.252C8.759 48.033 4.367 43.271 2.004 39L2 40.715c2.464 3.97 6.504 8.142 10.687 10.035m174.771-30.154c3.118 0 5.615.8 7.43 2.362 1.772 1.548 2.661 3.263 2.661 5.093 0 .772-.149 1.415-.457 1.949.61-.631.908-1.462.908-2.55 0-1.826-.892-3.539-2.665-5.085-1.813-1.567-4.313-2.365-7.429-2.365-4.657 0-8.226 1.825-10.906 5.58 2.623-3.349 6.058-4.984 10.458-4.984" fill="#1A1919"/><path d="M182.199 40.652c-1.02-2.76-1.54-5.812-1.54-9.082 0-3.83.647-6.633 1.95-8.57a7.008 7.008 0 0 0-.586.72c-1.36 1.94-2.023 4.783-2.023 8.685 0 3.269.518 6.326 1.544 9.088 1.843 4.89 6.325 6.636 9.905 6.636 2.24 0 4.318-.658 5.89-1.775A11.462 11.462 0 0 1 195.918 49c.768-.865 1.521-2 2.083-3.483-1.573 1.118-3.65 1.77-5.891 1.77-3.585 0-8.061-1.74-9.91-6.635M41 20c.173.27.32.366.463.671h7.914v31.312c.146.003.275.017.42.017H50V20h-9zm71 0c.154.272.285.376.416.671h7.966v31.312c.137.003.26.017.397.017H121V20h-9zm-46 8.846v23.138c.149.003.292.016.444.016h.221V28l-.665.846zm19 0v23.138c.153.003.299.016.462.016h.199V28l-.661.846zM127 6c.144.257.28.353.408.668h7.975v46.316c.145.003.277.016.43.016H136V6h-9zm23.892 25.99c.747-.723 1.108-1.573 1.108-2.594 0-.82-.402-1.685-1.211-2.637-.877-.992-1.297-1.858-1.297-2.648 0-.394.099-.757.265-1.111-.631.6-.757 1.07-.757 1.837 0 .79.42 1.657 1.295 2.642.813.955 1.214 1.824 1.214 2.643 0 .615-.355 1.373-.63 1.878.008-.005.012-.005.013-.01m-6.66 8.684c1.81-1.657 4.627-2.92 8.627-4.556 1.6-.657 6.141-2.69 6.141-2.69V33c-2.134.94-4.03 1.713-5.701 2.4-3.995 1.636-6.63 2.716-8.441 4.374-.79.728-1.404 1.458-1.858 2.226.348-.446.757-.886 1.232-1.326" fill="#1A1919"/><path d="M145.155 25.188c1.23-1.445 2.998-2.578 5.248-3.366a21.652 21.652 0 0 1 7.184-1.213c2.887 0 5.219.632 6.927 1.87 2.987 2.147 3.517 3.606 3.517 9.769v15.056c0 2.326.222 4.366.421 5.696H169a39.643 39.643 0 0 1-.51-6.311v-15.06c0-6.158-.528-7.616-3.52-9.77-1.708-1.235-4.04-1.859-6.924-1.859-2.483 0-4.903.407-7.182 1.209-2.258.788-4.022 1.914-5.251 3.365a8.784 8.784 0 0 0-.613.805l.155-.19m3.865 19.685c.106 1.42.535 2.348 1.436 3.106 1.001.84 2.719 1.02 3.981 1.02 1.671 0 3.49-.81 5.275-2.337l.288-.249v-.286c-1.654 1.323-3.338 2.027-4.89 2.027-1.262 0-2.982-.175-3.978-1.02-.905-.752-1.333-1.683-1.44-3.106-.094-1.331.114-2.487 1.235-4.029-1.719 1.986-2.017 3.318-1.907 4.874M116.355 9.626c1.78 0 3.23 1.611 3.23 3.598A3.79 3.79 0 0 1 119.15 15a3.79 3.79 0 0 0 .851-2.415C120 10.613 118.553 9 116.774 9c-1.188 0-2.212.727-2.774 1.788.584-.71 1.422-1.162 2.355-1.162m-70 0c1.78 0 3.228 1.611 3.228 3.598 0 .643-.159 1.253-.432 1.776.523-.642.849-1.48.849-2.415C50 10.613 48.55 9 46.773 9c-1.187 0-2.215.727-2.773 1.788.584-.71 1.42-1.162 2.355-1.162M66.352 26c.164-.168.385-.39.648-.647V20h-9c.17.238.322.337.454.635h7.898V26zm18.191-.14c-.667-1.985-1.63-3.477-2.86-4.433C80.487 20.477 78.952 20 77.12 20c-1.602 0-3.08.388-4.404 1.164-.842.483-1.754 1.226-2.716 2.207.654-.495 1.5-1.051 2.475-1.507a8.668 8.668 0 0 1 4.03-.96c1.832 0 3.368.478 4.565 1.421 1.232.962 2.19 2.453 2.856 4.443L84.338 28c.12-.142.355-.418.662-.773l-.457-1.367zm19.74-.766c-.452-1.483-1.27-2.718-2.44-3.676-1.158-.96-2.707-1.418-4.732-1.418-1.665 0-3.277.444-4.792 1.335-1.064.607-2.174 1.492-3.319 2.643a15.15 15.15 0 0 1 3.1-2.01c1.397-.733 2.867-1.108 4.384-1.108 2.03 0 3.576.464 4.738 1.42 1.162.956 1.98 2.19 2.433 3.675.472 1.532.719 4.104.719 7.659v19.37c.15.003.285.016.442.016H105V32.75c0-3.554-.237-6.123-.717-7.656" fill="#1A1919"/><path d="M49.98 70.133c1.692 0 3.095-.43 4.168-1.294 1.198-1.024 1.82-2.51 1.814-4.498 0-.857-.074-1.62-.258-2.278-.65-2.321-2.325-3.478-4.986-3.478h-1.245c-.727 0-1.313.628-1.359 1.323.022.201.01 3.607-.004 10.225h1.87zm-1.844 1.688l-.022 7.444c-.02 1.287.145 2.117.402 2.413.31.363.916.56 1.834.63l.023.692h-10.34l.012-.692c.917-.07 1.516-.267 1.803-.598.29-.328.436-1.158.42-2.445l-.018-18.56c.018-1.292-.144-2.12-.402-2.416-.342-.365-.953-.562-1.827-.599L40 57h13.835c3.907 0 7.053 2.083 7.932 5.228.16.562.232 1.188.233 1.817.02 2.284-.947 4.135-2.859 5.59-1.906 1.455-4.296 2.186-7.167 2.186h-3.838zm33.687-3.516c.132.48.201.995.17 1.513-.05 1.485-1.337 2.753-2.85 2.786-1.236.037-2.296-.686-2.585-1.754-.252-.929.01-1.753.786-2.477.184-.208.295-.444.297-.689-.02-.584-.473-.86-1.348-.894-.73 0-1.44.31-2.218.894-.896.655-1.557 1.546-2.021 2.65l-.008 9.707c-.01.86.062 1.516.184 1.96.21.794.921 1.243 2.117 1.31l.012.689h-2.943c-2.745-.036-4.398-1.034-4.946-3.064a3.93 3.93 0 0 1-.158-1.1l.021-10.567c-.006-.793-.061-1.376-.174-1.789-.232-.861-.95-1.343-2.146-1.412L64 65.382h8.031l.01 2.2C73.477 65.861 75.08 65 76.846 65c2.529 0 4.419 1.239 4.976 3.305m8.53.447c-.449 1.352-.702 3.042-.757 5.106a9.337 9.337 0 0 0 1.394-.205c2.36-.371 3.553-1.821 3.555-4.327a4.938 4.938 0 0 0-.145-1.183c-.318-1.183-.942-1.759-1.917-1.759-.878 0-1.579.779-2.13 2.368zM100 79.772C98.357 82.578 95.776 84 92.207 84c-3.874 0-6.843-2.538-7.853-6.322a10.177 10.177 0 0 1-.35-2.942c-.011-2.942.77-5.308 2.33-7.033C87.978 65.914 90.225 65 93.153 65c1.279 0 2.481.338 3.627.98 1.3.71 2.085 1.622 2.392 2.772.09.34.114.676.111 1.048-.018 1.32-.795 2.434-2.317 3.414-1.77 1.182-4.238 1.792-7.384 1.86-.011 1.082.079 2.063.315 2.937.333 1.254.891 2.2 1.687 2.911a4.074 4.074 0 0 0 2.51 1.08c.919.036 1.89-.237 2.898-.88 1.007-.639 1.748-1.383 2.174-2.195l.833.845zm31.672.269c-.015.861.062 1.516.182 1.96.215.794.927 1.243 2.133 1.31L134 84h-2.963c-2.76-.035-4.424-1.034-4.98-3.063a4.054 4.054 0 0 1-.155-1.1l.014-9.812a3.546 3.546 0 0 0-.12-.961c-.273-1.002-.904-1.515-1.91-1.515-1.218 0-2.399.79-3.49 2.406-.029.036-.018.07-.011.104l-.003 9.982c-.011.861.065 1.516.183 1.96.216.794.93 1.243 2.136 1.31l.01.689h-2.963c-2.76-.035-4.424-1.034-4.978-3.063-.1-.379-.16-.724-.157-1.1l-.018-9.812c.005-.378-.014-.688-.088-.961-.271-1.002-.9-1.515-1.909-1.515-1.22 0-2.396.79-3.492 2.406l-.012 10.086c-.01.861.027 1.516.148 1.96.217.794.93 1.243 2.168 1.31l-.022.689h-2.961c-2.761-.035-4.426-1.034-4.98-3.063a3.935 3.935 0 0 1-.123-1.1l.02-10.568c-.006-.793-.06-1.376-.172-1.789-.233-.861-.957-1.343-2.16-1.412l-.012-.686h8.083l-.012 2.408c1.657-1.859 3.673-2.79 6.04-2.79a5.6 5.6 0 0 1 2.862.792c.995.586 1.7 1.377 2.084 2.406.586-.788 1.376-1.478 2.367-2.061 1.29-.755 2.616-1.137 3.976-1.137 1.114 0 2.137.312 3.065.897a4.528 4.528 0 0 1 2.028 2.717c.123.45.18.929.18 1.445l-.001 9.982zm4.606-18.394c-.253-.946-.078-1.792.493-2.534.573-.744 1.344-1.113 2.245-1.113 1.335 0 2.446.911 2.767 2.126.252.944.077 1.789-.496 2.53-.571.744-1.34 1.115-2.274 1.115-1.302 0-2.404-.876-2.735-2.124zM141.14 84c-2.646-.035-4.241-1.014-4.77-3.005a3.95 3.95 0 0 1-.12-1.08l-.014-10.368c.03-.777-.024-1.35-.132-1.754-.222-.845-.918-1.318-2.104-1.385l.022-.674h7.745l.013 14.382c-.009.845.028 1.487.143 1.923.209.78.89 1.219 2.077 1.284l-.02.677h-2.84zm23.665-2.379c.22.794.94 1.242 2.195 1.31l-.02.689h-3c-2.622-.036-4.246-.928-4.916-2.723-.627.794-1.435 1.45-2.406 2.034A7.735 7.735 0 0 1 152.72 84a5.718 5.718 0 0 1-3.069-.898c-1.065-.652-1.779-1.585-2.099-2.756a5.037 5.037 0 0 1-.177-1.408l-.011-10.05c.028-.793-.026-1.376-.141-1.789-.24-.861-.973-1.344-2.223-1.412l.023-.687h8.186l-.003 13.972c-.01.346.04.656.122.965.277.997.905 1.483 1.927 1.483 1.235 0 2.43-.793 3.555-2.344l-.015-10.188c.028-.793-.025-1.376-.137-1.789-.241-.861-.973-1.344-2.224-1.412l.017-.687h8.192l.01 14.661c-.01.86.028 1.516.152 1.96m32.867-1.58c-.014.861.062 1.516.18 1.96.216.794.933 1.243 2.135 1.31L200 84h-2.962c-2.762-.035-4.425-1.034-4.977-3.063a3.806 3.806 0 0 1-.156-1.1l.012-9.812a3.358 3.358 0 0 0-.122-.961c-.273-1.002-.898-1.515-1.91-1.515-1.217 0-2.397.79-3.489 2.406-.027.036-.015.07-.011.104l-.001 9.982c-.013.861.063 1.516.184 1.96.214.794.929 1.243 2.132 1.31l.012.689h-2.96c-2.763-.035-4.426-1.034-4.981-3.063a4.03 4.03 0 0 1-.156-1.1l-.02-9.812c.003-.378-.013-.688-.088-.961-.273-1.002-.899-1.515-1.908-1.515-1.22 0-2.397.79-3.49 2.406l-.013 10.086c-.01.861.028 1.516.147 1.96.215.794.934 1.243 2.167 1.31l-.02.689h-2.96c-2.761-.035-4.425-1.034-4.981-3.063a3.935 3.935 0 0 1-.123-1.1l.018-10.568c-.006-.793-.06-1.376-.171-1.789-.233-.861-.954-1.343-2.16-1.412l-.013-.686h8.083l-.01 2.408c1.659-1.859 3.67-2.79 6.041-2.79a5.58 5.58 0 0 1 2.858.792c1 .586 1.7 1.377 2.085 2.406.584-.788 1.378-1.478 2.37-2.061C189.715 65.382 191.04 65 192.4 65c1.115 0 2.136.312 3.063.897a4.511 4.511 0 0 1 2.027 2.717c.122.45.184.929.184 1.445l-.003 9.982z" fill="#EAB53C"/></g></svg>