<svg width="30" height="44" xmlns="http://www.w3.org/2000/svg" xmlns:xlink="http://www.w3.org/1999/xlink"><defs><path id="a" d="M0 44h29.565V.303H0z"/></defs><g fill="none" fill-rule="evenodd"><mask id="b" fill="#fff"><use xlink:href="#a"/></mask><path d="M15.5 42.667c-6.341 0-12.425-1.348-14.167-1.768V9.097C3.055 8.544 8.052 7.183 15.2 7.331c7.02.144 11.447 1.289 13.032 1.775v31.82c-1.493.435-6.493 1.74-12.732 1.74zM29.268 2.585C29.114 2.483 25.387.074 14.767.32 4.203.56.505 2.47.353 2.551L0 2.74v39.192l.495.132C.568 42.083 7.845 44 15.5 44c7.676 0 13.37-1.869 13.61-1.949l.455-.151V2.783l-.297-.198z" fill="#B59647" mask="url(#b)"/><path d="M14.868 17.932c-5.579 0-10.118 3.588-10.118 7.998s4.539 7.998 10.118 7.998c5.579 0 10.118-3.588 10.118-7.998s-4.539-7.998-10.118-7.998m0 17.329c-6.314 0-11.452-4.186-11.452-9.331 0-5.146 5.138-9.332 11.452-9.332S26.32 20.784 26.32 25.93c0 5.145-5.138 9.33-11.452 9.33" fill="#B59647"/></g></svg>