<svg width="30" height="44" xmlns="http://www.w3.org/2000/svg" xmlns:xlink="http://www.w3.org/1999/xlink"><defs><path id="a" d="M0 44h29.565V.303H0z"/><path d="M2.016.289c-.143.203-.286.406-.422.614a.638.638 0 0 1-.254.225c-.223.112-.441.229-.66.348-.124.068-.135.114-.052.225.139.182.277.367.424.542a.81.81 0 0 1 .187.39c.038.22.079.44.119.658.033.187.062.209.24.15.23-.077.456-.167.688-.237a.791.791 0 0 1 .299-.03c.272.026.545.067.816.102.11.01.14-.008.142-.122a2.978 2.978 0 0 0-.018-.4c-.033-.302-.032-.595.134-.87.091-.151.163-.316.241-.477.086-.176.07-.211-.122-.27C3.55 1.07 3.326 1 3.097.94a.669.669 0 0 1-.324-.192C2.613.583 2.45.422 2.285.263c-.06-.058-.1-.088-.137-.088-.042 0-.079.037-.132.114z" id="c"/><path d="M.769.563a11.31 11.31 0 0 0-.208.342.335.335 0 0 1-.126.124c-.11.062-.22.128-.327.194-.061.038-.067.064-.025.125.069.102.136.205.21.303a.46.46 0 0 1 .091.216l.06.367c.016.104.031.115.118.082.114-.042.226-.092.34-.132.048-.015.1-.021.148-.015.135.014.27.037.404.056.054.007.07-.005.07-.068a1.721 1.721 0 0 0-.009-.223c-.016-.167-.016-.33.066-.483.046-.084.082-.177.12-.266.042-.098.034-.117-.06-.15-.112-.038-.224-.077-.338-.11a.323.323 0 0 1-.16-.107C1.065.727.983.636.903.548.873.516.853.5.833.5.814.5.796.52.77.563z" id="e"/><path d="M1.29.408c-.095.168-.19.337-.28.508a.463.463 0 0 1-.169.186c-.148.093-.293.19-.438.289-.082.056-.089.095-.033.186.092.152.183.304.28.449a.744.744 0 0 1 .124.324c.025.183.053.364.08.546.021.155.04.172.158.123.153-.064.303-.138.457-.196a.403.403 0 0 1 .197-.025c.181.022.362.056.542.085.072.009.092-.007.094-.102a3.122 3.122 0 0 0-.012-.331c-.023-.25-.021-.494.088-.72.06-.127.108-.263.16-.396.056-.146.047-.175-.08-.224-.15-.056-.301-.115-.452-.163a.425.425 0 0 1-.214-.159 18.5 18.5 0 0 0-.325-.403c-.039-.047-.066-.071-.09-.071-.028 0-.052.03-.088.094z" id="g"/><path d="M.628.346c-.193.188-.32.46-.32.875 0 .24.079.469.178.632.099.163.222.305.37.422.15.12.308.226.482.319.172.092.332.19.48.288.149.1.272.21.37.33a.7.7 0 0 1 .15.453.86.86 0 0 1-.054.33.475.475 0 0 1-.154.204.633.633 0 0 1-.237.11 1.335 1.335 0 0 1-.308.033.86.86 0 0 1-.407-.105C.744 4.006.356 3.403.252 3.022H.233L.232 4.407h.206c.073 0 .151.012.235.035.084.024.173.053.269.08.204.056.314.113.761.113.184 0 .35-.031.501-.09.15-.06.278-.144.384-.252.105-.109.186-.239.244-.394.059-.154.087-.327.087-.516 0-.27-.049-.495-.145-.676a1.695 1.695 0 0 0-.365-.468 2.6 2.6 0 0 0-.472-.333 10.298 10.298 0 0 1-.473-.275A1.644 1.644 0 0 1 1.1 1.33.589.589 0 0 1 .955.926c0-.208.053-.362.16-.467a.543.543 0 0 1 .39-.156c.124 0 .245.033.364.094.329.167.755.665.833 1.085h.012V.269H2.53a.797.797 0 0 1-.21-.031 6.102 6.102 0 0 1-.24-.073 2.994 2.994 0 0 0-.27-.07 1.373 1.373 0 0 0-.298-.03c-.394 0-.688.092-.884.28z" id="i"/><path d="M.87.584a1.307 1.307 0 0 0-.324.876c0 .344.117.64.353.884.238.245.553.37.948.37.235 0 .457-.054.665-.16a.912.912 0 0 0 .491-.68l-.011-.003c-.238.412-1.203.43-1.466-.157a1.614 1.614 0 0 1-.132-.657c0-.275.055-.48.166-.613A.332.332 0 0 1 1.823.31c.066 0 .124.022.173.065.05.043.081.12.094.23.02.176.07.297.153.365a.467.467 0 0 0 .311.102c.12 0 .217-.03.29-.09a.285.285 0 0 0 .112-.237c0-.157-.092-.3-.272-.427-.184-.126-.428-.19-.735-.19-.459 0-.819.152-1.08.456z" id="k"/><path d="M.619.201C.762.257.843.43.843.603v1.49c.014.169.112.543.722.543h.088V.202H.62z" id="m"/><path d="M.133.201C.21.288.267.454.267.63v1.463c.01.17.079.544.507.544h.064V.202H.133z" id="o"/><path d="M3.692.212c-.15.07-.304.184-.464.342a.705.705 0 0 0-.286-.336.864.864 0 0 0-.456-.111c-.157 0-.302.03-.433.088a1.614 1.614 0 0 0-.432.308v-.32H.581s.194.073.194.292v1.613c.014.17.118.548.754.548h.092V.783c.107-.13.208-.222.302-.276a.447.447 0 0 1 .222-.055c.055 0 .107.016.153.048.047.03.08.075.101.13.021.056.03.197.03.42v.958c0 .001-.002.028 0 .07.01.16.103.558.756.558h.091V.783c.09-.11.18-.194.267-.249a.509.509 0 0 1 .264-.082c.059 0 .109.014.151.043a.249.249 0 0 1 .096.134c.02.059.03.199.03.419v1.04c.015.17.117.548.755.548h.09V1.098c0-.263-.021-.456-.067-.576A.608.608 0 0 0 4.62.225c-.115-.08-.27-.118-.466-.118a1.06 1.06 0 0 0-.462.105zm1.145 2.424h.002-.002z" id="q"/><path d="M.013.333C.067.362.17.546.17.94v2.984c.006.193.07.676.542.676h.066V.333H.013z" id="s"/><path d="M1.308.219c.177-.063.362-.094.555-.094.234 0 .417.052.553.15.247.174.288.306.288.768v1.105c0 .294.051.527.051.527h-.117s-.408.018-.51-.07a.47.47 0 0 1-.145-.308c-.3.272-.529.378-.806.378a.632.632 0 0 1-.42-.184c-.091-.094-.132-.247-.139-.386-.008-.195.068-.354.245-.502.211-.177.557-.264 1.12-.493V.861c0-.187-.01-.305-.03-.353A.294.294 0 0 0 1.839.38.345.345 0 0 0 1.65.326a.485.485 0 0 0-.28.076c-.047.033-.07.07-.07.112 0 .037.026.084.074.137.067.077.1.15.1.22 0 .087-.032.16-.097.222a.347.347 0 0 1-.25.09.397.397 0 0 1-.277-.1.312.312 0 0 1-.11-.235C.74.72.789.6.89.484a.932.932 0 0 1 .418-.265zm.095 1.983c.048.042.14.061.243.061.104 0 .222-.056.337-.16v-.817c-.21.125-.39.232-.524.386-.134.155-.145.244-.138.34.007.097.034.147.082.19z" id="u"/><path d="M.125.732c0 .152.123.274.276.274A.275.275 0 0 0 .677.732.275.275 0 0 0 .401.46a.275.275 0 0 0-.276.273z" id="w"/><path d="M.348.732c0 .152.123.274.276.274A.276.276 0 0 0 .9.732.275.275 0 0 0 .624.46a.275.275 0 0 0-.276.273z" id="y"/><path d="M.001.707c0-.13.101-.212.215-.212A.21.21 0 0 1 .43.707.21.21 0 0 1 .216.92.21.21 0 0 1 0 .707zm.057 0c0 .097.07.167.158.167.086 0 .157-.07.157-.167A.16.16 0 0 0 .216.54C.128.54.058.61.058.707zm.074-.12h.09c.058 0 .09.02.09.07 0 .044-.026.061-.061.064l.062.104H.265L.208.723H.179v.102H.132V.587zM.18.624v.063h.04C.247.687.266.683.266.653.266.628.239.624.218.624H.179z" id="A"/><path d="M.623.331C.43.521.307.795.307 1.213c0 .24.077.47.175.635.098.164.22.307.366.427s.305.226.475.32c.17.092.328.19.475.29.147.1.268.21.365.332a.712.712 0 0 1 .147.456.898.898 0 0 1-.053.332.48.48 0 0 1-.152.205.59.59 0 0 1-.234.11 1.26 1.26 0 0 1-.304.034.845.845 0 0 1-.402-.105c-.429-.233-.812-.84-.914-1.224H.23V4.42h.204c.071 0 .148.012.232.034.083.024.17.055.265.082.201.056.31.113.751.113.182 0 .347-.031.496-.09.147-.06.273-.145.378-.253.104-.11.185-.241.242-.398a1.5 1.5 0 0 0 .086-.52c0-.27-.05-.498-.144-.68a1.718 1.718 0 0 0-.36-.47c-.145-.13-.3-.243-.467-.337a9.088 9.088 0 0 1-.466-.276 1.6 1.6 0 0 1-.36-.303.599.599 0 0 1-.144-.406c0-.21.053-.366.16-.47a.528.528 0 0 1 .385-.157.79.79 0 0 1 .359.093c.324.168.746.67.823 1.093h.01V.254H2.5a.776.776 0 0 1-.207-.031A6.031 6.031 0 0 1 2.056.15 2.656 2.656 0 0 0 1.79.079a1.427 1.427 0 0 0-.294-.03c-.389 0-.68.094-.872.282z" id="C"/><path d="M.853.589c-.22.256-.329.552-.329.889 0 .35.12.649.358.897.241.248.56.375.96.375.239 0 .463-.055.674-.162a.925.925 0 0 0 .496-.69L3 1.895c-.24.418-1.217.436-1.483-.16a1.634 1.634 0 0 1-.134-.666c0-.28.055-.488.168-.623A.336.336 0 0 1 1.818.31c.068 0 .126.022.175.067.051.044.082.123.096.234.019.177.07.3.154.37.084.07.188.103.315.103a.45.45 0 0 0 .293-.09.293.293 0 0 0 .114-.242c0-.16-.094-.304-.275-.434C2.504.19 2.257.125 1.946.125c-.464 0-.83.155-1.093.464z" id="E"/><path d="M.61.198c.135.054.213.225.213.397v1.472c.013.167.107.537.685.537h.084V.198H.61z" id="G"/><path d="M.101.198c.082.086.14.25.14.424v1.445c.01.167.083.537.531.537h.066V.198H.101z" id="I"/><path d="M3.718.231a1.738 1.738 0 0 0-.468.346.715.715 0 0 0-.288-.34.886.886 0 0 0-.46-.112c-.158 0-.304.03-.437.089a1.62 1.62 0 0 0-.436.312V.202H.58s.197.074.197.295v1.627c.013.171.119.553.76.553h.093V.807c.107-.13.21-.224.305-.278a.445.445 0 0 1 .224-.056.27.27 0 0 1 .257.181c.02.057.03.198.03.422v.967c0 .001-.003.028 0 .07.01.163.104.564.762.564h.09V.807a1.15 1.15 0 0 1 .272-.25.505.505 0 0 1 .266-.084c.06 0 .108.014.152.044a.252.252 0 0 1 .096.134c.02.06.032.202.032.423v1.05c.013.171.118.553.76.553h-.002.093V1.125c0-.265-.021-.46-.067-.58a.63.63 0 0 0-.244-.302.836.836 0 0 0-.47-.118c-.163 0-.32.036-.467.106z" id="K"/><path d="M.05.31C.1.336.2.52.2.913v2.975c.006.193.069.674.524.674h.063V.309H.05z" id="M"/><path d="M1.308.219a1.66 1.66 0 0 1 .556-.094c.233 0 .416.052.552.15.247.174.289.306.289.768v1.105c0 .294.05.527.05.527h-.117s-.408.018-.51-.07a.47.47 0 0 1-.145-.308c-.3.272-.529.378-.806.378a.632.632 0 0 1-.42-.184c-.091-.094-.132-.247-.139-.386-.008-.195.068-.354.245-.502.211-.177.557-.264 1.12-.493V.861c0-.187-.01-.305-.03-.353A.282.282 0 0 0 1.839.38.34.34 0 0 0 1.65.326a.485.485 0 0 0-.28.076c-.047.033-.07.07-.07.112 0 .037.026.084.074.137.066.077.1.15.1.22 0 .087-.032.16-.097.222a.347.347 0 0 1-.25.09.397.397 0 0 1-.277-.1.312.312 0 0 1-.11-.235C.74.72.789.6.89.484a.932.932 0 0 1 .418-.265zm.095 1.983c.048.042.14.061.244.061.104 0 .22-.056.336-.16v-.817c-.21.125-.39.232-.524.386-.134.155-.145.244-.138.34.007.097.034.147.082.19z" id="O"/><path d="M.125.732c0 .152.123.274.276.274A.275.275 0 0 0 .677.732.275.275 0 0 0 .401.46a.275.275 0 0 0-.276.273z" id="Q"/><path d="M.348.732c0 .152.123.274.276.274A.275.275 0 0 0 .9.732.275.275 0 0 0 .624.46a.275.275 0 0 0-.276.273z" id="S"/><path d="M.342.883c0 .167.07.31.204.425.124.105.281.202.469.291.19.088.387.174.587.255.2.083.391.185.57.304.172.116.318.256.431.415a.992.992 0 0 1 .168.59 1 1 0 0 1-.101.451.996.996 0 0 1-.099.157.942.942 0 0 0 .158-.227.993.993 0 0 0 .101-.45c0-.235-.057-.434-.167-.59-.114-.16-.26-.3-.433-.417a3.308 3.308 0 0 0-.568-.301 14.572 14.572 0 0 1-.587-.257 2.036 2.036 0 0 1-.47-.29.54.54 0 0 1-.204-.426C.401.67.437.548.506.45a.588.588 0 0 0-.164.433z" id="U"/><path d="M.68.287a.787.787 0 0 0-.154.146.665.665 0 0 1 .107-.091c.18-.128.465-.205.844-.205.098 0 .195.007.285.02.098.016.184.033.267.052.085.02.166.038.242.053.079.016.154.023.224.023h.121V.76l.047.065v-.58h-.12c-.07 0-.146-.009-.224-.024a8.67 8.67 0 0 1-.243-.053 3.692 3.692 0 0 0-.265-.051 1.99 1.99 0 0 0-.287-.02C1.146.095.862.16.68.285z" id="W"/><path d="M.38.533c.228.322.6.66.986.814.17.067.347.1.526.1.142 0 .273-.009.39-.03a.973.973 0 0 0 .316-.11.526.526 0 0 0 .179-.145.598.598 0 0 1-.12.092.996.996 0 0 1-.317.109 2.196 2.196 0 0 1-.39.032 1.41 1.41 0 0 1-.526-.102C1.004 1.127.599.741.382.395L.38.533z" id="Y"/><path d="M.187.504C.4.301.683.201 1.043.201c.255 0 .46.049.609.143.145.094.217.199.217.31a.184.184 0 0 1-.037.119.181.181 0 0 0 .074-.155c0-.111-.073-.215-.218-.31C1.54.215 1.335.166 1.08.166c-.382 0-.674.11-.893.34z" id="aa"/><path d="M.598.586c-.111.178-.166.436-.166.792 0 .298.042.577.127.828.15.446.518.605.81.605.184 0 .354-.06.483-.162a1.127 1.127 0 0 1-.116.242 1.06 1.06 0 0 0 .17-.318.778.778 0 0 1-.482.16.844.844 0 0 1-.81-.603 2.613 2.613 0 0 1-.128-.828c0-.349.053-.604.16-.78a.774.774 0 0 0-.048.064z" id="ac"/><path d="M.063.198c.011.02.02.027.03.049h.485v2.282a.35.35 0 0 0 .026.002h.012V.198H.063z" id="ae"/><path d="M.286.198c.01.02.017.027.025.049h.49v2.282l.024.002h.013V.198H.286z" id="ag"/><path d="M.047.286v2.108l.027.002h.014V.21l-.04.076z" id="ai"/><path d="M.179.286v2.108l.028.002H.22V.21L.18.286z" id="ak"/><path d="M.173.482C.182.506.19.513.198.541h.49v4.02h.037V.483H.173z" id="am"/><path d="M.49.46c0 .047.025.1.079.16.05.057.074.11.074.16a.268.268 0 0 1-.038.114.208.208 0 0 0 .068-.158C.673.686.65.634.6.576.546.516.519.463.519.414A.184.184 0 0 1 .536.347C.496.384.489.413.489.46z" id="ao"/><path d="M1.005.589C.677.689.46.754.313.855A.687.687 0 0 0 .161.99.817.817 0 0 1 .262.91C.41.809.642.732.968.633c.132-.04.504-.164.504-.164V.443c-.176.057-.33.104-.467.146z" id="aq"/><path d="M.905.286C.697.344.535.426.422.532.402.552.382.57.366.59L.38.577C.493.472.656.389.863.33c.21-.058.433-.088.662-.088.266 0 .481.046.638.136.275.156.324.263.324.713v1.096c0 .17.02.319.038.416h.052a2.324 2.324 0 0 1-.047-.46V1.046c0-.45-.05-.556-.325-.712-.157-.09-.372-.136-.637-.136-.23 0-.452.03-.663.088z" id="as"/><path d="M.654.653a.23.23 0 0 0 .118.189c.082.05.222.062.325.062A.83.83 0 0 0 1.53.762l.023-.016V.73a.798.798 0 0 1-.4.123C1.048.852.907.842.826.79A.228.228 0 0 1 .709.601c-.008-.08.01-.15.1-.244C.67.477.646.559.655.653z" id="au"/><path d="M.409.117a.187.187 0 0 1 .144-.07c.11 0 .199.097.199.219a.23.23 0 0 1-.027.107.226.226 0 0 0 .052-.147C.777.106.688.008.58.008a.196.196 0 0 0-.17.11z" id="aw"/><path d="M.247.117a.188.188 0 0 1 .145-.07c.11 0 .198.097.198.219C.59.304.58.34.563.373A.226.226 0 0 0 .616.226c0-.12-.09-.218-.198-.218a.196.196 0 0 0-.17.11z" id="ay"/><path d="M.073.165c.01.014.02.02.028.039h.485V.53l.04-.04V.165H.073z" id="aA"/><path d="M.612.236A1.12 1.12 0 0 0 .39.37C.443.34.513.306.592.278A.92.92 0 0 1 .922.22c.15 0 .277.03.374.086a.57.57 0 0 1 .234.27l.034.075.054-.047L1.58.521a.575.575 0 0 0-.234-.27.736.736 0 0 0-.374-.086.9.9 0 0 0-.36.07z" id="aC"/><path d="M.839.296a1.274 1.274 0 0 0-.272.192C.617.451.707.39.82.341a.848.848 0 0 1 .359-.08.64.64 0 0 1 .388.103c.095.07.161.16.198.269.04.111.06.299.06.558v1.412h.051V1.129c0-.26-.02-.447-.058-.558a.543.543 0 0 0-.201-.268C1.523.232 1.397.198 1.23.198a.836.836 0 0 0-.392.098z" id="aE"/></defs><g fill="none" fill-rule="evenodd"><mask id="b" fill="#fff"><use xlink:href="#a"/></mask><path d="M15.5 42.667c-6.341 0-12.425-1.348-14.167-1.768V9.097C3.055 8.544 8.052 7.183 15.2 7.331c7.02.144 11.447 1.289 13.032 1.775v31.82c-1.493.435-6.493 1.74-12.732 1.74zM29.268 2.585C29.114 2.483 25.387.074 14.767.32 4.203.56.505 2.47.353 2.551L0 2.74v39.192l.495.132C.568 42.083 7.845 44 15.5 44c7.676 0 13.37-1.869 13.61-1.949l.455-.151V2.783l-.297-.198z" fill="#B59647" mask="url(#b)"/><path d="M14.868 17.932c-5.579 0-10.118 3.588-10.118 7.998s4.539 7.998 10.118 7.998c5.579 0 10.118-3.588 10.118-7.998s-4.539-7.998-10.118-7.998m0 17.329c-6.314 0-11.452-4.186-11.452-9.331 0-5.146 5.138-9.332 11.452-9.332S26.32 20.784 26.32 25.93c0 5.145-5.138 9.33-11.452 9.33" fill="#B59647"/><path d="M25.165 14.436a.755.755 0 0 0-.288.028c-.224.069-.443.156-.666.232-.171.058-.2.036-.232-.146-.038-.214-.078-.428-.115-.642a.787.787 0 0 0-.18-.382c-.143-.172-.276-.352-.41-.53-.08-.108-.07-.154.05-.22.211-.116.423-.232.638-.34a.613.613 0 0 0 .245-.22c.132-.203.27-.402.408-.6.098-.14.138-.146.26-.026.16.156.318.314.472.474a.644.644 0 0 0 .313.188c.221.058.44.126.658.194.186.056.201.09.119.262-.076.158-.145.319-.234.467-.16.269-.162.554-.13.85.016.13.022.26.019.39-.003.112-.032.13-.137.12-.263-.034-.526-.074-.79-.1" fill="#C19300"/><g transform="translate(22.759 10.233)"><mask id="d" fill="#fff"><use xlink:href="#c"/></mask><path fill="#B59647" mask="url(#d)" d="M.352 3.69h3.82V-.045H.352z"/></g><path d="M6.823 11.164a.245.245 0 0 0-.091.009c-.071.022-.141.05-.212.074-.054.018-.063.012-.073-.046l-.037-.205a.247.247 0 0 0-.057-.121c-.045-.055-.087-.112-.13-.169-.025-.034-.022-.049.016-.07.067-.036.134-.073.202-.107a.194.194 0 0 0 .078-.07c.042-.065.086-.128.13-.191.03-.045.043-.047.082-.008l.15.15a.2.2 0 0 0 .099.06c.07.018.14.04.208.061.06.018.065.03.038.084-.023.05-.046.101-.074.148a.415.415 0 0 0-.04.27.933.933 0 0 1 .005.125c0 .035-.01.041-.043.038-.084-.011-.168-.023-.25-.032" fill="#C19300"/><g transform="translate(6.207 10.233)"><mask id="f" fill="#fff"><use xlink:href="#e"/></mask><path fill="#B59647" mask="url(#f)" d="M-.054 2.455h1.89V.377h-1.89z"/></g><path d="M3.301 17.212a.467.467 0 0 0-.182.018c-.142.043-.282.1-.422.147-.11.037-.127.023-.148-.092-.024-.137-.05-.273-.073-.41a.506.506 0 0 0-.114-.242c-.09-.109-.174-.223-.26-.337-.051-.068-.045-.097.032-.14.133-.073.268-.147.404-.216a.39.39 0 0 0 .155-.139c.085-.129.172-.255.26-.381.062-.09.087-.093.165-.018.1.1.201.2.3.303a.411.411 0 0 0 .197.12c.14.035.279.08.418.122.117.035.127.057.075.167-.048.1-.092.202-.149.296-.1.17-.102.353-.08.54.008.083.012.166.01.25-.002.07-.02.081-.087.074-.167-.02-.333-.046-.5-.062" fill="#C19300"/><g transform="translate(2.069 15.349)"><mask id="h" fill="#fff"><use xlink:href="#g"/></mask><path fill="#B59647" mask="url(#h)" d="M.187 3.225h2.532V.132H.187z"/></g><path d="M8.94 27.628c.213 0 .405-.027.58-.08a1.35 1.35 0 0 0 .442-.226.996.996 0 0 0 .282-.353c.068-.138.1-.292.1-.463 0-.24-.056-.443-.166-.604a1.66 1.66 0 0 0-.422-.419 3.087 3.087 0 0 0-.546-.299 13.075 13.075 0 0 1-.546-.246 1.873 1.873 0 0 1-.421-.27.464.464 0 0 1-.167-.362c0-.185.062-.325.186-.418a.736.736 0 0 1 .451-.14c.142 0 .281.03.42.084.38.15.871.596.962.972h.013v-1.087h-.213c-.074 0-.155-.009-.241-.028a8.555 8.555 0 0 1-.278-.064 4.284 4.284 0 0 0-.312-.063 2.1 2.1 0 0 0-.344-.027c-.456 0-.795.083-1.02.251-.224.17-.37.413-.37.785 0 .214.09.42.205.565.114.146.256.273.428.379.172.108.356.202.555.285.199.083.384.17.556.259.171.088.313.188.427.296a.54.54 0 0 1 .171.405c0 .119-.02.218-.06.294a.46.46 0 0 1-.18.184.817.817 0 0 1-.272.098c-.108.02-.225.03-.355.03-.16 0-.316-.03-.471-.094-.502-.206-.95-.747-1.07-1.089h-.021l-.002 1.241h.238c.084 0 .175.01.272.031.097.022.199.049.31.073.236.05.363.1.88.1" fill="#C19300"/><g transform="translate(6.207 22.512)"><mask id="j" fill="#fff"><use xlink:href="#i"/></mask><path fill="#C19300" mask="url(#j)" d="M-.137 5.069h3.425V-.368H-.137z"/></g><path d="M6.52 27.821h.143c.08 0 .168.014.262.039l.132.04c.047.015.097.03.148.044l.09.027c.16.048.299.09.686.09.182 0 .35-.032.499-.09a1.07 1.07 0 0 0 .375-.249c.103-.106.18-.232.237-.383.055-.15.083-.321.083-.508 0-.265-.046-.488-.139-.664a1.725 1.725 0 0 0-.363-.469 2.67 2.67 0 0 0-.48-.34 10.76 10.76 0 0 1-.494-.29 1.788 1.788 0 0 1-.397-.332.708.708 0 0 1-.173-.485c0-.244.066-.43.195-.556a.63.63 0 0 1 .451-.183c.135 0 .268.035.407.105.27.138.595.473.78.833v-.804h-.12a.894.894 0 0 1-.234-.034 7.602 7.602 0 0 1-.253-.077 3.306 3.306 0 0 0-.276-.073 1.405 1.405 0 0 0-.297-.03c-.392 0-.687.093-.875.275-.207.203-.307.483-.307.854 0 .208.063.432.171.614.099.164.222.306.368.423.152.123.316.233.491.327.167.09.332.19.506.306.158.106.294.228.402.363a.827.827 0 0 1 .175.534c0 .152-.021.281-.063.383a.583.583 0 0 1-.186.248.696.696 0 0 1-.271.127c-.1.025-.21.037-.335.037a.952.952 0 0 1-.453-.118c-.354-.19-.695-.621-.884-1.015v1.031zm1.461.409c-.405 0-.551-.043-.72-.094-.029-.01-.058-.017-.09-.026a5.001 5.001 0 0 1-.15-.045c-.045-.014-.087-.028-.13-.04a.883.883 0 0 0-.228-.033H6.45a.065.065 0 0 1-.05-.025.087.087 0 0 1-.022-.06v-1.455c0-.048.033-.086.073-.086h.02c.031 0 .059.024.068.06.107.402.515 1.004.926 1.224a.83.83 0 0 0 .394.102c.115 0 .214-.01.306-.033a.567.567 0 0 0 .222-.102.409.409 0 0 0 .136-.182.813.813 0 0 0 .047-.307.633.633 0 0 0-.134-.416 1.695 1.695 0 0 0-.37-.333 6.437 6.437 0 0 0-.494-.3 3.25 3.25 0 0 1-.512-.34 1.761 1.761 0 0 1-.404-.465 1.428 1.428 0 0 1-.198-.713c0-.426.117-.748.359-.985.215-.209.54-.313.966-.313.114 0 .222.01.323.033.107.023.201.047.288.075.087.028.17.054.248.075a.78.78 0 0 0 .201.03h.192c.018 0 .037.009.05.025a.09.09 0 0 1 .021.06v1.274c0 .047-.033.086-.071.086h-.012c-.034 0-.063-.029-.07-.068-.075-.409-.506-.916-.827-1.079a.763.763 0 0 0-.35-.092.494.494 0 0 0-.36.145c-.097.093-.143.232-.143.424 0 .145.043.263.13.363.095.11.218.21.364.303.156.097.32.193.489.286.175.097.345.219.505.36.159.144.292.317.397.514.108.203.162.457.162.754 0 .21-.033.405-.096.577a1.275 1.275 0 0 1-.273.443c-.12.122-.262.216-.424.28a1.467 1.467 0 0 1-.545.099zm13.65-1.078l.01.003c-.052.459-.237.719-.41.85a.9.9 0 0 1-.554.2c-.329 0-.592-.155-.79-.461-.197-.306-.294-.675-.294-1.105 0-.415.09-.78.27-1.095.217-.38.517-.57.9-.57.255 0 .46.08.612.239.149.16.226.338.226.533a.452.452 0 0 1-.093.298.3.3 0 0 1-.241.111.318.318 0 0 1-.26-.128c-.07-.084-.112-.236-.127-.455-.011-.136-.038-.233-.078-.288-.042-.054-.09-.082-.145-.082-.085 0-.157.055-.219.167-.092.166-.139.422-.139.766 0 .287.035.561.11.822.22.732 1.024.71 1.222.195" fill="#C19300"/><g transform="translate(19.655 24.558)"><mask id="l" fill="#fff"><use xlink:href="#k"/></mask><path fill="#C19300" mask="url(#l)" d="M.085 3.078h3.378V-.236H.085z"/></g><path d="M21.758 24.754c-.375 0-.66.14-.874.426a1.38 1.38 0 0 0-.267.838c0 .329.097.612.29.844a.94.94 0 0 0 .763.34c.187 0 .368-.05.536-.147a.787.787 0 0 0 .323-.38.815.815 0 0 1-.475.119c-.265-.01-.595-.147-.732-.499a1.889 1.889 0 0 1-.119-.68c0-.292.051-.505.156-.65.077-.11.175-.165.29-.165.08 0 .15.03.206.09.054.055.086.142.1.268.015.16.052.268.11.324a.297.297 0 0 0 .217.081c.083 0 .15-.023.199-.068a.243.243 0 0 0 .076-.19c0-.136-.072-.262-.212-.377-.143-.115-.34-.174-.587-.174m-.088 2.585c-.363 0-.66-.133-.88-.395a1.4 1.4 0 0 1-.322-.926 1.5 1.5 0 0 1 .293-.914c.24-.323.575-.486.997-.486.284 0 .515.07.687.208.173.142.26.303.26.478a.37.37 0 0 1-.119.286.427.427 0 0 1-.304.11.45.45 0 0 1-.324-.124c-.083-.078-.133-.212-.152-.405-.013-.124-.044-.173-.062-.19a.127.127 0 0 0-.095-.044c-.062 0-.116.033-.165.102-.088.121-.132.315-.132.576 0 .23.037.443.11.635a.645.645 0 0 0 .598.409c.244.008.45-.092.534-.258a.077.077 0 0 1 .087-.038l.01.003c.036.009.06.04.055.075-.064.436-.315.643-.46.728-.192.113-.4.17-.616.17m-10.748-.144v-2.436H9.914c.139.056.219.228.219.402v1.49c.013.169.109.543.703.543v.001h.086" fill="#C19300"/><g transform="translate(9.31 24.558)"><mask id="n" fill="#fff"><use xlink:href="#m"/></mask><path fill="#C19300" mask="url(#n)" d="M.209 3.002h1.854V-.163H.209z"/></g><path d="M10.81 27.127h.006v-2.3h-.727c.063.088.1.206.1.334v1.49c.012.175.11.476.615.476h.007zm.078.136h-.091c-.658-.004-.743-.465-.755-.608v-1.494c0-.16-.07-.299-.17-.34a.067.067 0 0 1-.042-.075.071.071 0 0 1 .07-.055h.988c.041 0 .073.03.073.069v2.435c0 .037-.032.068-.073.068zm5.414-.068v-2.436h-.898c.1.087.17.253.17.428v1.463c.013.17.101.544.647.544v.001h.08" fill="#C19300"/><g transform="translate(15.517 24.558)"><mask id="p" fill="#fff"><use xlink:href="#o"/></mask><path fill="#C19300" mask="url(#p)" d="M-.174 3.002h1.32V-.163h-1.32z"/></g><path d="M16.212 27.127v-2.3h-.709a.69.69 0 0 1 .102.36v1.464c.013.175.108.476.6.476h.007zm.077.136h-.091c-.65-.004-.736-.466-.746-.608v-1.467a.51.51 0 0 0-.155-.378.063.063 0 0 1-.019-.075.077.077 0 0 1 .071-.044h.94c.043 0 .077.03.077.069v2.435c0 .037-.034.068-.077.068zm-1.344-.069v-1.538c0-.263-.019-.456-.062-.575a.604.604 0 0 0-.225-.299.731.731 0 0 0-.436-.117.935.935 0 0 0-.432.106c-.14.07-.283.184-.433.34a.693.693 0 0 0-.265-.335.768.768 0 0 0-.427-.111.926.926 0 0 0-.404.088 1.522 1.522 0 0 0-.403.309v-.321h-.97s.18.073.18.292v1.613c.013.17.11.548.704.548h.086V25.34c.1-.129.194-.221.282-.276a.402.402 0 0 1 .207-.054.259.259 0 0 1 .238.179c.018.055.027.196.027.419v.958c0 .002-.002.028 0 .07.01.161.097.558.706.558h.085V25.34a1.12 1.12 0 0 1 .25-.248.445.445 0 0 1 .245-.083.23.23 0 0 1 .142.045.25.25 0 0 1 .088.133c.02.059.029.2.029.42v1.04c.013.17.11.547.704.547h-.002.086" fill="#C19300"/><g transform="translate(10.345 24.558)"><mask id="r" fill="#fff"><use xlink:href="#q"/></mask><path fill="#C19300" mask="url(#r)" d="M.143 3.001h5.224V-.258H.143z"/></g><path d="M14.662 27.031h.002v-1.75c0-.307-.02-.53-.057-.662a.656.656 0 0 0-.19-.316.53.53 0 0 0-.372-.12.685.685 0 0 0-.375.113 1.592 1.592 0 0 0-.393.39.07.07 0 0 1-.07.027.076.076 0 0 1-.056-.052.743.743 0 0 0-.227-.363.56.56 0 0 0-.364-.116.686.686 0 0 0-.352.094c-.11.066-.232.183-.363.35a.068.068 0 0 1-.08.023.08.08 0 0 1-.049-.076v-.3h-.672a.534.534 0 0 1 .065.267v1.92c.012.21.108.57.598.57l.007.001h.002v-2.126c0-.017.005-.032.014-.046.1-.164.195-.28.287-.35a.397.397 0 0 1 .24-.078c.065 0 .128.026.182.074.052.045.089.11.113.195.014.052.03.155.03.523v1.22c.01.218.104.587.6.587a.02.02 0 0 1 .007.001h.001v-2.126c0-.017.005-.032.013-.046.087-.14.17-.243.255-.314.162-.133.338-.155.46-.045a.39.39 0 0 1 .108.201c.02.08.031.25.031.52v1.239c.013.21.108.57.599.57a.02.02 0 0 1 .006.001m.074.162h-.089c-.642-.005-.725-.558-.736-.728v-1.244c0-.33-.016-.44-.026-.477a.226.226 0 0 0-.06-.118c-.07-.063-.174-.039-.28.049a1.115 1.115 0 0 0-.21.256v2.18c0 .046-.031.082-.072.082h-.088c-.65-.004-.73-.569-.738-.742-.002-.047-.001-.08-.001-.089v-1.139c0-.322-.012-.436-.023-.475a.241.241 0 0 0-.066-.116.132.132 0 0 0-.09-.04c-.06 0-.11.017-.159.052-.07.055-.15.15-.236.286v2.182c0 .045-.032.081-.073.081H11.7c-.643-.004-.727-.558-.737-.728V24.54c0-.204-.126-.272-.13-.275a.085.085 0 0 1-.042-.09c.008-.038.038-.064.072-.064h.926c.04 0 .073.036.073.08v.178c.098-.105.189-.183.278-.235a.81.81 0 0 1 .42-.114c.177 0 .329.049.45.147a.824.824 0 0 1 .232.316 1.53 1.53 0 0 1 .356-.328c.14-.09.29-.135.447-.135a.67.67 0 0 1 .463.157.807.807 0 0 1 .238.394c.043.148.064.38.064.71v1.83c0 .046-.033.082-.074.082m2.524-.081v-4.268h-.973c.067.029.198.213.198.607v2.907h.002l-.002.004v.074c.009.193.09.675.69.675h.084" fill="#C19300"/><g transform="translate(16.552 22.512)"><mask id="t" fill="#fff"><use xlink:href="#s"/></mask><path fill="#C19300" mask="url(#t)" d="M-.294 5.034h1.379V-.1H-.294z"/></g><path d="M17.281 27.03h.005v-4.104h-.823c.065.112.117.286.117.526v2.893a.056.056 0 0 1 0 .027v.064c.011.219.116.594.693.594h.008zm.086.163h-.101c-.754-.005-.84-.577-.85-.754v-2.987c0-.38-.142-.521-.17-.531a.083.083 0 0 1-.05-.091.081.081 0 0 1 .08-.067h1.091c.046 0 .083.037.083.08v4.269a.082.082 0 0 1-.083.08zm1.989-.715c-.138.123-.277.19-.401.19-.123 0-.232-.023-.29-.073-.058-.05-.09-.111-.097-.226-.009-.115.004-.221.164-.406.16-.183.373-.31.624-.458v.973zm.859.053v-1.317c0-.549-.05-.706-.343-.913-.163-.117-.38-.179-.659-.179-.23 0-.45.037-.661.111-.214.073-.38.179-.498.316a.652.652 0 0 0-.178.434c0 .107.045.2.132.28.088.08.199.12.33.12a.412.412 0 0 0 .298-.108.35.35 0 0 0 .115-.264c0-.084-.04-.171-.12-.262-.057-.064-.087-.12-.087-.164 0-.05.027-.094.082-.132a.572.572 0 0 1 .334-.092.41.41 0 0 1 .225.065.35.35 0 0 1 .135.152c.024.057.036.198.036.421v.296c-.67.272-1.082.376-1.334.587-.21.176-.301.365-.29.597.007.166.056.348.165.46.131.135.339.22.5.22.329 0 .603-.126.959-.45.02.162.078.283.171.365.122.106.609.084.609.084h.14s-.061-.277-.061-.627z" fill="#C19300"/><g transform="translate(17.586 24.558)"><mask id="v" fill="#fff"><use xlink:href="#u"/></mask><path fill="#C19300" mask="url(#v)" d="M.25 3.042h2.874V-.24H.25z"/></g><path d="M19.523 26.478zm-.072-.83a1.76 1.76 0 0 0-.42.368c-.127.168-.133.253-.126.347.005.097.027.138.061.17.032.033.11.052.206.052.082 0 .18-.05.279-.144v-.793zm-.28 1.1c-.094 0-.224-.016-.3-.093-.07-.069-.102-.153-.11-.282-.008-.142.016-.27.161-.462.147-.194.34-.325.563-.476a.068.068 0 0 1 .073 0 .085.085 0 0 1 .036.07v.973a.084.084 0 0 1-.023.06c-.134.137-.273.21-.4.21zm.352-.12a.06.06 0 0 1 .024.005c.025.01.043.036.046.066a.514.514 0 0 0 .128.315c.051.052.29.074.48.063h.04a4.087 4.087 0 0 1-.038-.546v-1.317c0-.535-.04-.663-.27-.848-.133-.108-.313-.163-.534-.163-.192 0-.38.036-.556.106a.911.911 0 0 0-.405.293.615.615 0 0 0-.14.38.31.31 0 0 0 .094.222.32.32 0 0 0 .24.098c.089 0 .16-.029.21-.086a.29.29 0 0 0 .08-.205.353.353 0 0 0-.087-.209c-.064-.08-.095-.152-.095-.217 0-.076.035-.143.101-.198a.526.526 0 0 1 .335-.106.416.416 0 0 1 .381.266c.017.045.037.139.037.452v.296a.082.082 0 0 1-.044.075c-.177.083-.333.149-.47.208-.32.136-.533.227-.678.366-.167.16-.238.324-.229.532.007.174.053.322.125.406a.559.559 0 0 0 .385.195c.273 0 .494-.12.791-.429a.07.07 0 0 1 .049-.02zm.584.614c-.144 0-.388-.015-.482-.107a.607.607 0 0 1-.148-.274c-.279.267-.516.379-.794.379a.686.686 0 0 1-.488-.245c-.096-.111-.156-.298-.165-.511a.82.82 0 0 1 .28-.663c.163-.157.396-.257.719-.395.125-.054.265-.114.422-.185V25c0-.279-.016-.364-.025-.39a.263.263 0 0 0-.093-.115.251.251 0 0 0-.157-.05.398.398 0 0 0-.251.074c-.041.034-.041.058-.041.067 0 .004.002.037.059.11a.52.52 0 0 1 .122.316.46.46 0 0 1-.122.322.404.404 0 0 1-.31.13.451.451 0 0 1-.338-.14.477.477 0 0 1-.14-.34.8.8 0 0 1 .174-.486 1.06 1.06 0 0 1 .467-.341c.191-.075.394-.115.603-.115.252 0 .46.065.618.194.285.23.329.427.329.98v1.316c0 .337.05.607.051.61.004.024 0 .05-.014.068a.07.07 0 0 1-.056.03h-.122c-.018.001-.053.003-.098.003zM10.5 23.558c0 .216.155.391.347.391.19 0 .344-.175.344-.391 0-.215-.154-.39-.344-.39-.192 0-.346.175-.346.39" fill="#C19300"/><g transform="translate(10.345 22.512)"><mask id="x" fill="#fff"><use xlink:href="#w"/></mask><path fill="#C19300" mask="url(#x)" d="M-.183 1.31H.984V.156H-.183z"/></g><path d="M10.827 23.2c-.146 0-.264.129-.264.288 0 .16.118.29.264.29.144 0 .262-.13.262-.29 0-.16-.118-.288-.262-.288m0 .728c-.221 0-.401-.197-.401-.44 0-.242.18-.44.4-.44.22 0 .4.198.4.44 0 .243-.18.44-.4.44m4.901-.44c0 .202.148.365.332.365.182 0 .331-.163.331-.365 0-.2-.149-.364-.331-.364-.184 0-.332.164-.332.364" fill="#B59647"/><g transform="translate(15.517 22.512)"><mask id="z" fill="#fff"><use xlink:href="#y"/></mask><path fill="#B59647" mask="url(#z)" d="M.04 1.31h1.167V.156H.04z"/></g><path d="M16.285 24.223c-.148 0-.27.129-.27.289 0 .16.122.289.27.289.148 0 .27-.13.27-.29 0-.159-.122-.288-.27-.288m0 .729c-.226 0-.411-.198-.411-.44 0-.243.185-.44.41-.44.227 0 .411.197.411.44 0 .242-.184.44-.41.44m6.455.18h.05c.034 0 .057-.005.057-.043 0-.034-.033-.04-.059-.04h-.048v.083zM22.683 25h.109c.072 0 .113.025.113.094 0 .058-.033.08-.076.085l.077.138h-.06l-.07-.135h-.036v.135h-.057V25zm.102.383c.107 0 .195-.094.195-.224 0-.128-.088-.222-.195-.222-.108 0-.193.094-.193.222 0 .13.085.224.193.224zm0-.506c.14 0 .265.11.265.282 0 .173-.124.284-.265.284-.139 0-.264-.11-.264-.284 0-.172.125-.282.264-.282z" fill="#B59647"/><g transform="translate(22.759 23.535)"><mask id="B" fill="#fff"><use xlink:href="#A"/></mask><path fill="#B59647" mask="url(#B)" d="M-.306 1.224H.738V.19H-.306z"/></g><path d="M8.94 26.605c.212 0 .406-.028.579-.08.173-.054.32-.13.442-.226a1.006 1.006 0 0 0 .384-.815c0-.242-.058-.444-.169-.605a1.65 1.65 0 0 0-.42-.42 3.112 3.112 0 0 0-.547-.299 13.297 13.297 0 0 1-.545-.246 1.835 1.835 0 0 1-.42-.27.463.463 0 0 1-.169-.36c0-.187.062-.326.186-.42a.73.73 0 0 1 .452-.138c.142 0 .28.029.42.083.378.15.871.595.961.972h.013v-1.087h-.213a1.13 1.13 0 0 1-.241-.028 8.234 8.234 0 0 1-.277-.063 3.996 3.996 0 0 0-.313-.064 2.096 2.096 0 0 0-.344-.027c-.455 0-.794.084-1.02.251-.224.169-.37.413-.37.785 0 .214.091.418.206.565.114.147.257.273.427.379.172.107.357.202.556.285.199.082.384.17.556.258.171.089.313.188.427.296a.54.54 0 0 1 .172.406.62.62 0 0 1-.062.294.455.455 0 0 1-.178.183.799.799 0 0 1-.274.099c-.107.02-.225.03-.355.03-.159 0-.315-.031-.47-.094-.502-.207-.95-.747-1.07-1.09h-.022v1.243h.237c.085 0 .175.01.272.03.097.021.199.048.31.073.235.05.363.1.88.1" fill="#C19300"/><g transform="translate(6.207 22.512)"><mask id="D" fill="#fff"><use xlink:href="#C"/></mask><path fill="#B59647" mask="url(#D)" d="M-.137 5.083h3.39V-.385h-3.39z"/></g><path d="M22.749 26.628l.01.003c-.052.434-.24.682-.413.808a.945.945 0 0 1-.56.189c-.334 0-.599-.148-.799-.438-.2-.29-.297-.64-.297-1.05 0-.394.09-.74.272-1.04.22-.36.523-.542.91-.542.258 0 .464.076.618.228.15.151.23.32.23.506a.413.413 0 0 1-.095.283.31.31 0 0 1-.244.106.33.33 0 0 1-.263-.122c-.07-.08-.112-.225-.128-.432-.011-.13-.037-.221-.08-.274-.04-.051-.088-.078-.145-.078-.086 0-.159.052-.22.158-.095.159-.141.4-.141.729 0 .271.034.533.112.78.221.696 1.034.675 1.233.186" fill="#C19300"/><g transform="translate(19.655 24.558)"><mask id="F" fill="#fff"><use xlink:href="#E"/></mask><path fill="#B59647" mask="url(#F)" d="M.065 3.114h3.409V-.239H.065z"/></g><path d="M11.38 27.628v-3.07h-1.035c.142.07.225.286.225.506v1.878c.012.213.112.686.72.686h.09" fill="#B59647"/><g transform="translate(9.31 24.558)"><mask id="H" fill="#fff"><use xlink:href="#G"/></mask><path fill="#B59647" mask="url(#H)" d="M.2 2.968h1.802V-.166H.201z"/></g><path d="M16.552 27.628v-3.07h-1.035c.115.109.198.319.198.54v1.844c.013.213.115.686.744.686h.093" fill="#C19300"/><g transform="translate(15.517 24.558)"><mask id="J" fill="#fff"><use xlink:href="#I"/></mask><path fill="#B59647" mask="url(#J)" d="M-.206 2.968h1.351V-.166h-1.35z"/></g><path d="M15.517 27.628V25.76c0-.32-.02-.553-.064-.7a.744.744 0 0 0-.23-.361.661.661 0 0 0-.444-.142c-.153 0-.3.042-.439.128-.144.085-.29.223-.443.415a.831.831 0 0 0-.27-.41.69.69 0 0 0-.435-.133.82.82 0 0 0-.412.107 1.59 1.59 0 0 0-.411.375v-.39h-.99s.185.09.185.355v1.958c.013.205.112.664.717.664h.088v-2.249c.102-.157.198-.27.288-.335a.356.356 0 0 1 .211-.066c.05 0 .101.02.145.057a.32.32 0 0 1 .098.16c.018.068.027.237.027.508v1.163c0 .002-.002.035 0 .084.01.197.099.678.72.678h.085v-2.249c.087-.134.171-.234.256-.301a.399.399 0 0 1 .25-.1c.056 0 .103.017.144.052.041.035.072.09.091.162.02.073.03.242.03.51v1.262c.012.205.111.664.717.664h-.002.088" fill="#C19300"/><g transform="translate(10.345 24.558)"><mask id="L" fill="#fff"><use xlink:href="#K"/></mask><path fill="#B59647" mask="url(#L)" d="M.141 3.042h5.264V-.24H.141z"/></g><path d="M17.586 26.605v-3.07h-1.034c.072.02.211.153.211.437v2.146c.009.14.096.487.735.487h.088" fill="#C19300"/><g transform="translate(16.552 22.512)"><mask id="N" fill="#fff"><use xlink:href="#M"/></mask><path fill="#B59647" mask="url(#N)" d="M-.257 4.996h1.351V-.125H-.257z"/></g><path d="M18.908 26.939c-.113.124-.225.19-.326.19-.1 0-.19-.021-.236-.072-.047-.051-.073-.113-.08-.229-.006-.116.004-.223.134-.41.13-.185.304-.313.508-.462v.983zm.699.053v-1.33c0-.555-.04-.714-.28-.924-.132-.118-.31-.18-.535-.18a1.33 1.33 0 0 0-.538.112.918.918 0 0 0-.405.32.752.752 0 0 0-.145.437c0 .109.037.203.108.284.071.08.161.12.268.12a.3.3 0 0 0 .242-.108.397.397 0 0 0 .094-.267.464.464 0 0 0-.097-.264c-.047-.065-.072-.121-.072-.166 0-.05.023-.095.067-.134a.401.401 0 0 1 .272-.092c.067 0 .128.022.182.065a.33.33 0 0 1 .11.153c.02.059.03.201.03.426v.3c-.545.274-.88.38-1.085.593a.777.777 0 0 0-.236.603c.006.168.046.352.135.464a.562.562 0 0 0 .406.222c.267 0 .49-.127.78-.455a.628.628 0 0 0 .14.37c.098.107.494.085.494.085h.113s-.048-.28-.048-.634z" fill="#C19300"/><g transform="translate(17.586 24.558)"><mask id="P" fill="#fff"><use xlink:href="#O"/></mask><path fill="#B59647" mask="url(#P)" d="M.25 3.042h2.874V-.24H.25z"/></g><path d="M10.345 24.046c0 .283.231.512.518.512a.514.514 0 0 0 .516-.512.515.515 0 0 0-.516-.511.515.515 0 0 0-.518.511" fill="#C19300"/><g transform="translate(10.345 22.512)"><mask id="R" fill="#fff"><use xlink:href="#Q"/></mask><path fill="#B59647" mask="url(#R)" d="M-.183 1.31H.984V.156H-.183z"/></g><path d="M15.517 24.046c0 .283.23.512.517.512a.514.514 0 0 0 .518-.512.515.515 0 0 0-.518-.511.514.514 0 0 0-.517.511" fill="#C19300"/><g transform="translate(15.517 22.512)"><mask id="T" fill="#fff"><use xlink:href="#S"/></mask><path fill="#B59647" mask="url(#T)" d="M.04 1.31h1.167V.156H.04z"/></g><path d="M10.205 25.433a1.466 1.466 0 0 0-.359-.384 2.62 2.62 0 0 0-.473-.28 11.587 11.587 0 0 1-.489-.237 1.706 1.706 0 0 1-.39-.269.522.522 0 0 1-.17-.393c0-.132.03-.244.088-.335a.574.574 0 0 0-.136.4c0 .154.057.286.17.393.102.097.233.187.39.269.157.081.321.16.488.236.166.077.325.17.473.28.144.107.265.237.36.385a.998.998 0 0 1 .139.545c0 .153-.029.294-.084.417a.894.894 0 0 1-.083.145.89.89 0 0 0 .132-.21c.055-.123.084-.263.084-.417a1 1 0 0 0-.14-.545" fill="#C19300"/><g transform="translate(7.241 22.512)"><mask id="V" fill="#fff"><use xlink:href="#U"/></mask><path fill="#B59647" mask="url(#V)" d="M-.119 4.176h3.41V.045H-.12z"/></g><path d="M7.345 23.881c.175-.18.45-.287.816-.287.097 0 .19.01.277.03.095.02.178.044.258.071.083.027.162.053.235.075a.803.803 0 0 0 .217.033h.117v.665l.045.09v-.815h-.117a.798.798 0 0 1-.216-.033 6.23 6.23 0 0 1-.235-.075 2.444 2.444 0 0 0-.257-.07 1.25 1.25 0 0 0-.277-.03c-.367 0-.642.091-.818.27a.959.959 0 0 0-.149.206.865.865 0 0 1 .104-.13" fill="#C19300"/><g transform="translate(6.207 22.512)"><mask id="X" fill="#fff"><use xlink:href="#W"/></mask><path fill="#B59647" mask="url(#X)" d="M.158 1.128h2.874V-.21H.158z"/></g><path d="M8.092 27.53c.148.065.3.098.455.098.122 0 .235-.01.337-.03a.772.772 0 0 0 .272-.107.457.457 0 0 0 .154-.14.51.51 0 0 1-.104.089.775.775 0 0 1-.273.106c-.1.02-.213.03-.336.03-.155 0-.308-.032-.455-.097-.363-.163-.712-.538-.9-.874v.135c.196.312.517.64.85.79" fill="#C19300"/><g transform="translate(6.207 25.581)"><mask id="Z" fill="#fff"><use xlink:href="#Y"/></mask><path fill="#B59647" mask="url(#Z)" d="M-.08 1.853h3.317V-.01H-.08z"/></g><path d="M21.205 24.619c.153 0 .276.081.366.241a1.069 1.069 0 0 1 .108.721.615.615 0 0 0 .045-.261c0-.186-.044-.362-.13-.52-.09-.16-.214-.242-.367-.242-.23 0-.405.186-.537.571.129-.343.298-.51.515-.51" fill="#C19300"/><g transform="translate(20.69 24.558)"><mask id="ab" fill="#fff"><use xlink:href="#aa"/></mask><path fill="#B59647" mask="url(#ab)" d="M-.223 1.076h2.54V-.138h-2.54z"/></g><path d="M21.85 25.948a2.752 2.752 0 0 1-.088-.715c0-.301.038-.522.112-.675a.58.58 0 0 0-.033.057c-.079.153-.117.377-.117.684 0 .257.03.497.09.715.105.385.363.522.568.522a.485.485 0 0 0 .339-.14 1.072 1.072 0 0 1-.082.209.983.983 0 0 0 .12-.275.483.483 0 0 1-.339.14c-.206 0-.463-.137-.57-.522" fill="#B59647"/><g transform="translate(20.69 24.558)"><mask id="ad" fill="#fff"><use xlink:href="#ac"/></mask><path fill="#C19300" mask="url(#ad)" d="M.023 3.346h2.293V.066H.023z"/></g><path d="M10.345 24.558c.02.025.037.035.054.064h.909v3.004l.048.002h.023v-3.07h-1.034z" fill="#C19300"/><g transform="translate(10.345 24.558)"><mask id="af" fill="#fff"><use xlink:href="#ae"/></mask><path fill="#C19300" mask="url(#af)" d="M-.244 2.895H.923v-3.06H-.244z"/></g><path d="M15.517 24.558c.019.026.033.036.049.064h.915v3.004l.047.002h.024v-3.07h-1.035z" fill="#C19300"/><g transform="translate(15.517 24.558)"><mask id="ah" fill="#fff"><use xlink:href="#ag"/></mask><path fill="#C19300" mask="url(#ah)" d="M-.021 2.895h1.167v-3.06H-.021z"/></g><path d="M12.414 25.654v1.972l.055.002h.027V25.58l-.082.073z" fill="#C19300"/><g transform="translate(12.414 25.581)"><mask id="aj" fill="#fff"><use xlink:href="#ai"/></mask><path fill="#C19300" mask="url(#aj)" d="M-.26 2.852h.655V-.246H-.26z"/></g><path d="M13.448 25.654v1.972l.057.002h.025V25.58l-.082.073z" fill="#C19300"/><g transform="translate(13.448 24.558)"><mask id="al" fill="#fff"><use xlink:href="#ak"/></mask><path fill="#C19300" mask="url(#al)" d="M-.128 2.852h.655V-.246h-.655z"/></g><path d="M17.586 23.535c.018.017.032.023.048.044h.916v3.025h.07v-3.07h-1.034z" fill="#C19300"/><g transform="translate(16.552 22.512)"><mask id="an" fill="#fff"><use xlink:href="#am"/></mask><path fill="#C19300" mask="url(#an)" d="M-.134 4.996h1.166V.048H-.134z"/></g><path d="M18.853 25.58a.377.377 0 0 0 .137-.295c0-.093-.05-.192-.15-.3-.107-.112-.158-.211-.158-.301a.28.28 0 0 1 .032-.126.237.237 0 0 0-.093.209c0 .09.051.188.159.3.1.109.149.208.149.3 0 .07-.043.156-.078.214.001 0 .002 0 .002-.002" fill="#C19300"/><g transform="translate(17.586 24.558)"><mask id="ap" fill="#fff"><use xlink:href="#ao"/></mask><path fill="#C19300" mask="url(#ap)" d="M.182 1.198h.799V.043H.182z"/></g><path d="M17.666 26.453c.117-.187.3-.332.557-.517.104-.075.398-.306.398-.306v-.049c-.139.107-.261.195-.369.273-.258.186-.429.308-.546.498a1.16 1.16 0 0 0-.12.253c.023-.052.049-.1.08-.152" fill="#C19300"/><g transform="translate(17.586 24.558)"><mask id="ar" fill="#fff"><use xlink:href="#aq"/></mask><path fill="#C19300" mask="url(#ar)" d="M-.249 1.293h2.13V.14H-.25z"/></g><path d="M18.634 25.04c.106-.134.258-.24.452-.313a1.75 1.75 0 0 1 .62-.112c.248 0 .45.058.597.173.257.2.303.335.303.91v1.4c0 .216.019.406.036.53h.048a3.996 3.996 0 0 1-.045-.587v-1.4c0-.574-.045-.71-.302-.91-.148-.116-.349-.173-.598-.173-.214 0-.422.038-.619.112a1.006 1.006 0 0 0-.505.388l.013-.018" fill="#C19300"/><g transform="translate(17.586 24.558)"><mask id="at" fill="#fff"><use xlink:href="#as"/></mask><path fill="#C19300" mask="url(#at)" d="M-.095 2.968h3.133V-.166H-.095z"/></g><path d="M18.623 27.159c.01.162.05.266.135.353.094.096.256.116.375.116.156 0 .327-.092.495-.266l.027-.028v-.033c-.156.15-.313.231-.46.231-.119 0-.28-.02-.374-.116-.084-.085-.125-.192-.135-.354a.725.725 0 0 1 .116-.457c-.162.226-.19.377-.18.554" fill="#C19300"/><g transform="translate(17.586 25.581)"><mask id="av" fill="#fff"><use xlink:href="#au"/></mask><path fill="#C19300" mask="url(#av)" d="M.243 1.207h1.72V.053H.242z"/></g><path d="M15.807 23.61c.218 0 .396.196.396.439a.46.46 0 0 1-.054.215.457.457 0 0 0 .106-.293c0-.24-.178-.436-.396-.436a.39.39 0 0 0-.342.217.377.377 0 0 1 .29-.141" fill="#C19300"/><g transform="translate(15.517 23.535)"><mask id="ax" fill="#fff"><use xlink:href="#aw"/></mask><path fill="#C19300" mask="url(#ax)" d="M.101.677h.983v-.972H.101z"/></g><path d="M10.633 23.61c.22 0 .398.196.398.439a.46.46 0 0 1-.054.215.457.457 0 0 0 .105-.293c0-.24-.179-.436-.397-.436a.39.39 0 0 0-.34.217.377.377 0 0 1 .288-.141" fill="#C19300"/><g transform="translate(10.345 23.535)"><mask id="az" fill="#fff"><use xlink:href="#ay"/></mask><path fill="#C19300" mask="url(#az)" d="M-.06.677h.983v-.972H-.06z"/></g><path d="M12.34 25.287l.074-.08v-.649h-1.035c.02.028.037.04.053.077h.907v.652z" fill="#C19300"/><g transform="translate(11.38 24.558)"><mask id="aB" fill="#fff"><use xlink:href="#aA"/></mask><path fill="#C19300" mask="url(#aB)" d="M-.234.833H.933v-.971H-.234z"/></g><path d="M13.417 25.27c-.047-.241-.113-.423-.197-.539a.373.373 0 0 0-.315-.173.418.418 0 0 0-.303.14 1.29 1.29 0 0 0-.188.268 1.3 1.3 0 0 1 .17-.183.41.41 0 0 1 .279-.116c.126 0 .232.059.314.173.085.116.152.298.198.54l.028.15.045-.095-.031-.166z" fill="#C19300"/><g transform="translate(12.414 24.558)"><mask id="aD" fill="#fff"><use xlink:href="#aC"/></mask><path fill="#C19300" mask="url(#aD)" d="M-.02.955h2.048V-.14H-.02z"/></g><path d="M14.436 25.031a.77.77 0 0 0-.158-.342.374.374 0 0 0-.306-.13.474.474 0 0 0-.31.123 1.18 1.18 0 0 0-.214.245c.04-.048.11-.124.2-.186a.468.468 0 0 1 .284-.104c.13 0 .231.043.307.133a.773.773 0 0 1 .157.342c.03.142.046.382.046.713v1.802h.041v-1.883c0-.33-.015-.57-.047-.713" fill="#C19300"/><g transform="translate(13.448 24.558)"><mask id="aF" fill="#fff"><use xlink:href="#aE"/></mask><path fill="#C19300" mask="url(#aF)" d="M.157 2.968h2.13V-.166H.156z"/></g></g></svg>