<svg width="335" height="78" xmlns="http://www.w3.org/2000/svg" xmlns:xlink="http://www.w3.org/1999/xlink"><defs><path id="a" d="M0 98V0h345v98z"/><path d="M318.452 24.724c-3.13-7.357-14.797-8.697-19.068-8.92-3.949-.208-109.761-1.578-125.53-1.782V14l-1.658.001-.039-.001v.001c-52.753.01-114.031.464-129.803 2.449-2.544.32-8.537 2.006-13.377 7.803C24.139 30.049 23 49.687 23 49.687s1.422 16.257 4.554 23.615c3.13 7.358 14.8 8.694 19.07 8.918 3.949.206 109.675 1.556 125.51 1.759V84h1.721c52.747 0 114.01-.444 129.78-2.425 2.545-.32 8.54-2.006 13.38-7.8C321.854 67.977 323 48.34 323 48.34s-1.418-16.257-4.548-23.616" id="d"/><filter x="-2.3%" y="-7.1%" width="104.7%" filterUnits="objectBoundingBox" id="c"><feOffset dy="2" in="SourceAlpha" result="shadowOffsetOuter1"/><feGaussianBlur stdDeviation="2" in="shadowOffsetOuter1" result="shadowBlurOuter1"/><feColorMatrix values="0 0 0 0 0 0 0 0 0 0 0 0 0 0 0 0 0 0 0.201766304 0" in="shadowBlurOuter1"/></filter></defs><g transform="translate(-6 -13)" fill="none" fill-rule="evenodd"><mask id="b" fill="#fff"><use xlink:href="#a"/></mask><g mask="url(#b)"><use fill="#000" filter="url(#c)" xlink:href="#d"/><use fill="#FFF" xlink:href="#d"/></g></g></svg>