<?xml version="1.0" encoding="UTF-8"?>
<svg width="207px" height="86px" viewBox="0 0 207 86" version="1.1" xmlns="http://www.w3.org/2000/svg" xmlns:xlink="http://www.w3.org/1999/xlink">
    <!-- Generator: sketchtool 49.1 (51147) - http://www.bohemiancoding.com/sketch -->
    <title>B1D51053-57A5-46C6-8960-2113438CE3CE</title>
    <desc>Created with sketchtool.</desc>
    <defs></defs>
    <g id="Symbols" stroke="none" stroke-width="1" fill="none" fill-rule="evenodd">
        <g id="Header-_t" transform="translate(-741.000000, -123.000000)">
            <g id="Logo" transform="translate(742.000000, 124.000000)">
                <path d="M48.980062,69.1328212 C50.6720448,69.1328212 52.0750333,68.7023641 53.1480218,67.8385413 C54.3459807,66.8147513 54.9688803,65.3285107 54.962046,63.3410396 C54.962046,62.4840033 54.8878448,61.7210083 54.7042944,61.0627191 C54.0540576,58.7417406 52.3786725,57.5851294 49.7181688,57.5851294 L48.4733459,57.5851294 C47.7459788,57.5851294 47.1601799,58.2133642 47.1142923,58.9084943 C47.1357716,59.1091804 47.1230793,62.5150272 47.1103869,69.1328212 L48.980062,69.1328212 Z M47.1357716,70.8207174 L47.1142923,78.2654933 C47.0937893,79.5520173 47.2587893,80.3819077 47.5155646,80.6776046 C47.8250617,81.0411664 48.43234,81.2379745 49.3500917,81.3077784 L49.3725474,82 L39.0322189,82 L39.0449113,81.3077784 C39.9616867,81.2379745 40.5611543,81.0411664 40.8481958,80.709598 C41.13719,80.3819077 41.2836397,79.5520173 41.2680184,78.2654933 L41.2504444,59.7044522 C41.2680184,58.4130808 41.1059473,57.5851294 40.8481958,57.2894325 C40.5055034,56.9239317 39.8952961,56.7271236 39.0214793,56.6902826 L39,56 L52.8346193,56 C56.7418986,56 59.8876391,58.0834514 60.7673139,61.2275337 C60.926456,61.7898426 60.9987045,62.4161384 60.9996809,63.0453427 C61.0201838,65.3285107 60.0526392,67.1802521 58.1409818,68.6344992 C56.2351825,70.0897159 53.8451226,70.8207174 50.9737312,70.8207174 L47.1357716,70.8207174 Z" id="Fill-1" fill="#1A1919"></path>
                <path d="M48.980062,69.1328212 C50.6720448,69.1328212 52.0750333,68.7023641 53.1480218,67.8385413 C54.3459807,66.8147513 54.9688803,65.3285107 54.962046,63.3410396 C54.962046,62.4840033 54.8878448,61.7210083 54.7042944,61.0627191 C54.0540576,58.7417406 52.3786725,57.5851294 49.7181688,57.5851294 L48.4733459,57.5851294 C47.7459788,57.5851294 47.1601799,58.2133642 47.1142923,58.9084943 C47.1357716,59.1091804 47.1230793,62.5150272 47.1103869,69.1328212 L48.980062,69.1328212 Z M47.1357716,70.8207174 L47.1142923,78.2654933 C47.0937893,79.5520173 47.2587893,80.3819077 47.5155646,80.6776046 C47.8250617,81.0411664 48.43234,81.2379745 49.3500917,81.3077784 L49.3725474,82 L39.0322189,82 L39.0449113,81.3077784 C39.9616867,81.2379745 40.5611543,81.0411664 40.8481958,80.709598 C41.13719,80.3819077 41.2836397,79.5520173 41.2680184,78.2654933 L41.2504444,59.7044522 C41.2680184,58.4130808 41.1059473,57.5851294 40.8481958,57.2894325 C40.5055034,56.9239317 39.8952961,56.7271236 39.0214793,56.6902826 L39,56 L52.8346193,56 C56.7418986,56 59.8876391,58.0834514 60.7673139,61.2275337 C60.926456,61.7898426 60.9987045,62.4161384 60.9996809,63.0453427 C61.0201838,65.3285107 60.0526392,67.1802521 58.1409818,68.6344992 C56.2351825,70.0897159 53.8451226,70.8207174 50.9737312,70.8207174 L47.1357716,70.8207174 Z" id="Stroke-3" stroke="#1A1919" stroke-width="2.013"></path>
                <path d="M80.8230684,67.3053565 C80.9550187,67.7844667 81.0244148,68.2998885 80.9921603,68.8183363 C80.9423124,70.3030737 79.656041,71.5709508 78.1430106,71.6042363 C76.9065872,71.6405479 75.8470749,70.9183522 75.5577616,69.8501885 C75.3055899,68.9212189 75.5675357,68.0971492 76.3435991,67.3729362 C76.5283296,67.1651537 76.6387769,66.9291288 76.6407317,66.6840261 C76.6211835,66.1000159 76.1676653,65.8246536 75.2928835,65.7903594 C74.5637358,65.7903594 73.8521814,66.1000159 73.0751406,66.6840261 C72.1788558,67.338642 71.5181267,68.2302914 71.0538571,69.3347667 L71.0460378,79.0410363 C71.0352863,79.9014174 71.1076146,80.557042 71.2297908,81.0008494 C71.439934,81.7946594 72.1514883,82.2435101 73.3468605,82.3100812 L73.3585895,83 L70.4156084,83 C67.6710416,82.9636885 66.0182416,81.9661305 65.4699147,79.9357116 C65.3672866,79.5574667 65.3076646,79.2125073 65.3115743,78.8362797 L65.3330773,68.2686203 C65.3272128,67.4758189 65.2715005,66.8928173 65.1590983,66.4802782 C64.9274522,65.6188884 64.2080786,65.1367521 63.0127063,65.0681637 L63,64.3822796 L71.0313766,64.3822796 L71.0401733,66.5811435 C72.4779432,64.8623985 74.0818727,64 75.8470749,64 C78.3756342,64 80.2659448,65.2386261 80.8230684,67.3053565" id="Fill-5" fill="#1A1919"></path>
                <path d="M80.8230684,67.3053565 C80.9550187,67.7844667 81.0244148,68.2998885 80.9921603,68.8183363 C80.9423124,70.3030737 79.656041,71.5709508 78.1430106,71.6042363 C76.9065872,71.6405479 75.8470749,70.9183522 75.5577616,69.8501885 C75.3055899,68.9212189 75.5675357,68.0971492 76.3435991,67.3729362 C76.5283296,67.1651537 76.6387769,66.9291288 76.6407317,66.6840261 C76.6211835,66.1000159 76.1676653,65.8246536 75.2928835,65.7903594 C74.5637358,65.7903594 73.8521814,66.1000159 73.0751406,66.6840261 C72.1788558,67.338642 71.5181267,68.2302914 71.0538571,69.3347667 L71.0460378,79.0410363 C71.0352863,79.9014174 71.1076146,80.557042 71.2297908,81.0008494 C71.439934,81.7946594 72.1514883,82.2435101 73.3468605,82.3100812 L73.3585895,83 L70.4156084,83 C67.6710416,82.9636885 66.0182416,81.9661305 65.4699147,79.9357116 C65.3672866,79.5574667 65.3076646,79.2125073 65.3115743,78.8362797 L65.3330773,68.2686203 C65.3272128,67.4758189 65.2715005,66.8928173 65.1590983,66.4802782 C64.9274522,65.6188884 64.2080786,65.1367521 63.0127063,65.0681637 L63,64.3822796 L71.0313766,64.3822796 L71.0401733,66.5811435 C72.4779432,64.8623985 74.0818727,64 75.8470749,64 C78.3756342,64 80.2659448,65.2386261 80.8230684,67.3053565 Z" id="Stroke-7" stroke="#1A1919" stroke-width="2.013"></path>
                <path d="M89.3520878,67.7516555 C88.9034362,69.1039157 88.6496438,70.7939934 88.5954634,72.8575525 C89.0916417,72.8218885 89.5421945,72.7535325 89.9889451,72.6534752 C92.3491191,72.2819751 93.5420383,70.8316388 93.5439393,68.3262422 C93.5382361,67.9210595 93.4983137,67.5178581 93.3994583,67.143386 C93.0810297,65.9595391 92.4574799,65.3839616 91.4822328,65.3839616 C90.6039401,65.3839616 89.9033971,66.1626258 89.3520878,67.7516555 Z M99,78.7718338 C97.3574786,81.578393 94.7758304,83 91.2065782,83 C87.3331553,83 84.3636895,80.4619115 83.3542232,76.677564 C83.1013814,75.7294958 82.97401,74.7487356 83.004427,73.736274 C82.9930206,70.7939934 83.7743589,68.4282809 85.3332334,66.7025392 C86.9786064,64.9143855 89.2256669,64 92.1533092,64 C93.4327269,64 94.6351515,64.3378174 95.7814945,64.9807602 C97.081824,65.6900777 97.8660139,66.6024819 98.1730361,67.7516555 C98.2633368,68.0914542 98.2871001,68.4282809 98.2842485,68.799781 C98.2661884,70.1193493 97.4886522,71.2338495 95.9668485,72.2136191 C94.1979062,73.3964753 91.7293714,74.0057354 88.5831065,74.0731008 C88.5717001,75.1558997 88.6620007,76.1366599 88.897733,77.0114187 C89.2313701,78.2646123 89.7893331,79.2106992 90.5849294,79.921998 C91.2959283,80.5669222 92.1361996,80.9364409 93.0952877,81.0028156 C94.0135027,81.0384796 94.9858982,80.7650555 95.9934634,80.1221127 C97.0000781,79.4831326 97.741494,78.7391418 98.1673329,77.9267949 L99,78.7718338 Z" id="Fill-9" fill="#1A1919"></path>
                <path d="M89.3520878,67.7516555 C88.9034362,69.1039157 88.6496438,70.7939934 88.5954634,72.8575525 C89.0916417,72.8218885 89.5421945,72.7535325 89.9889451,72.6534752 C92.3491191,72.2819751 93.5420383,70.8316388 93.5439393,68.3262422 C93.5382361,67.9210595 93.4983137,67.5178581 93.3994583,67.143386 C93.0810297,65.9595391 92.4574799,65.3839616 91.4822328,65.3839616 C90.6039401,65.3839616 89.9033971,66.1626258 89.3520878,67.7516555 Z M99,78.7718338 C97.3574786,81.578393 94.7758304,83 91.2065782,83 C87.3331553,83 84.3636895,80.4619115 83.3542232,76.677564 C83.1013814,75.7294958 82.97401,74.7487356 83.004427,73.736274 C82.9930206,70.7939934 83.7743589,68.4282809 85.3332334,66.7025392 C86.9786064,64.9143855 89.2256669,64 92.1533092,64 C93.4327269,64 94.6351515,64.3378174 95.7814945,64.9807602 C97.081824,65.6900777 97.8660139,66.6024819 98.1730361,67.7516555 C98.2633368,68.0914542 98.2871001,68.4282809 98.2842485,68.799781 C98.2661884,70.1193493 97.4886522,71.2338495 95.9668485,72.2136191 C94.1979062,73.3964753 91.7293714,74.0057354 88.5831065,74.0731008 C88.5717001,75.1558997 88.6620007,76.1366599 88.897733,77.0114187 C89.2313701,78.2646123 89.7893331,79.2106992 90.5849294,79.921998 C91.2959283,80.5669222 92.1361996,80.9364409 93.0952877,81.0028156 C94.0135027,81.0384796 94.9858982,80.7650555 95.9934634,80.1221127 C97.0000781,79.4831326 97.741494,78.7391418 98.1673329,77.9267949 L99,78.7718338 Z" id="Stroke-11" stroke="#1A1919" stroke-width="2.013"></path>
                <path d="M130.671942,79.0410363 C130.657189,79.9024261 130.733906,80.557042 130.853898,81.0008494 C131.069295,81.7946594 131.781384,82.2435101 132.987214,82.3100812 L133,83 L130.03657,83 C127.277718,82.9646971 125.612572,81.9661305 125.056867,79.9367203 C124.958512,79.5584753 124.897532,79.2125073 124.90245,78.8362797 L124.91622,69.0251102 C124.91917,68.6468652 124.869009,68.3372087 124.796227,68.0638637 C124.5228,67.0622711 123.892346,66.5488666 122.886177,66.5488666 C121.667561,66.5488666 120.487303,67.338642 119.395565,68.9545044 C119.367042,68.9908159 119.377861,69.0251102 119.384746,69.0594044 L119.381795,79.0410363 C119.370976,79.9024261 119.44671,80.557042 119.564735,81.0008494 C119.781116,81.7946594 120.495172,82.2435101 121.701001,82.3100812 L121.71182,83 L118.748391,83 C115.988555,82.9646971 114.324392,81.9661305 113.769671,79.9367203 C113.669349,79.5584753 113.610336,79.2125073 113.613287,78.8362797 L113.594599,69.0251102 C113.599517,68.6468652 113.58083,68.3372087 113.507064,68.0638637 C113.235604,67.0622711 112.607117,66.5488666 111.597997,66.5488666 C110.378398,66.5488666 109.202074,67.338642 108.106402,68.9545044 L108.093616,79.0410363 C108.084764,79.9024261 108.121155,80.557042 108.242132,81.0008494 C108.458512,81.7946594 109.171584,82.2435101 110.409871,82.3100812 L110.388233,83 L107.42677,83 C104.665951,82.9646971 103.000805,81.9661305 102.447067,79.9367203 C102.345762,79.5584753 102.32019,79.2125073 102.324124,78.8362797 L102.343795,68.2686203 C102.337893,67.4758189 102.283798,66.8928173 102.171674,66.4802782 C101.938573,65.6188884 101.214682,65.1367521 100.012786,65.0681637 L100,64.3822796 L108.082797,64.3822796 L108.070994,66.7899347 C109.728273,64.9309869 111.743562,64 114.110962,64 C115.120082,64 116.101663,64.2753623 116.973087,64.7917927 C117.968437,65.3778202 118.672657,66.1686043 119.057225,67.1984392 C119.643419,66.4096725 120.433208,65.7197537 121.423641,65.1367521 C122.714056,64.3822796 124.039878,64 125.400125,64 C126.513501,64 127.537375,64.3116738 128.464861,64.8966927 C129.512339,65.5492913 130.182135,66.4802782 130.492936,67.6140044 C130.61588,68.0638637 130.672926,68.5429739 130.672926,69.0594044 L130.671942,79.0410363 Z" id="Fill-13" fill="#1A1919"></path>
                <path d="M130.671942,79.0410363 C130.657189,79.9024261 130.733906,80.557042 130.853898,81.0008494 C131.069295,81.7946594 131.781384,82.2435101 132.987214,82.3100812 L133,83 L130.03657,83 C127.277718,82.9646971 125.612572,81.9661305 125.056867,79.9367203 C124.958512,79.5584753 124.897532,79.2125073 124.90245,78.8362797 L124.91622,69.0251102 C124.91917,68.6468652 124.869009,68.3372087 124.796227,68.0638637 C124.5228,67.0622711 123.892346,66.5488666 122.886177,66.5488666 C121.667561,66.5488666 120.487303,67.338642 119.395565,68.9545044 C119.367042,68.9908159 119.377861,69.0251102 119.384746,69.0594044 L119.381795,79.0410363 C119.370976,79.9024261 119.44671,80.557042 119.564735,81.0008494 C119.781116,81.7946594 120.495172,82.2435101 121.701001,82.3100812 L121.71182,83 L118.748391,83 C115.988555,82.9646971 114.324392,81.9661305 113.769671,79.9367203 C113.669349,79.5584753 113.610336,79.2125073 113.613287,78.8362797 L113.594599,69.0251102 C113.599517,68.6468652 113.58083,68.3372087 113.507064,68.0638637 C113.235604,67.0622711 112.607117,66.5488666 111.597997,66.5488666 C110.378398,66.5488666 109.202074,67.338642 108.106402,68.9545044 L108.093616,79.0410363 C108.084764,79.9024261 108.121155,80.557042 108.242132,81.0008494 C108.458512,81.7946594 109.171584,82.2435101 110.409871,82.3100812 L110.388233,83 L107.42677,83 C104.665951,82.9646971 103.000805,81.9661305 102.447067,79.9367203 C102.345762,79.5584753 102.32019,79.2125073 102.324124,78.8362797 L102.343795,68.2686203 C102.337893,67.4758189 102.283798,66.8928173 102.171674,66.4802782 C101.938573,65.6188884 101.214682,65.1367521 100.012786,65.0681637 L100,64.3822796 L108.082797,64.3822796 L108.070994,66.7899347 C109.728273,64.9309869 111.743562,64 114.110962,64 C115.120082,64 116.101663,64.2753623 116.973087,64.7917927 C117.968437,65.3778202 118.672657,66.1686043 119.057225,67.1984392 C119.643419,66.4096725 120.433208,65.7197537 121.423641,65.1367521 C122.714056,64.3822796 124.039878,64 125.400125,64 C126.513501,64 127.537375,64.3116738 128.464861,64.8966927 C129.512339,65.5492913 130.182135,66.4802782 130.492936,67.6140044 C130.61588,68.0638637 130.672926,68.5429739 130.672926,69.0594044 L130.671942,79.0410363 Z" id="Stroke-15" stroke="#1A1919" stroke-width="2.013"></path>
                <path d="M135.277526,60.6465708 C135.024887,59.7005405 135.200226,58.8554464 135.770551,58.1132679 C136.343703,57.3691101 137.114819,57 138.016026,57 C139.350867,57 140.462293,57.9113953 140.782805,59.1255995 C141.034502,60.0696506 140.860106,60.9147446 140.286953,61.6569232 C139.715686,62.4000913 138.947398,62.7711806 138.013198,62.7711806 C136.71135,62.7711806 135.609351,61.8954099 135.277526,60.6465708 Z M140.139894,83 C137.493778,82.965365 135.898756,81.9856893 135.36991,79.9946715 C135.270928,79.6235822 135.248303,79.2841592 135.250189,78.9150491 L135.236048,68.5473091 C135.265271,67.769506 135.211538,67.1975337 135.104072,66.792799 C134.881599,65.947705 134.185897,65.4746898 133,65.4083885 L133.021682,64.7344904 L140.76678,64.7344904 L140.779977,79.1159321 C140.771493,79.9610261 140.808258,80.603258 140.923265,81.0386694 C141.131599,81.8184517 141.81316,82.2578214 143,82.3231331 L142.979261,83 L140.139894,83 Z" id="Fill-17" fill="#1A1919"></path>
                <path d="M135.277526,60.6465708 C135.024887,59.7005405 135.200226,58.8554464 135.770551,58.1132679 C136.343703,57.3691101 137.114819,57 138.016026,57 C139.350867,57 140.462293,57.9113953 140.782805,59.1255995 C141.034502,60.0696506 140.860106,60.9147446 140.286953,61.6569232 C139.715686,62.4000913 138.947398,62.7711806 138.013198,62.7711806 C136.71135,62.7711806 135.609351,61.8954099 135.277526,60.6465708 Z M140.139894,83 C137.493778,82.965365 135.898756,81.9856893 135.36991,79.9946715 C135.270928,79.6235822 135.248303,79.2841592 135.250189,78.9150491 L135.236048,68.5473091 C135.265271,67.769506 135.211538,67.1975337 135.104072,66.792799 C134.881599,65.947705 134.185897,65.4746898 133,65.4083885 L133.021682,64.7344904 L140.76678,64.7344904 L140.779977,79.1159321 C140.771493,79.9610261 140.808258,80.603258 140.923265,81.0386694 C141.131599,81.8184517 141.81316,82.2578214 143,82.3231331 L142.979261,83 L140.139894,83 Z" id="Stroke-19" stroke="#1A1919" stroke-width="2.013"></path>
                <path d="M163.805379,80.6213432 C164.024543,81.4152376 164.745789,81.8631272 166,81.9307141 L165.97908,82.6196974 L162.980529,82.6196974 C160.357544,82.5843908 158.733744,81.6916379 158.0643,79.8970534 C157.436696,80.6909477 156.628781,81.3476507 155.658486,81.9307141 C154.412244,82.6529865 153.094276,83 151.719525,83 C150.624706,83 149.587665,82.6893018 148.651241,82.1022033 C147.586307,81.4495354 146.872034,80.5174409 146.552255,79.3462702 C146.426734,78.9024157 146.374932,78.4565437 146.374932,77.9380409 L146.363974,67.8877621 C146.391867,67.0948766 146.338073,66.5118131 146.222514,66.0992302 C145.982431,65.2377489 145.250226,64.7545527 144,64.6869658 L144.022913,64 L152.208658,64 L152.205669,77.9723387 C152.196703,78.3183435 152.245517,78.6280329 152.328201,78.9367136 C152.605144,79.9343775 153.232748,80.4195912 154.254845,80.4195912 C155.490129,80.4195912 156.684568,79.6267056 157.81027,78.076241 L157.795327,67.8877621 C157.82322,67.0948766 157.770422,66.5118131 157.657852,66.0992302 C157.416772,65.2377489 156.684568,64.7545527 155.434342,64.6869658 L155.451277,64 L163.642999,64 L163.652961,78.661322 C163.642999,79.5217945 163.680855,80.1774887 163.805379,80.6213432" id="Fill-21" fill="#1A1919"></path>
                <path d="M163.805379,80.6213432 C164.024543,81.4152376 164.745789,81.8631272 166,81.9307141 L165.97908,82.6196974 L162.980529,82.6196974 C160.357544,82.5843908 158.733744,81.6916379 158.0643,79.8970534 C157.436696,80.6909477 156.628781,81.3476507 155.658486,81.9307141 C154.412244,82.6529865 153.094276,83 151.719525,83 C150.624706,83 149.587665,82.6893018 148.651241,82.1022033 C147.586307,81.4495354 146.872034,80.5174409 146.552255,79.3462702 C146.426734,78.9024157 146.374932,78.4565437 146.374932,77.9380409 L146.363974,67.8877621 C146.391867,67.0948766 146.338073,66.5118131 146.222514,66.0992302 C145.982431,65.2377489 145.250226,64.7545527 144,64.6869658 L144.022913,64 L152.208658,64 L152.205669,77.9723387 C152.196703,78.3183435 152.245517,78.6280329 152.328201,78.9367136 C152.605144,79.9343775 153.232748,80.4195912 154.254845,80.4195912 C155.490129,80.4195912 156.684568,79.6267056 157.81027,78.076241 L157.795327,67.8877621 C157.82322,67.0948766 157.770422,66.5118131 157.657852,66.0992302 C157.416772,65.2377489 156.684568,64.7545527 155.434342,64.6869658 L155.451277,64 L163.642999,64 L163.652961,78.661322 C163.642999,79.5217945 163.680855,80.1774887 163.805379,80.6213432 Z" id="Stroke-23" stroke="#1A1919" stroke-width="2.013"></path>
                <path d="M196.672081,79.0410363 C196.658312,79.9024261 196.734041,80.557042 196.852059,81.0008494 C197.068427,81.7946594 197.785391,82.2435101 198.987215,82.3100812 L199,83 L196.03773,83 C193.276092,82.9646971 191.613012,81.9661305 191.061274,79.9367203 C190.958008,79.5584753 190.898015,79.2125073 190.9049,78.8362797 L190.916701,69.0251102 C190.920635,68.6468652 190.871461,68.3372087 190.794749,68.0638637 C190.522322,67.0622711 189.896823,66.5488666 188.885796,66.5488666 C187.668236,66.5488666 186.488049,67.338642 185.396376,68.9545044 C185.368838,68.9908159 185.38064,69.0251102 185.384574,69.0594044 L185.383591,79.0410363 C185.370805,79.9024261 185.446534,80.557042 185.567503,81.0008494 C185.781904,81.7946594 186.496901,82.2435101 187.699708,82.3100812 L187.71151,83 L184.75219,83 C181.988586,82.9646971 180.325505,81.9661305 179.770817,79.9367203 C179.671485,79.5584753 179.611492,79.2125073 179.615426,78.8362797 L179.595756,69.0251102 C179.597723,68.6468652 179.581987,68.3372087 179.507242,68.0638637 C179.233832,67.0622711 178.608333,66.5488666 177.599273,66.5488666 C176.379746,66.5488666 175.201526,67.338642 174.108869,68.9545044 L174.096084,79.0410363 C174.086249,79.9024261 174.123622,80.557042 174.242624,81.0008494 C174.458008,81.7946594 175.176939,82.2435101 176.410234,82.3100812 L176.389581,83 L173.429278,83 C170.668624,82.9646971 169.00456,81.9661305 168.448888,79.9367203 C168.346605,79.5584753 168.323002,79.2125073 168.325952,78.8362797 L168.343655,68.2686203 C168.337754,67.4758189 168.284646,66.8928173 168.172528,66.4802782 C167.940424,65.6188884 167.218543,65.1367521 166.013769,65.0681637 L166,64.3822796 L174.083299,64.3822796 L174.07248,66.7899347 C175.731627,64.9309869 177.742862,64 180.114055,64 C181.122131,64 182.103654,64.2753623 182.972075,64.7917927 C183.972283,65.3778202 184.672528,66.1686043 185.057072,67.1984392 C185.641265,66.4096725 186.434941,65.7197537 187.426298,65.1367521 C188.715652,64.3822796 190.041396,64 191.400578,64 C192.515855,64 193.536717,64.3116738 194.464147,64.8966927 C195.51353,65.5492913 196.182303,66.4802782 196.491119,67.6140044 C196.613071,68.0638637 196.675031,68.5429739 196.675031,69.0594044 L196.672081,79.0410363 Z" id="Fill-25" fill="#1A1919"></path>
                <path d="M196.672081,79.0410363 C196.658312,79.9024261 196.734041,80.557042 196.852059,81.0008494 C197.068427,81.7946594 197.785391,82.2435101 198.987215,82.3100812 L199,83 L196.03773,83 C193.276092,82.9646971 191.613012,81.9661305 191.061274,79.9367203 C190.958008,79.5584753 190.898015,79.2125073 190.9049,78.8362797 L190.916701,69.0251102 C190.920635,68.6468652 190.871461,68.3372087 190.794749,68.0638637 C190.522322,67.0622711 189.896823,66.5488666 188.885796,66.5488666 C187.668236,66.5488666 186.488049,67.338642 185.396376,68.9545044 C185.368838,68.9908159 185.38064,69.0251102 185.384574,69.0594044 L185.383591,79.0410363 C185.370805,79.9024261 185.446534,80.557042 185.567503,81.0008494 C185.781904,81.7946594 186.496901,82.2435101 187.699708,82.3100812 L187.71151,83 L184.75219,83 C181.988586,82.9646971 180.325505,81.9661305 179.770817,79.9367203 C179.671485,79.5584753 179.611492,79.2125073 179.615426,78.8362797 L179.595756,69.0251102 C179.597723,68.6468652 179.581987,68.3372087 179.507242,68.0638637 C179.233832,67.0622711 178.608333,66.5488666 177.599273,66.5488666 C176.379746,66.5488666 175.201526,67.338642 174.108869,68.9545044 L174.096084,79.0410363 C174.086249,79.9024261 174.123622,80.557042 174.242624,81.0008494 C174.458008,81.7946594 175.176939,82.2435101 176.410234,82.3100812 L176.389581,83 L173.429278,83 C170.668624,82.9646971 169.00456,81.9661305 168.448888,79.9367203 C168.346605,79.5584753 168.323002,79.2125073 168.325952,78.8362797 L168.343655,68.2686203 C168.337754,67.4758189 168.284646,66.8928173 168.172528,66.4802782 C167.940424,65.6188884 167.218543,65.1367521 166.013769,65.0681637 L166,64.3822796 L174.083299,64.3822796 L174.07248,66.7899347 C175.731627,64.9309869 177.742862,64 180.114055,64 C181.122131,64 182.103654,64.2753623 182.972075,64.7917927 C183.972283,65.3778202 184.672528,66.1686043 185.057072,67.1984392 C185.641265,66.4096725 186.434941,65.7197537 187.426298,65.1367521 C188.715652,64.3822796 190.041396,64 191.400578,64 C192.515855,64 193.536717,64.3116738 194.464147,64.8966927 C195.51353,65.5492913 196.182303,66.4802782 196.491119,67.6140044 C196.613071,68.0638637 196.675031,68.5429739 196.675031,69.0594044 L196.672081,79.0410363 Z" id="Stroke-27" stroke="#1A1919" stroke-width="2.013"></path>
                <g id="Group-32">
                    <path d="M19.9743526,52.8355441 C22.4669842,52.8355441 24.7356684,52.4906544 26.7696947,51.8067206 C28.8085895,51.119864 30.5320105,50.1475478 31.9691684,48.9102316 C33.4004842,47.6583015 34.5075632,46.1520882 35.2952737,44.366261 C36.0820105,42.5892022 36.4695368,40.6007279 36.4695368,38.4164265 C36.4695368,35.3114449 35.8064579,32.7101581 34.5026947,30.634 C33.1891947,28.5519963 31.5358789,26.758375 29.5476158,25.2453419 C27.5583789,23.7517941 25.4299053,22.4618676 23.1407737,21.3940735 C20.8506684,20.332125 18.7202474,19.2750478 16.7349053,18.2316103 C14.7534579,17.1862243 13.0991684,16.0307463 11.7827474,14.7564081 C10.4663263,13.4918125 9.81103684,11.9378603 9.81103684,10.1062426 C9.81103684,7.71831985 10.5364316,5.92567279 11.9979316,4.72732721 C13.4526158,3.53385294 15.2208263,2.93273162 17.2986684,2.93273162 C18.9704842,2.93273162 20.6014053,3.31561765 22.2255105,4.01026838 C26.6879053,5.92567279 32.4745105,11.6738346 33.5329053,16.5120331 L33.6779842,16.5120331 L33.6848,2.52938603 L31.1863263,2.52938603 C30.3109842,2.52938603 29.3655368,2.41539706 28.3509579,2.17865074 C27.3344316,1.94190441 26.2439053,1.66229044 25.0939842,1.34955147 C23.9275105,1.03486397 22.7123526,0.770838235 21.4154053,0.533117647 C20.1223526,0.296371324 18.7806158,0.186279412 17.3843526,0.186279412 C12.0300632,0.186279412 8.03406316,1.25797059 5.39343158,3.41499265 C2.76545789,5.58760294 1.04787895,8.72863235 1.04787895,13.5112978 C1.04787895,16.2616471 2.11211579,18.9019044 3.45774737,20.7900294 C4.79948421,22.6664632 6.47714211,24.2964081 8.4878,25.6603787 C10.5023526,27.0370147 12.6697737,28.2567941 15.0134316,29.3255625 C17.3493,30.383614 19.5176947,31.509864 21.5341947,32.6439081 C23.5516684,33.7876949 25.2186158,35.0630074 26.5623,36.4581544 C27.9030632,37.8630441 28.5739316,39.5952868 28.5739316,41.6802132 C28.5739316,43.2107831 28.3334316,44.4744044 27.8514579,45.4632831 C27.3578,46.46775 26.6645368,47.2461875 25.7619316,47.8180809 C24.8671158,48.4133566 23.7843789,48.8254706 22.5429316,49.0797537 C21.2907737,49.3389081 19.9071684,49.463614 18.3745895,49.463614 C16.5099842,49.463614 14.6629053,49.0709853 12.8528263,48.2603971 C6.95132632,45.5996801 1.68661579,38.6531728 0.286457895,34.2494963 L0.0255105263,34.2494963 L0.0118789474,50.2225662 L2.80927368,50.2225662 C3.79561579,50.2225662 4.85595789,50.3550662 6.00003684,50.6181176 C7.13340526,50.887989 8.33687895,51.2348272 9.64356316,51.5456176 C12.4078526,52.1925294 13.9034316,52.8355441 19.9743526,52.8355441" id="Fill-29" fill="#1A1919"></path>
                    <path d="M19.9743526,52.8355441 C22.4669842,52.8355441 24.7356684,52.4906544 26.7696947,51.8067206 C28.8085895,51.119864 30.5320105,50.1475478 31.9691684,48.9102316 C33.4004842,47.6583015 34.5075632,46.1520882 35.2952737,44.366261 C36.0820105,42.5892022 36.4695368,40.6007279 36.4695368,38.4164265 C36.4695368,35.3114449 35.8064579,32.7101581 34.5026947,30.634 C33.1891947,28.5519963 31.5358789,26.758375 29.5476158,25.2453419 C27.5583789,23.7517941 25.4299053,22.4618676 23.1407737,21.3940735 C20.8506684,20.332125 18.7202474,19.2750478 16.7349053,18.2316103 C14.7534579,17.1862243 13.0991684,16.0307463 11.7827474,14.7564081 C10.4663263,13.4918125 9.81103684,11.9378603 9.81103684,10.1062426 C9.81103684,7.71831985 10.5364316,5.92567279 11.9979316,4.72732721 C13.4526158,3.53385294 15.2208263,2.93273162 17.2986684,2.93273162 C18.9704842,2.93273162 20.6014053,3.31561765 22.2255105,4.01026838 C26.6879053,5.92567279 32.4745105,11.6738346 33.5329053,16.5120331 L33.6779842,16.5120331 L33.6848,2.52938603 L31.1863263,2.52938603 C30.3109842,2.52938603 29.3655368,2.41539706 28.3509579,2.17865074 C27.3344316,1.94190441 26.2439053,1.66229044 25.0939842,1.34955147 C23.9275105,1.03486397 22.7123526,0.770838235 21.4154053,0.533117647 C20.1223526,0.296371324 18.7806158,0.186279412 17.3843526,0.186279412 C12.0300632,0.186279412 8.03406316,1.25797059 5.39343158,3.41499265 C2.76545789,5.58760294 1.04787895,8.72863235 1.04787895,13.5112978 C1.04787895,16.2616471 2.11211579,18.9019044 3.45774737,20.7900294 C4.79948421,22.6664632 6.47714211,24.2964081 8.4878,25.6603787 C10.5023526,27.0370147 12.6697737,28.2567941 15.0134316,29.3255625 C17.3493,30.383614 19.5176947,31.509864 21.5341947,32.6439081 C23.5516684,33.7876949 25.2186158,35.0630074 26.5623,36.4581544 C27.9030632,37.8630441 28.5739316,39.5952868 28.5739316,41.6802132 C28.5739316,43.2107831 28.3334316,44.4744044 27.8514579,45.4632831 C27.3578,46.46775 26.6645368,47.2461875 25.7619316,47.8180809 C24.8671158,48.4133566 23.7843789,48.8254706 22.5429316,49.0797537 C21.2907737,49.3389081 19.9071684,49.463614 18.3745895,49.463614 C16.5099842,49.463614 14.6629053,49.0709853 12.8528263,48.2603971 C6.95132632,45.5996801 1.68661579,38.6531728 0.286457895,34.2494963 L0.0255105263,34.2494963 L0.0118789474,50.2225662 L2.80927368,50.2225662 C3.79561579,50.2225662 4.85595789,50.3550662 6.00003684,50.6181176 C7.13340526,50.887989 8.33687895,51.2348272 9.64356316,51.5456176 C12.4078526,52.1925294 13.9034316,52.8355441 19.9743526,52.8355441" id="Stroke-31" stroke="#1A1919" stroke-width="1.867" stroke-linecap="round" stroke-linejoin="round"></path>
                </g>
                <g id="Group-36" transform="translate(171.000000, 18.000000)">
                    <path d="M26.7707953,23.9456036 L26.8952879,23.9784994 C26.2220701,28.9970526 23.8136169,31.8589922 21.5670041,33.3112475 C19.3069844,34.7644703 16.8956583,35.4959194 14.348348,35.4959194 C10.0648445,35.4959194 6.6403401,33.7950101 4.05568197,30.4425353 C1.49017655,27.0745801 0.228013005,23.0322598 0.228013005,18.3078343 C0.228013005,13.7585308 1.39058246,9.76071669 3.74157754,6.29407391 C6.57043271,2.12404031 10.481416,0.0341858903 15.4572899,0.0341858903 C18.7898613,0.0341858903 21.4511302,0.906893617 23.4343933,2.66004927 C25.3774357,4.40643225 26.3848682,6.36373572 26.3848682,8.50873908 C26.3848682,9.87391713 25.9759578,10.9691557 25.1696288,11.7799418 C24.3805371,12.5887928 23.3204347,13.0038611 22.0237963,13.0038611 C20.6553352,13.0038611 19.5358593,12.5462217 18.6385549,11.598047 C17.734547,10.6682553 17.1963559,8.99927436 16.9847184,6.60271445 C16.843946,5.10208287 16.5059007,4.04167525 15.9677096,3.44664726 C15.4362219,2.84484658 14.8108859,2.53910862 14.0859559,2.53910862 C12.9808445,2.53910862 12.0337431,3.14671445 11.237948,4.36579619 C10.029412,6.19635386 9.43280512,8.99927436 9.43280512,12.7842329 C9.43280512,15.9248197 9.8723598,18.9415633 10.870216,21.7976976 C13.7210967,29.8417021 24.2033746,29.5891781 26.7707953,23.9456036" id="Fill-33" fill="#1A1919"></path>
                    <path d="M26.7707953,23.9456036 L26.8952879,23.9784994 C26.2220701,28.9970526 23.8136169,31.8589922 21.5670041,33.3112475 C19.3069844,34.7644703 16.8956583,35.4959194 14.348348,35.4959194 C10.0648445,35.4959194 6.6403401,33.7950101 4.05568197,30.4425353 C1.49017655,27.0745801 0.228013005,23.0322598 0.228013005,18.3078343 C0.228013005,13.7585308 1.39058246,9.76071669 3.74157754,6.29407391 C6.57043271,2.12404031 10.481416,0.0341858903 15.4572899,0.0341858903 C18.7898613,0.0341858903 21.4511302,0.906893617 23.4343933,2.66004927 C25.3774357,4.40643225 26.3848682,6.36373572 26.3848682,8.50873908 C26.3848682,9.87391713 25.9759578,10.9691557 25.1696288,11.7799418 C24.3805371,12.5887928 23.3204347,13.0038611 22.0237963,13.0038611 C20.6553352,13.0038611 19.5358593,12.5462217 18.6385549,11.598047 C17.734547,10.6682553 17.1963559,8.99927436 16.9847184,6.60271445 C16.843946,5.10208287 16.5059007,4.04167525 15.9677096,3.44664726 C15.4362219,2.84484658 14.8108859,2.53910862 14.0859559,2.53910862 C12.9808445,2.53910862 12.0337431,3.14671445 11.237948,4.36579619 C10.029412,6.19635386 9.43280512,8.99927436 9.43280512,12.7842329 C9.43280512,15.9248197 9.8723598,18.9415633 10.870216,21.7976976 C13.7210967,29.8417021 24.2033746,29.5891781 26.7707953,23.9456036" id="Stroke-35" stroke="#1A1919" stroke-width="1.867" stroke-linecap="round" stroke-linejoin="round"></path>
                </g>
                <g id="Group-40" transform="translate(38.000000, 19.000000)">
                    <path d="M12.7431899,33.449142 L12.7431899,0.0422102273 L0.108173109,0.0422102273 C1.85235798,0.797551136 2.85128235,3.15823295 2.85128235,5.55272159 L2.85128235,25.9865284 C3.00957647,28.2998807 4.2189042,33.4452784 11.6626605,33.4452784 L11.6567613,33.449142 L12.7431899,33.449142" id="Fill-37" fill="#1A1919"></path>
                    <path d="M12.7431899,33.449142 L12.7431899,0.0422102273 L0.108173109,0.0422102273 C1.85235798,0.797551136 2.85128235,3.15823295 2.85128235,5.55272159 L2.85128235,25.9865284 C3.00957647,28.2998807 4.2189042,33.4452784 11.6626605,33.4452784 L11.6567613,33.449142 L12.7431899,33.449142" id="Stroke-39" stroke="#1A1919" stroke-width="1.867" stroke-linecap="round" stroke-linejoin="round"></path>
                </g>
                <g id="Group-44" transform="translate(108.000000, 19.000000)">
                    <path d="M11.9873538,33.449142 L11.9873538,0.0422102273 L0.5052,0.0422102273 C1.77996923,1.23027841 2.69566154,3.51465341 2.69566154,5.92073295 L2.69566154,25.9865284 C2.84612308,28.2998807 3.97504615,33.4452784 10.9553538,33.4452784 L10.9553538,33.449142 L11.9873538,33.449142" id="Fill-41" fill="#1A1919"></path>
                    <path d="M11.9873538,33.449142 L11.9873538,0.0422102273 L0.5052,0.0422102273 C1.77996923,1.23027841 2.69566154,3.51465341 2.69566154,5.92073295 L2.69566154,25.9865284 C2.84612308,28.2998807 3.97504615,33.4452784 10.9553538,33.4452784 L10.9553538,33.449142 L11.9873538,33.449142" id="Stroke-43" stroke="#1A1919" stroke-width="1.867" stroke-linecap="round" stroke-linejoin="round"></path>
                </g>
                <g id="Group-48" transform="translate(54.000000, 17.000000)">
                    <path d="M49.5762206,35.4451135 L49.5762206,14.3500865 C49.5762206,10.7354919 49.3319536,8.0928973 48.8079768,6.44370811 C48.2993266,4.79646486 47.3864383,3.42749189 46.0606909,2.3543027 C44.7378171,1.28305946 42.9685573,0.748897297 40.7375849,0.748897297 C38.8955239,0.748897297 37.1368012,1.2276 35.4700377,2.19376216 C33.764,3.15408649 32.0081509,4.71473514 30.1775849,6.88446486 C29.4284993,4.8168973 28.3364819,3.27181622 26.9321858,2.26673514 C25.5432163,1.25581622 23.8065254,0.748897297 21.7288186,0.748897297 C19.9394427,0.748897297 18.2870479,1.15170811 16.795582,1.95538378 C15.2811263,2.76100541 13.6459739,4.17181622 11.8757562,6.19268108 L11.8757562,1.79387027 L0.0168301887,1.79387027 C0.0168301887,1.79387027 2.22864441,2.79603243 2.22864441,5.80641081 L2.22864441,27.9279243 C2.38861538,30.2581946 3.57259216,35.4412216 10.8191814,35.4412216 L10.8191814,35.4451135 L11.8757562,35.4451135 L11.8757562,10.0145189 C13.0903861,8.23787027 14.2379623,6.97203243 15.315611,6.22673514 C16.0905602,5.72176216 16.9162787,5.48338378 17.8464093,5.48338378 C18.4623454,5.48338378 19.0572075,5.69646486 19.5869318,6.12943784 C20.1329405,6.56046486 20.5026938,7.16954595 20.7479187,7.93722162 C20.9797329,8.70100541 21.0831872,10.6236 21.0831872,13.6787351 L21.0831872,26.8216541 C21.0831872,26.8469514 21.0621132,27.2137622 21.0831872,27.7751676 C21.2067576,29.9935459 22.256627,35.4412216 29.6919245,35.4412216 L29.6919245,35.4451135 L30.7283832,35.4451135 L30.7283832,10.0145189 C31.7648418,8.50446486 32.7792685,7.36705946 33.7822003,6.61300541 C34.8004586,5.85505946 35.8024325,5.47754595 36.7833324,5.47754595 C37.4567431,5.47754595 38.0152046,5.67311351 38.5104441,6.07495135 C39.0037678,6.4728973 39.3677736,7.08684324 39.5928824,7.90511351 C39.8237388,8.71851892 39.9530566,10.6381946 39.9530566,13.6544108 L39.9530566,27.9279243 C40.1063222,30.2581946 41.2826357,35.4412216 48.5426357,35.4412216 L48.5225196,35.4451135 L49.5762206,35.4451135" id="Fill-45" fill="#1A1919"></path>
                    <path d="M49.5762206,35.4451135 L49.5762206,14.3500865 C49.5762206,10.7354919 49.3319536,8.0928973 48.8079768,6.44370811 C48.2993266,4.79646486 47.3864383,3.42749189 46.0606909,2.3543027 C44.7378171,1.28305946 42.9685573,0.748897297 40.7375849,0.748897297 C38.8955239,0.748897297 37.1368012,1.2276 35.4700377,2.19376216 C33.764,3.15408649 32.0081509,4.71473514 30.1775849,6.88446486 C29.4284993,4.8168973 28.3364819,3.27181622 26.9321858,2.26673514 C25.5432163,1.25581622 23.8065254,0.748897297 21.7288186,0.748897297 C19.9394427,0.748897297 18.2870479,1.15170811 16.795582,1.95538378 C15.2811263,2.76100541 13.6459739,4.17181622 11.8757562,6.19268108 L11.8757562,1.79387027 L0.0168301887,1.79387027 C0.0168301887,1.79387027 2.22864441,2.79603243 2.22864441,5.80641081 L2.22864441,27.9279243 C2.38861538,30.2581946 3.57259216,35.4412216 10.8191814,35.4412216 L10.8191814,35.4451135 L11.8757562,35.4451135 L11.8757562,10.0145189 C13.0903861,8.23787027 14.2379623,6.97203243 15.315611,6.22673514 C16.0905602,5.72176216 16.9162787,5.48338378 17.8464093,5.48338378 C18.4623454,5.48338378 19.0572075,5.69646486 19.5869318,6.12943784 C20.1329405,6.56046486 20.5026938,7.16954595 20.7479187,7.93722162 C20.9797329,8.70100541 21.0831872,10.6236 21.0831872,13.6787351 L21.0831872,26.8216541 C21.0831872,26.8469514 21.0621132,27.2137622 21.0831872,27.7751676 C21.2067576,29.9935459 22.256627,35.4412216 29.6919245,35.4412216 L29.6919245,35.4451135 L30.7283832,35.4451135 L30.7283832,10.0145189 C31.7648418,8.50446486 32.7792685,7.36705946 33.7822003,6.61300541 C34.8004586,5.85505946 35.8024325,5.47754595 36.7833324,5.47754595 C37.4567431,5.47754595 38.0152046,5.67311351 38.5104441,6.07495135 C39.0037678,6.4728973 39.3677736,7.08684324 39.5928824,7.90511351 C39.8237388,8.71851892 39.9530566,10.6381946 39.9530566,13.6544108 L39.9530566,27.9279243 C40.1063222,30.2581946 41.2826357,35.4412216 48.5426357,35.4412216 L48.5225196,35.4451135 L49.5762206,35.4451135" id="Stroke-47" stroke="#1A1919" stroke-width="1.867" stroke-linecap="round" stroke-linejoin="round"></path>
                </g>
                <g id="Group-52" transform="translate(123.000000, 3.000000)">
                    <path d="M12.8554487,49.4408824 L12.8554487,0.273235294 L0.410188235,0.273235294 C1.27048235,0.595784314 2.94977647,2.72323529 2.94977647,7.27029412 L2.94977647,40.7516667 L2.96550756,40.7497059 L2.94977647,40.7977451 L2.94977647,41.6516667 C3.05989412,43.8761765 4.10601176,49.4369608 11.7857345,49.4369608 L11.7857345,49.4408824 L12.8554487,49.4408824" id="Fill-49" fill="#1A1919"></path>
                    <path d="M12.8554487,49.4408824 L12.8554487,0.273235294 L0.410188235,0.273235294 C1.27048235,0.595784314 2.94977647,2.72323529 2.94977647,7.27029412 L2.94977647,40.7516667 L2.96550756,40.7497059 L2.94977647,40.7977451 L2.94977647,41.6516667 C3.05989412,43.8761765 4.10601176,49.4369608 11.7857345,49.4369608 L11.7857345,49.4408824 L12.8554487,49.4408824" id="Stroke-51" stroke="#1A1919" stroke-width="1.867" stroke-linecap="round" stroke-linejoin="round"></path>
                </g>
                <path d="M158.516286,45.1388078 C156.950813,46.5581831 155.365524,47.3183875 153.948672,47.3183875 C152.551636,47.3183875 151.299258,47.0672748 150.646317,46.4855958 C149.989413,45.9068595 149.623806,45.2025669 149.535624,43.8793207 C149.440507,42.5560746 149.589128,41.333862 151.404284,39.212156 C153.226375,37.0953545 155.663757,35.6367429 158.516286,33.9299613 L158.516286,45.1388078 Z M168.307427,45.7499141 L168.307427,30.5831 C168.307427,24.2513327 167.74564,22.4405748 164.402662,20.047157 C162.543911,18.7091972 160.055998,18 156.895328,18 C154.27762,18 151.769891,18.4227718 149.359261,19.2722389 C146.920888,20.1187633 145.02944,21.3350904 143.683926,22.9163156 C142.317606,24.5044072 141.651784,26.1641052 141.651784,27.9130658 C141.651784,29.1421447 142.158086,30.2142782 143.155827,31.1412372 C144.157532,32.0603488 145.425763,32.5194142 146.920888,32.5194142 C148.316933,32.5194142 149.463295,32.1035088 150.314397,31.2736599 C151.19126,30.4340018 151.622261,29.4167992 151.622261,28.2416703 C151.622261,27.2676277 151.171444,26.2680815 150.265848,25.217528 C149.609935,24.4789036 149.265134,23.8403319 149.265134,23.3332019 C149.265134,22.7515229 149.572284,22.2522403 150.193519,21.8020031 C151.19126,21.1006532 152.463455,20.758316 154.005148,20.758316 C154.949386,20.758316 155.804451,21.0035432 156.566381,21.4989022 C157.313448,21.9981849 157.839566,22.5798639 158.110056,23.245901 C158.390454,23.9119382 158.516286,25.5333807 158.516286,28.1023812 L158.516286,31.5149635 C150.876184,34.6470057 146.194628,35.8417528 143.318319,38.274407 C140.923542,40.3048885 139.885178,42.4736782 140.010019,45.1594069 C140.099192,47.0672748 140.65008,49.1624963 141.899486,50.448468 C143.389657,52.0159605 145.753719,52.9792131 147.588691,52.9792131 C151.339881,52.9792131 154.455965,51.5333533 158.516286,47.798052 C158.751107,49.6735499 159.419901,51.062517 160.475109,52.0159605 C161.861246,53.2264021 167.398858,52.9792131 167.398858,52.9792131 L169,52.9792131 C169,52.9792131 168.307427,49.780469 168.307427,45.7499141 Z" id="Fill-53" fill="#1A1919"></path>
                <path d="M158.516286,45.1388078 C156.950813,46.5581831 155.365524,47.3183875 153.948672,47.3183875 C152.551636,47.3183875 151.299258,47.0672748 150.646317,46.4855958 C149.989413,45.9068595 149.623806,45.2025669 149.535624,43.8793207 C149.440507,42.5560746 149.589128,41.333862 151.404284,39.212156 C153.226375,37.0953545 155.663757,35.6367429 158.516286,33.9299613 L158.516286,45.1388078 Z M168.307427,45.7499141 L168.307427,30.5831 C168.307427,24.2513327 167.74564,22.4405748 164.402662,20.047157 C162.543911,18.7091972 160.055998,18 156.895328,18 C154.27762,18 151.769891,18.4227718 149.359261,19.2722389 C146.920888,20.1187633 145.02944,21.3350904 143.683926,22.9163156 C142.317606,24.5044072 141.651784,26.1641052 141.651784,27.9130658 C141.651784,29.1421447 142.158086,30.2142782 143.155827,31.1412372 C144.157532,32.0603488 145.425763,32.5194142 146.920888,32.5194142 C148.316933,32.5194142 149.463295,32.1035088 150.314397,31.2736599 C151.19126,30.4340018 151.622261,29.4167992 151.622261,28.2416703 C151.622261,27.2676277 151.171444,26.2680815 150.265848,25.217528 C149.609935,24.4789036 149.265134,23.8403319 149.265134,23.3332019 C149.265134,22.7515229 149.572284,22.2522403 150.193519,21.8020031 C151.19126,21.1006532 152.463455,20.758316 154.005148,20.758316 C154.949386,20.758316 155.804451,21.0035432 156.566381,21.4989022 C157.313448,21.9981849 157.839566,22.5798639 158.110056,23.245901 C158.390454,23.9119382 158.516286,25.5333807 158.516286,28.1023812 L158.516286,31.5149635 C150.876184,34.6470057 146.194628,35.8417528 143.318319,38.274407 C140.923542,40.3048885 139.885178,42.4736782 140.010019,45.1594069 C140.099192,47.0672748 140.65008,49.1624963 141.899486,50.448468 C143.389657,52.0159605 145.753719,52.9792131 147.588691,52.9792131 C151.339881,52.9792131 154.455965,51.5333533 158.516286,47.798052 C158.751107,49.6735499 159.419901,51.062517 160.475109,52.0159605 C161.861246,53.2264021 167.398858,52.9792131 167.398858,52.9792131 L169,52.9792131 C169,52.9792131 168.307427,49.780469 168.307427,45.7499141 Z" id="Stroke-55" stroke="#1A1919" stroke-width="1.867" stroke-linecap="round" stroke-linejoin="round"></path>
                <path d="M41,11.495992 C41,13.9849699 43.0199376,16 45.5080196,16 C47.9850746,16 50,13.9849699 50,11.495992 C50,9.02004008 47.9850746,7 45.5080196,7 C43.0199376,7 41,9.02004008 41,11.495992" id="Fill-57" fill="#1A1919"></path>
                <path d="M41,11.495992 C41,13.9849699 43.0199376,16 45.5080196,16 C47.9850746,16 50,13.9849699 50,11.495992 C50,9.02004008 47.9850746,7 45.5080196,7 C43.0199376,7 41,9.02004008 41,11.495992 Z" id="Stroke-59" stroke="#1A1919" stroke-width="1.867" stroke-linecap="round" stroke-linejoin="round"></path>
                <path d="M112,11.495992 C112,13.9849699 114.009806,16 116.498997,16 C118.979162,16 121,13.9849699 121,11.495992 C121,9.02004008 118.979162,7 116.498997,7 C114.009806,7 112,9.02004008 112,11.495992" id="Fill-61" fill="#1A1919"></path>
                <path d="M112,11.495992 C112,13.9849699 114.009806,16 116.498997,16 C118.979162,16 121,13.9849699 121,11.495992 C121,9.02004008 118.979162,7 116.498997,7 C114.009806,7 112,9.02004008 112,11.495992 Z" id="Stroke-63" stroke="#1A1919" stroke-width="1.867" stroke-linecap="round" stroke-linejoin="round"></path>
                <path d="M201.899243,19.1629037 L202.573532,19.1629037 C203.002715,19.1629037 203.318851,19.0978851 203.318851,18.6197485 C203.318851,18.2006288 202.880663,18.1336096 202.538517,18.1336096 L201.899243,18.1336096 L201.899243,19.1629037 Z M201.139917,17.5264361 L202.584536,17.5264361 C203.538945,17.5264361 204.078176,17.8325236 204.078176,18.6857674 C204.078176,19.4079737 203.638988,19.689054 203.074746,19.7340669 L204.095184,21.4475564 L203.302844,21.4475564 L202.372445,19.7700772 L201.899243,19.7700772 L201.899243,21.4475564 L201.139917,21.4475564 L201.139917,17.5264361 Z M202.498499,22.2507859 C203.914106,22.2507859 205.068601,21.0914547 205.068601,19.4919977 C205.068601,17.8995427 203.914106,16.7492141 202.498499,16.7492141 C201.068887,16.7492141 199.930399,17.8995427 199.930399,19.4919977 C199.930399,21.0914547 201.068887,22.2507859 202.498499,22.2507859 Z M202.498499,16 C204.350293,16 206,17.3663904 206,19.4919977 C206,21.624607 204.350293,23 202.498499,23 C200.650707,23 199,21.624607 199,19.4919977 C199,17.3663904 200.650707,16 202.498499,16 Z" id="Fill-65" fill="#1A1919"></path>
                <path d="M19.7103028,53 C22.1714469,53 24.4105111,52.6528127 26.4217273,51.9643227 C28.4310207,51.2689674 30.1355552,50.294097 31.5535972,49.0485381 C32.9668322,47.7882679 34.0608877,46.2720207 34.8376863,44.4742968 C35.6135235,42.6853997 36,40.6836788 36,38.4848261 C36,35.3591599 35.3433745,32.740544 34.0551194,30.6505551 C32.7582118,28.5546817 31.1277039,26.7491118 29.1635956,25.2259993 C27.1994873,23.7225019 25.0959782,22.4239822 22.8367249,21.3490748 C20.5745874,20.2800518 18.4730011,19.2159326 16.511777,18.165544 C14.5563211,17.1112324 12.9219676,15.9500185 11.6250601,14.667191 C10.3223842,13.3922095 9.67633392,11.8298668 9.67633392,9.98604737 C9.67633392,7.58123612 10.3916039,5.77762768 11.8356033,4.56835677 C13.2719116,3.36987417 15.0177856,2.76474833 17.0693799,2.76474833 C18.7210383,2.76474833 20.328473,3.14822354 21.9339849,3.84946336 C26.3390482,5.77762768 32.0544784,11.5640822 33.0985419,16.4345115 L33.2417882,16.4345115 L33.2494793,2.35871577 L30.7806441,2.35871577 C29.9163596,2.35871577 28.9828553,2.24102517 27.9810928,2.00564397 C26.9764461,1.76535899 25.8996956,1.48290155 24.7643006,1.17102147 C23.6144849,0.854237602 22.4127544,0.588452998 21.1341131,0.347187269 C19.8573946,0.110825315 18.532607,0 17.1539817,0 C11.867329,0 7.91988463,1.0788305 5.31357154,3.25022206 C2.72071783,5.4373057 1.02195161,8.59925981 1.02195161,13.4137861 C1.02195161,16.1824574 2.07466752,18.8403035 3.40426214,20.7410067 C4.72904983,22.6299408 6.38263099,24.2707439 8.36692838,25.6438009 C10.3589168,27.0296077 12.4999199,28.257513 14.8130107,29.3334012 C17.1193719,30.3985011 19.2603749,31.5293116 21.251402,32.6738527 C23.2414677,33.8252591 24.8902419,35.1061251 26.2140683,36.5135085 C27.5398173,37.9277572 28.2012498,39.6715396 28.2012498,41.7703553 C28.2012498,43.3111214 27.9657106,44.5831606 27.4869412,45.5786269 C27.0014421,46.5897853 26.3178978,47.3734086 25.4247717,47.9491118 C24.5412594,48.5483531 23.4731614,48.9632124 22.2464349,49.2191895 C21.0100945,49.4800703 19.6439673,49.6036454 18.1307483,49.6036454 C16.2896972,49.6036454 14.465951,49.2103627 12.6806602,48.3943745 C6.85178657,45.7159326 1.65550393,38.721188 0.270149015,34.2901369 L0.0144207659,34.2901369 L0,50.3696151 L2.76398013,50.3696151 C3.73690114,50.3696151 4.78288736,50.5029978 5.91251402,50.7678016 C7.03348822,51.0394708 8.22079795,51.3886195 9.50905304,51.7014804 C12.2403461,52.3527017 13.7179939,53 19.7103028,53" id="Fill-67" fill="#EAB53C"></path>
                <path d="M197.87395,42.2743643 L198,42.3077595 C197.319328,47.4024883 194.881707,50.3078686 192.60892,51.7821674 C190.320621,53.2574484 187.879121,54 185.297996,54 C180.959922,54 177.491597,52.2693441 174.876535,48.8699116 C172.278927,45.4508349 171,41.347157 171,36.5510204 C171,31.9297173 172.177117,27.8741678 174.556561,24.3549056 C177.419845,20.1215759 181.382676,18 186.419845,18 C189.796057,18 192.488688,18.8859544 194.494829,20.6657208 C196.462185,22.4386118 197.483193,24.4256248 197.483193,26.5992579 C197.483193,27.9861399 197.071105,29.1009495 196.253717,29.9240423 C195.455721,30.7451708 194.381383,31.1665393 193.072398,31.1665393 C191.683904,31.1665393 190.55042,30.7019535 189.639948,29.7393867 C188.727537,28.7954818 188.179703,27.1001855 187.967356,24.6662665 C187.824822,23.1448216 187.484486,22.0683182 186.935682,21.4642584 C186.399483,20.8533231 185.765352,20.5429445 185.032321,20.5429445 C183.911441,20.5429445 182.953458,21.159773 182.148675,22.3953945 C180.923077,24.2557023 180.319974,27.1001855 180.319974,30.9435774 C180.319974,34.1298701 180.764059,37.1943687 181.777311,40.0938557 C184.661926,48.2599585 195.275372,48.0036014 197.87395,42.2743643" id="Fill-69" fill="#EAB53C"></path>
                <path d="M50,52 L50,19 L38,19 C39.6546572,19.7461401 40.6052447,22.0780663 40.6052447,24.4433875 L40.6052447,44.6282889 C40.756517,46.9134621 41.9059995,51.9961834 48.9719088,51.9961834 L48.9681737,52 L50,52" id="Fill-71" fill="#EAB53C"></path>
                <path d="M120,52 L120,19 L108,19 C109.332369,20.1735963 110.287506,22.4301451 110.287506,24.8069161 L110.287506,44.6282889 C110.446696,46.9134621 111.625663,51.9961834 118.920405,51.9961834 L118.920405,52 L120,52" id="Fill-73" fill="#EAB53C"></path>
                <path d="M104,53 L104,31.7214682 C104,28.074449 103.750672,25.409848 103.225922,23.7463126 C102.707938,22.0847401 101.788902,20.7038584 100.453352,19.6213336 C99.1187692,18.5407717 97.3328824,18 95.0831288,18 C93.2257291,18 91.4495062,18.4848298 89.7689557,19.4593966 C88.0478169,20.4261118 86.2764259,22.0022994 84.4286902,24.1909035 C83.6739404,22.1053502 82.5722569,20.5468286 81.1535979,19.5330043 C79.7542666,18.5113286 78.001237,18 75.9041729,18 C74.1018574,18 72.43387,18.4053334 70.9272696,19.2189445 C69.4023077,20.0315742 67.750749,21.4546576 65.9658285,23.4931019 L65.9658285,19.056026 L54,19.056026 C54,19.056026 56.233325,20.066906 56.233325,23.1034715 L56.233325,45.4174191 C56.3927791,47.7679603 57.5872359,52.9960743 64.8999014,52.9960743 L64.8999014,53 L65.9658285,53 L65.9658285,27.3481857 C67.1902433,25.5551007 68.3479773,24.2772699 69.4380641,23.5274522 C70.21794,23.017105 71.0519337,22.7776345 71.9893311,22.7776345 C72.6107192,22.7776345 73.2098804,22.9925691 73.7452599,23.4263642 C74.2961016,23.864085 74.6681613,24.4784645 74.9155569,25.2518367 C75.1494231,26.023246 75.2557259,27.9625652 75.2557259,31.0442768 L75.2557259,44.3015254 C75.2557259,44.323117 75.2315661,44.6970445 75.2557259,45.2613706 C75.3784573,47.5010095 76.4376196,52.9960743 83.9377645,52.9960743 L83.9377645,53 L84.9833974,53 L84.9833974,27.3481857 C86.0299967,25.8249958 87.0534027,24.6776961 88.0661783,23.9170826 C89.0924834,23.1525433 90.1062255,22.7717458 91.093875,22.7717458 C91.7722801,22.7717458 92.3366513,22.9690146 92.835308,23.3733666 C93.3339647,23.7757557 93.7011925,24.3950423 93.9302267,25.2204307 C94.1611937,26.0409119 94.293589,27.9772867 94.293589,31.0197409 L94.293589,45.4174191 C94.4424129,47.7679603 95.6320377,52.9960743 102.954367,52.9960743 L102.936972,53 L104,53" id="Fill-75" fill="#EAB53C"></path>
                <path d="M136,52 L136,3 L124,3 C124.830463,3.32144922 126.449676,5.44164623 126.449676,9.97320093 L126.449676,43.340412 L126.462948,43.3384579 L126.449676,43.3863333 L126.449676,44.2373432 C126.55301,46.4542681 127.562648,51.9960918 134.97235,51.9960918 L134.97235,52 L136,52" id="Fill-77" fill="#EAB53C"></path>
                <path d="M158.518184,45.1390281 C156.952551,46.5583636 155.369081,47.3185467 153.952084,47.3185467 C152.553914,47.3185467 151.298435,47.0674411 150.64939,46.4857784 C149.987464,45.9070583 149.624792,45.2027854 149.533629,43.8795764 C149.440484,42.5563673 149.592093,41.334189 151.408425,39.2125424 C153.22674,37.0958002 155.66239,35.6372295 158.518184,33.9304957 L158.518184,45.1390281 Z M168.313301,45.7501173 L168.313301,30.5837282 C168.313301,24.2521384 167.745512,22.4414312 164.404173,20.0480805 C162.548204,18.7081964 160.05409,18 156.898051,18 C154.278092,18 151.772088,18.4227599 149.357248,19.2731841 C146.919616,20.1196848 145.028965,21.3359778 143.686286,22.9171587 C142.313879,24.5032441 141.651954,26.1648572 141.651954,27.9137689 C141.651954,29.1428133 142.158307,30.2149168 143.158132,31.1418498 C144.156967,32.0609357 145.42731,32.5199882 146.919616,32.5199882 C148.316795,32.5199882 149.466247,32.1040945 150.314464,31.2742688 C151.193398,30.4346342 151.625434,29.4174602 151.625434,28.2413833 C151.625434,27.2663871 151.170608,26.2688307 150.264918,25.2183066 C149.61092,24.4797029 149.267075,23.8411491 149.267075,23.3320716 C149.267075,22.7523707 149.572274,22.2521211 150.194564,21.8028774 C151.193398,21.1015472 152.466714,20.7592195 154.005593,20.7592195 C154.950918,20.7592195 155.803099,21.0044399 156.566097,21.499785 C157.318196,21.9990537 157.840404,22.5807164 158.110921,23.245754 C158.390357,23.9127534 158.518184,25.5331696 158.518184,28.1020981 L158.518184,31.5155656 C150.877299,34.6455583 146.19229,35.8422337 143.318659,38.2748197 C140.923637,40.3052443 139.885166,42.4739732 140.01002,45.1576649 C140.099202,47.0674411 140.649155,49.1626039 141.898689,50.4485395 C143.388023,52.015988 145.753318,52.9792136 147.593433,52.9792136 C151.340053,52.9792136 154.459428,51.5333944 158.518184,47.7981978 C158.75402,49.6736431 159.41991,51.0625713 160.478198,52.015988 C161.864478,53.2263958 167.400676,52.9792136 167.400676,52.9792136 L169,52.9792136 C169,52.9792136 168.313301,49.7805592 168.313301,45.7501173 Z" id="Fill-79" fill="#EAB53C"></path>
                <path d="M41,11.4969933 C41,13.9865256 43.0179327,16 45.5060147,16 C47.9850746,16 50,13.9865256 50,11.4969933 C50,9.02048998 47.9850746,7 45.5060147,7 C43.0179327,7 41,9.02048998 41,11.4969933" id="Fill-81" fill="#EAB53C"></path>
                <path d="M112,11.4969933 C112,13.9865256 114.008803,16 116.5,16 C118.981168,16 121,13.9865256 121,11.4969933 C121,9.02048998 118.981168,7 116.5,7 C114.008803,7 112,9.02048998 112,11.4969933" id="Fill-83" fill="#EAB53C"></path>
                <path d="M34.1835068,30.345754 C32.9465203,28.3733519 31.3677981,26.6537971 29.4935468,25.2171211 C27.5605747,23.7562261 25.4793568,22.4939275 23.3163149,21.4844762 C21.1446092,20.4682435 19.0017827,19.4055101 16.9427054,18.3185577 C14.907694,17.2364491 13.1951654,16.0284013 11.8580647,14.7225084 C10.3871577,13.3032702 9.64207787,11.5352772 9.64207787,9.47762393 C9.64207787,7.70091206 10.0290573,6.20707906 10.779913,5 C9.60646035,6.3194556 9,8.10682387 9,10.336917 C9,12.395539 9.74796777,14.1557819 11.2198374,15.5818014 C12.5540502,16.8838193 14.2646535,18.0947734 16.3015901,19.176882 C18.364518,20.2618969 20.5073446,21.3246302 22.6771249,22.3360191 C24.8401669,23.351283 26.9223474,24.6106753 28.8553195,26.0744766 C30.7295707,27.5063088 32.3092556,29.2316762 33.5443169,31.2079533 C34.7504991,33.1309484 35.36081,35.5838571 35.36081,38.4843344 C35.36081,40.5342375 34.9930833,42.4087945 34.2682188,44.051817 C33.9630633,44.7483578 33.5962992,45.3906479 33.1891044,46 C33.8735382,45.1552384 34.4520821,44.2397571 34.9102966,43.1934927 C35.6322732,41.5475639 36,39.6759132 36,37.6289164 C36,34.7255328 35.3877638,32.2745617 34.1835068,30.345754" id="Fill-85" fill="#1A1919"></path>
                <path d="M5.44425029,5.06097561 C7.90590766,2.96036585 11.7621144,1.69308943 16.8969017,1.69308943 C18.2398011,1.69308943 19.5466429,1.80894309 20.7784461,2.04065041 C22.0901606,2.28963415 23.2673903,2.56504065 24.3880973,2.8800813 C25.5507091,3.20731707 26.6470529,3.50304878 27.6781034,3.75304878 C28.7432623,4.0101626 29.765542,4.14430894 30.7186303,4.14430894 L32.353888,4.14430894 L32.3460918,11.9390244 C32.5741313,12.2957317 32.791451,12.6422764 32.9941528,13 L33,3.44715447 L31.3579206,3.44715447 C30.4126285,3.44715447 29.3913233,3.31402439 28.3242153,3.05589431 C27.2960884,2.80589431 26.1977956,2.5152439 25.0371329,2.18191057 C23.9144768,1.86686992 22.7362726,1.59552846 21.4255326,1.34349593 C20.1927549,1.12093496 18.8829894,1 17.5449627,1 C12.4082264,1 8.55201962,2.06808943 6.09231131,4.16260163 C5.25908999,4.8800813 4.57302238,5.69613821 4,6.57926829 C4.43171584,6.03658537 4.90533638,5.52743902 5.44425029,5.06097561" id="Fill-87" fill="#1A1919"></path>
                <path d="M11.6865291,49.7502931 C13.5392021,50.5799385 15.4601415,51 17.4057326,51 C18.9474145,51 20.3686821,50.8695047 21.6316097,50.6094666 C22.9732332,50.3313306 24.1299686,49.8741208 25.0648385,49.2511723 C25.846109,48.7453839 26.4927431,48.2748388 27,47.4747216 C26.6188462,47.910976 26.1817519,48.2862691 25.6925097,48.6044109 C24.7576399,49.2187866 23.604697,49.675044 22.2583327,49.9560375 C20.9973014,50.2122655 19.5788783,50.3456184 18.0353001,50.3456184 C16.0916053,50.3456184 14.1678215,49.9255569 12.3179929,49.0940064 C7.75931734,47.0327521 3.36656699,42.271102 1.00379258,38 L1,39.7145369 C3.4642258,43.685595 7.50426665,47.8566823 11.6865291,49.7502931" id="Fill-89" fill="#1A1919"></path>
                <path d="M186.458274,19.596365 C189.575709,19.596365 192.073494,20.3953048 193.88832,21.9581598 C195.659983,23.505869 196.549171,25.2211284 196.549171,27.0509277 C196.549171,27.8233624 196.400493,28.4661113 196.091627,29 C196.701685,28.3686104 197,27.5384324 197,26.4507762 C197,24.6238167 196.107934,22.9113972 194.335313,21.3646346 C192.522404,19.7979932 190.021742,19 186.906226,19 C182.249258,19 178.680035,20.8250663 176,24.5802726 C178.623441,21.2311624 182.058375,19.596365 186.458274,19.596365" id="Fill-91" fill="#1A1919"></path>
                <path d="M181.198929,39.6523382 C180.178992,36.8918281 179.659082,33.8403401 179.659082,30.5696741 C179.659082,26.7406708 180.306235,23.9367029 181.608494,22 C181.407688,22.2182333 181.210858,22.4525272 181.022975,22.7208314 C179.663058,24.6603684 179,27.5030704 179,31.4048181 C179,34.6735947 179.517921,37.7307511 180.543823,40.4931507 C182.386867,45.3821445 186.869222,47.1289561 190.448942,47.1289561 C192.689623,47.1289561 194.767272,46.4714218 196.339924,45.3538026 C195.940299,46.3996221 195.444248,47.2725555 194.91738,48 C195.684818,47.1346245 196.438339,46.0009447 197,44.516769 C195.427349,45.635333 193.350693,46.2862541 191.109019,46.2862541 C187.524328,46.2862541 183.047937,44.5479452 181.198929,39.6523382" id="Fill-93" fill="#1A1919"></path>
                <path d="M40,19 C40.1734176,19.269178 40.3207293,19.365731 40.4633793,19.6709945 L48.3771884,19.6709945 L48.3771884,50.9834202 C48.5226355,50.986346 48.6522325,51 48.7976795,51 L49,51 L49,19 L40,19 Z" id="Fill-95" fill="#1A1919"></path>
                <path d="M111,19 C111.154036,19.2721039 111.284875,19.3764591 111.415713,19.6709945 L119.381998,19.6709945 L119.381998,50.9834202 C119.519332,50.986346 119.641819,51 119.779152,51 L120,51 L120,19 L111,19 Z" id="Fill-97" fill="#1A1919"></path>
                <path d="M65,27.8462947 L65,50.9837618 C65.149,50.9866274 65.292,51 65.444,51 L65.665,51 L65.665,27 L65,27.8462947 Z" id="Fill-99" fill="#1A1919"></path>
                <path d="M84,27.8462947 L84,50.9837618 C84.153,50.9866274 84.299,51 84.462,51 L84.661,51 L84.661,27 L84,27.8462947 Z" id="Fill-101" fill="#1A1919"></path>
                <path d="M126,5 C126.144459,5.25745173 126.280584,5.3526603 126.408375,5.66840299 L134.38327,5.66840299 L134.38327,51.9844557 C134.527729,51.9873703 134.66015,52 134.81387,52 L135,52 L135,5 L126,5 Z" id="Fill-103" fill="#1A1919"></path>
                <path d="M149.892405,30.9904963 C150.639241,30.2671595 151,29.4171067 151,28.3959873 C151,27.5755016 150.598101,26.7106653 149.78903,25.7592397 C148.912447,24.7666315 148.491561,23.9007392 148.491561,23.1108765 C148.491561,22.7170011 148.590717,22.3537487 148.757384,22 C148.125527,22.5997888 148,23.0707497 148,23.8373812 C148,24.6272439 148.419831,25.4941922 149.295359,26.4794087 C150.107595,27.4340021 150.509494,28.3030623 150.509494,29.1224921 C150.509494,29.7370644 150.154008,30.4952482 149.879747,31 C149.887131,30.9947202 149.89135,30.9947202 149.892405,30.9904963" id="Fill-105" fill="#1A1919"></path>
                <path d="M143.232004,39.6744736 C145.042719,38.0165522 147.858862,36.7548699 151.858862,35.1182299 C153.458107,34.4605337 158,32.4276545 158,32.4276545 L158,32 C155.866415,32.9394212 153.96979,33.712645 152.298796,34.3997298 C148.304461,36.0363698 145.668633,37.1156401 143.857918,38.7735615 C143.068681,39.5021957 142.454095,40.2318433 142,41 C142.34836,40.5541043 142.757139,40.1142889 143.232004,39.6744736" id="Fill-107" fill="#1A1919"></path>
                <path d="M144.155155,24.1883301 C145.384615,22.7429609 147.153191,21.6102355 149.402946,20.822295 C151.686088,20.0216929 154.1018,19.6087303 156.587234,19.6087303 C159.474304,19.6087303 161.805565,20.2408358 163.514239,21.4797237 C166.501473,23.6263503 167.030769,25.0853551 167.030769,31.2476536 L167.030769,46.3042323 C167.030769,48.6300691 167.2527,50.6695591 167.452046,52 L167.45401,52 L168,52 C167.787889,50.7279972 167.489362,48.4070303 167.489362,45.6886843 L167.489362,30.6291836 C167.489362,24.4707809 166.962029,23.0127501 163.969885,20.8593058 C162.262193,19.6243138 159.930933,19 157.045827,19 C154.563339,19 152.142717,19.4071188 149.863502,20.2086949 C147.605892,20.9966354 145.842226,22.1225429 144.612766,23.573756 C144.384943,23.8406233 144.179705,24.1113866 144,24.3792279 C144.053028,24.313972 144.10311,24.252612 144.155155,24.1883301" id="Fill-109" fill="#1A1919"></path>
                <path d="M148.020394,43.8736497 C148.12585,45.2948528 148.554772,46.2223046 149.45622,46.980089 C150.457039,47.8198475 152.174757,48 153.437189,48 C155.108263,48 156.927381,47.1897903 158.712024,45.6627833 L159,45.4140013 L159,45.1280449 C157.346164,46.4510697 155.661908,47.1554755 154.109472,47.1554755 C152.848054,47.1554755 151.128308,46.980089 150.131544,46.1346113 C149.227055,45.3834993 148.799147,44.4522347 148.691663,43.0291252 C148.598374,41.6975217 148.806245,40.542258 149.926716,39 C148.207984,40.9864436 147.909868,42.318047 148.020394,43.8736497" id="Fill-111" fill="#1A1919"></path>
                <path d="M115.355031,8.62560186 C117.135861,8.62560186 118.585249,10.2374232 118.585249,12.2238087 C118.585249,12.8673419 118.426695,13.4770048 118.149,14 C118.674828,13.3584592 119,12.5196746 119,11.5852565 C119,9.61281753 117.553299,8 115.774261,8 C114.586444,8 113.56166,8.72721235 113,9.78814544 C113.584055,9.07886435 114.421618,8.62560186 115.355031,8.62560186" id="Fill-113" fill="#1A1919"></path>
                <path d="M45.3550314,8.62560186 C47.1340699,8.62560186 48.582562,10.2374232 48.582562,12.2238087 C48.582562,12.8673419 48.4240072,13.4770048 48.1507913,14 C48.6739325,13.3584592 49,12.5196746 49,11.5852565 C49,9.61281753 47.5506121,8 45.7733652,8 C44.5855479,8 43.558077,8.72721235 43,9.78814544 C43.5840549,9.07886435 44.4207226,8.62560186 45.3550314,8.62560186" id="Fill-115" fill="#1A1919"></path>
                <path d="M65.3519922,25 C65.5156994,24.8321291 65.7368991,24.6098386 66,24.3534204 L66,19 L57,19 C57.1705284,19.2379708 57.3215678,19.3366641 57.4540927,19.6345888 L65.3519922,19.6345888 L65.3519922,25 Z" id="Fill-117" fill="#1A1919"></path>
                <path d="M83.5431755,24.8602508 C82.8755803,22.875096 81.9127205,21.3834144 80.6833798,20.427182 C79.4874652,19.4770924 77.9517177,19 76.1197772,19 C74.5181058,19 73.0399257,19.3880215 71.7158774,20.1640645 C70.8737233,20.6472997 69.9619313,21.3895572 69,22.3713847 C69.6536676,21.8758638 70.4995357,21.3199386 71.4753946,20.864346 C72.7047354,20.2285641 74.0510678,19.9040184 75.5051068,19.9040184 C77.3370474,19.9040184 78.8727948,20.3821346 80.0696379,21.3250576 C81.3017642,22.2874328 82.2599814,23.7780906 82.9257196,25.7683645 L83.3379759,27 C83.457753,26.8576913 83.6926648,26.5822882 84,26.2270284 L83.5431755,24.8602508 Z" id="Fill-119" fill="#1A1919"></path>
                <path d="M103.282961,24.0940055 C102.830791,22.6106077 102.01348,21.3755792 100.843325,20.41814 C99.6854677,19.4587527 98.135982,19 96.1106775,19 C94.4457846,19 92.8338654,19.4441427 91.3193804,20.3353502 C90.2551732,20.9421505 89.1446139,21.8265399 88,22.9778047 C88.6167672,22.4606121 89.7055694,21.6375845 91.0999172,20.9674744 C92.497103,20.2350285 93.9671278,19.8600396 95.4844508,19.8600396 C97.514485,19.8600396 99.0601868,20.3236622 100.221828,21.2791535 C101.384415,22.2356188 102.201726,23.4706473 102.654842,24.955019 C103.126877,26.4871167 103.373773,29.0594433 103.373773,32.6135592 L103.373773,51.984416 C103.524181,51.987338 103.659454,52 103.816483,52 L104,52 L104,31.7505977 C104,28.1964818 103.762564,25.6270771 103.282961,24.0940055" id="Fill-121" fill="#1A1919"></path>
                <path d="M48.980062,69.1328212 C50.6720448,69.1328212 52.0750333,68.7023641 53.1480218,67.8385413 C54.3459807,66.8147513 54.9688803,65.3285107 54.962046,63.3410396 C54.962046,62.4840033 54.8878448,61.7210083 54.7042944,61.0627191 C54.0540576,58.7417406 52.3786725,57.5851294 49.7181688,57.5851294 L48.4733459,57.5851294 C47.7459788,57.5851294 47.1601799,58.2133642 47.1142923,58.9084943 C47.1357716,59.1091804 47.1230793,62.5150272 47.1103869,69.1328212 L48.980062,69.1328212 Z M47.1357716,70.8207174 L47.1142923,78.2654933 C47.0937893,79.5520173 47.2587893,80.3819077 47.5155646,80.6776046 C47.8250617,81.0411664 48.43234,81.2379745 49.3500917,81.3077784 L49.3725474,82 L39.0322189,82 L39.0449113,81.3077784 C39.9616867,81.2379745 40.5611543,81.0411664 40.8481958,80.709598 C41.13719,80.3819077 41.2836397,79.5520173 41.2680184,78.2654933 L41.2504444,59.7044522 C41.2680184,58.4130808 41.1059473,57.5851294 40.8481958,57.2894325 C40.5055034,56.9239317 39.8952961,56.7271236 39.0214793,56.6902826 L39,56 L52.8346193,56 C56.7418986,56 59.8876391,58.0834514 60.7673139,61.2275337 C60.926456,61.7898426 60.9987045,62.4161384 60.9996809,63.0453427 C61.0201838,65.3285107 60.0526392,67.1802521 58.1409818,68.6344992 C56.2351825,70.0897159 53.8451226,70.8207174 50.9737312,70.8207174 L47.1357716,70.8207174 Z" id="Fill-123" fill="#EAB53C"></path>
                <path d="M80.8230684,67.3053565 C80.9550187,67.7844667 81.0244148,68.2998885 80.9921603,68.8183363 C80.9423124,70.3030737 79.656041,71.5709508 78.1430106,71.6042363 C76.9065872,71.6405479 75.8470749,70.9183522 75.5577616,69.8501885 C75.3055899,68.9212189 75.5675357,68.0971492 76.3435991,67.3729362 C76.5283296,67.1651537 76.6387769,66.9291288 76.6407317,66.6840261 C76.6211835,66.1000159 76.1676653,65.8246536 75.2928835,65.7903594 C74.5637358,65.7903594 73.8521814,66.1000159 73.0751406,66.6840261 C72.1788558,67.338642 71.5181267,68.2302914 71.0538571,69.3347667 L71.0460378,79.0410363 C71.0352863,79.9014174 71.1076146,80.557042 71.2297908,81.0008494 C71.439934,81.7946594 72.1514883,82.2435101 73.3468605,82.3100812 L73.3585895,83 L70.4156084,83 C67.6710416,82.9636885 66.0182416,81.9661305 65.4699147,79.9357116 C65.3672866,79.5574667 65.3076646,79.2125073 65.3115743,78.8362797 L65.3330773,68.2686203 C65.3272128,67.4758189 65.2715005,66.8928173 65.1590983,66.4802782 C64.9274522,65.6188884 64.2080786,65.1367521 63.0127063,65.0681637 L63,64.3822796 L71.0313766,64.3822796 L71.0401733,66.5811435 C72.4779432,64.8623985 74.0818727,64 75.8470749,64 C78.3756342,64 80.2659448,65.2386261 80.8230684,67.3053565" id="Fill-125" fill="#EAB53C"></path>
                <path d="M89.3520878,67.7516555 C88.9034362,69.1039157 88.6496438,70.7939934 88.5954634,72.8575525 C89.0916417,72.8218885 89.5421945,72.7535325 89.9889451,72.6534752 C92.3491191,72.2819751 93.5420383,70.8316388 93.5439393,68.3262422 C93.5382361,67.9210595 93.4983137,67.5178581 93.3994583,67.143386 C93.0810297,65.9595391 92.4574799,65.3839616 91.4822328,65.3839616 C90.6039401,65.3839616 89.9033971,66.1626258 89.3520878,67.7516555 Z M99,78.7718338 C97.3574786,81.578393 94.7758304,83 91.2065782,83 C87.3331553,83 84.3636895,80.4619115 83.3542232,76.677564 C83.1013814,75.7294958 82.97401,74.7487356 83.004427,73.736274 C82.9930206,70.7939934 83.7743589,68.4282809 85.3332334,66.7025392 C86.9786064,64.9143855 89.2256669,64 92.1533092,64 C93.4327269,64 94.6351515,64.3378174 95.7814945,64.9807602 C97.081824,65.6900777 97.8660139,66.6024819 98.1730361,67.7516555 C98.2633368,68.0914542 98.2871001,68.4282809 98.2842485,68.799781 C98.2661884,70.1193493 97.4886522,71.2338495 95.9668485,72.2136191 C94.1979062,73.3964753 91.7293714,74.0057354 88.5831065,74.0731008 C88.5717001,75.1558997 88.6620007,76.1366599 88.897733,77.0114187 C89.2313701,78.2646123 89.7893331,79.2106992 90.5849294,79.921998 C91.2959283,80.5669222 92.1361996,80.9364409 93.0952877,81.0028156 C94.0135027,81.0384796 94.9858982,80.7650555 95.9934634,80.1221127 C97.0000781,79.4831326 97.741494,78.7391418 98.1673329,77.9267949 L99,78.7718338 Z" id="Fill-127" fill="#EAB53C"></path>
                <path d="M130.671942,79.0410363 C130.657189,79.9024261 130.733906,80.557042 130.853898,81.0008494 C131.069295,81.7946594 131.781384,82.2435101 132.987214,82.3100812 L133,83 L130.03657,83 C127.277718,82.9646971 125.612572,81.9661305 125.056867,79.9367203 C124.958512,79.5584753 124.897532,79.2125073 124.90245,78.8362797 L124.91622,69.0251102 C124.91917,68.6468652 124.869009,68.3372087 124.796227,68.0638637 C124.5228,67.0622711 123.892346,66.5488666 122.886177,66.5488666 C121.667561,66.5488666 120.487303,67.338642 119.395565,68.9545044 C119.367042,68.9908159 119.377861,69.0251102 119.384746,69.0594044 L119.381795,79.0410363 C119.370976,79.9024261 119.44671,80.557042 119.564735,81.0008494 C119.781116,81.7946594 120.495172,82.2435101 121.701001,82.3100812 L121.71182,83 L118.748391,83 C115.988555,82.9646971 114.324392,81.9661305 113.769671,79.9367203 C113.669349,79.5584753 113.610336,79.2125073 113.613287,78.8362797 L113.594599,69.0251102 C113.599517,68.6468652 113.58083,68.3372087 113.507064,68.0638637 C113.235604,67.0622711 112.607117,66.5488666 111.597997,66.5488666 C110.378398,66.5488666 109.202074,67.338642 108.106402,68.9545044 L108.093616,79.0410363 C108.084764,79.9024261 108.121155,80.557042 108.242132,81.0008494 C108.458512,81.7946594 109.171584,82.2435101 110.409871,82.3100812 L110.388233,83 L107.42677,83 C104.665951,82.9646971 103.000805,81.9661305 102.447067,79.9367203 C102.345762,79.5584753 102.32019,79.2125073 102.324124,78.8362797 L102.343795,68.2686203 C102.337893,67.4758189 102.283798,66.8928173 102.171674,66.4802782 C101.938573,65.6188884 101.214682,65.1367521 100.012786,65.0681637 L100,64.3822796 L108.082797,64.3822796 L108.070994,66.7899347 C109.728273,64.9309869 111.743562,64 114.110962,64 C115.120082,64 116.101663,64.2753623 116.973087,64.7917927 C117.968437,65.3778202 118.672657,66.1686043 119.057225,67.1984392 C119.643419,66.4096725 120.433208,65.7197537 121.423641,65.1367521 C122.714056,64.3822796 124.039878,64 125.400125,64 C126.513501,64 127.537375,64.3116738 128.464861,64.8966927 C129.512339,65.5492913 130.182135,66.4802782 130.492936,67.6140044 C130.61588,68.0638637 130.672926,68.5429739 130.672926,69.0594044 L130.671942,79.0410363 Z" id="Fill-129" fill="#EAB53C"></path>
                <path d="M135.277526,60.6465708 C135.024887,59.7005405 135.200226,58.8554464 135.770551,58.1132679 C136.343703,57.3691101 137.114819,57 138.016026,57 C139.350867,57 140.462293,57.9113953 140.782805,59.1255995 C141.034502,60.0696506 140.860106,60.9147446 140.286953,61.6569232 C139.715686,62.4000913 138.947398,62.7711806 138.013198,62.7711806 C136.71135,62.7711806 135.609351,61.8954099 135.277526,60.6465708 Z M140.139894,83 C137.493778,82.965365 135.898756,81.9856893 135.36991,79.9946715 C135.270928,79.6235822 135.248303,79.2841592 135.250189,78.9150491 L135.236048,68.5473091 C135.265271,67.769506 135.211538,67.1975337 135.104072,66.792799 C134.881599,65.947705 134.185897,65.4746898 133,65.4083885 L133.021682,64.7344904 L140.76678,64.7344904 L140.779977,79.1159321 C140.771493,79.9610261 140.808258,80.603258 140.923265,81.0386694 C141.131599,81.8184517 141.81316,82.2578214 143,82.3231331 L142.979261,83 L140.139894,83 Z" id="Fill-131" fill="#EAB53C"></path>
                <path d="M163.805379,80.6213432 C164.024543,81.4152376 164.745789,81.8631272 166,81.9307141 L165.97908,82.6196974 L162.980529,82.6196974 C160.357544,82.5843908 158.733744,81.6916379 158.0643,79.8970534 C157.436696,80.6909477 156.628781,81.3476507 155.658486,81.9307141 C154.412244,82.6529865 153.094276,83 151.719525,83 C150.624706,83 149.587665,82.6893018 148.651241,82.1022033 C147.586307,81.4495354 146.872034,80.5174409 146.552255,79.3462702 C146.426734,78.9024157 146.374932,78.4565437 146.374932,77.9380409 L146.363974,67.8877621 C146.391867,67.0948766 146.338073,66.5118131 146.222514,66.0992302 C145.982431,65.2377489 145.250226,64.7545527 144,64.6869658 L144.022913,64 L152.208658,64 L152.205669,77.9723387 C152.196703,78.3183435 152.245517,78.6280329 152.328201,78.9367136 C152.605144,79.9343775 153.232748,80.4195912 154.254845,80.4195912 C155.490129,80.4195912 156.684568,79.6267056 157.81027,78.076241 L157.795327,67.8877621 C157.82322,67.0948766 157.770422,66.5118131 157.657852,66.0992302 C157.416772,65.2377489 156.684568,64.7545527 155.434342,64.6869658 L155.451277,64 L163.642999,64 L163.652961,78.661322 C163.642999,79.5217945 163.680855,80.1774887 163.805379,80.6213432" id="Fill-133" fill="#EAB53C"></path>
                <path d="M196.672081,79.0410363 C196.658312,79.9024261 196.734041,80.557042 196.852059,81.0008494 C197.068427,81.7946594 197.785391,82.2435101 198.987215,82.3100812 L199,83 L196.03773,83 C193.276092,82.9646971 191.613012,81.9661305 191.061274,79.9367203 C190.958008,79.5584753 190.898015,79.2125073 190.9049,78.8362797 L190.916701,69.0251102 C190.920635,68.6468652 190.871461,68.3372087 190.794749,68.0638637 C190.522322,67.0622711 189.896823,66.5488666 188.885796,66.5488666 C187.668236,66.5488666 186.488049,67.338642 185.396376,68.9545044 C185.368838,68.9908159 185.38064,69.0251102 185.384574,69.0594044 L185.383591,79.0410363 C185.370805,79.9024261 185.446534,80.557042 185.567503,81.0008494 C185.781904,81.7946594 186.496901,82.2435101 187.699708,82.3100812 L187.71151,83 L184.75219,83 C181.988586,82.9646971 180.325505,81.9661305 179.770817,79.9367203 C179.671485,79.5584753 179.611492,79.2125073 179.615426,78.8362797 L179.595756,69.0251102 C179.597723,68.6468652 179.581987,68.3372087 179.507242,68.0638637 C179.233832,67.0622711 178.608333,66.5488666 177.599273,66.5488666 C176.379746,66.5488666 175.201526,67.338642 174.108869,68.9545044 L174.096084,79.0410363 C174.086249,79.9024261 174.123622,80.557042 174.242624,81.0008494 C174.458008,81.7946594 175.176939,82.2435101 176.410234,82.3100812 L176.389581,83 L173.429278,83 C170.668624,82.9646971 169.00456,81.9661305 168.448888,79.9367203 C168.346605,79.5584753 168.323002,79.2125073 168.325952,78.8362797 L168.343655,68.2686203 C168.337754,67.4758189 168.284646,66.8928173 168.172528,66.4802782 C167.940424,65.6188884 167.218543,65.1367521 166.013769,65.0681637 L166,64.3822796 L174.083299,64.3822796 L174.07248,66.7899347 C175.731627,64.9309869 177.742862,64 180.114055,64 C181.122131,64 182.103654,64.2753623 182.972075,64.7917927 C183.972283,65.3778202 184.672528,66.1686043 185.057072,67.1984392 C185.641265,66.4096725 186.434941,65.7197537 187.426298,65.1367521 C188.715652,64.3822796 190.041396,64 191.400578,64 C192.515855,64 193.536717,64.3116738 194.464147,64.8966927 C195.51353,65.5492913 196.182303,66.4802782 196.491119,67.6140044 C196.613071,68.0638637 196.675031,68.5429739 196.675031,69.0594044 L196.672081,79.0410363 Z" id="Fill-135" fill="#EAB53C"></path>
            </g>
        </g>
    </g>
</svg>