<svg xmlns="http://www.w3.org/2000/svg" xmlns:xlink="http://www.w3.org/1999/xlink" width="75" height="75" viewBox="0 0 75 75">
    <defs>
        <path id="a" d="M0 42h27.594V.289H0z"/>
    </defs>
    <g fill="none" fill-rule="evenodd" transform="translate(3 3)">
        <circle cx="34.5" cy="34.5" r="34.5" fill="#FEFAE4" stroke="#FFF" stroke-width="5"/>
        <g transform="translate(20 13)">
            <mask id="b" fill="#fff">
                <use xlink:href="#a"/>
            </mask>
            <path fill="#B59647" d="M14.466 40.727c-5.918 0-11.596-1.286-13.222-1.687v-8.36c1.759 1.207 5.79 3.316 12.552 3.316 6.92 0 10.917-1.731 12.554-2.651v7.72c-1.394.416-6.06 1.662-11.884 1.662zm11.872-23.326l-.115 12.543c-.962.62-4.848 2.78-12.427 2.78-7.66 0-11.657-2.887-12.546-3.618V17.403c1.252-.726 6.377-3.458 12.546-3.458 6.163 0 11.284 2.727 12.542 3.456zM14.186 6.997c6.552.139 10.685 1.231 12.164 1.695v7.263c-1.954-1.058-6.75-3.282-12.554-3.282-5.802 0-10.595 2.222-12.552 3.28v-7.27c1.607-.527 6.271-1.827 12.942-1.686zm13.13-4.53C27.174 2.37 23.695.07 13.783.305 3.922.535.472 2.358.329 2.435l-.33.18v37.41l.463.126c.068.019 6.86 1.85 14.004 1.85 7.165 0 12.48-1.785 12.703-1.861l.425-.144V2.656l-.277-.189z" mask="url(#b)"/>
        </g>
        <path fill="#B59647" d="M32.706 40.807c0-.62.444-1.053 1.065-1.053.62 0 1.047.434 1.047 1.053 0 .586-.409 1.036-1.065 1.036-.62 0-1.047-.45-1.047-1.036zm.39-2.342l-.035-.434c-.106-.902.213-1.89 1.1-2.893.798-.887 1.242-1.539 1.242-2.29 0-.854-.568-1.422-1.686-1.438-.637 0-1.348.2-1.792.517l-.425-1.052c.585-.402 1.596-.67 2.537-.67 2.04 0 2.963 1.187 2.963 2.458 0 1.138-.674 1.957-1.525 2.91-.782.87-1.066 1.606-1.012 2.458l.018.434h-1.385z"/>
    </g>
</svg>
