<svg xmlns="http://www.w3.org/2000/svg" xmlns:xlink="http://www.w3.org/1999/xlink" width="42" height="62" viewBox="0 0 42 62">
    <defs>
        <path id="a" d="M0 62h41.39V.426H0z"/>
    </defs>
    <g fill="none" fill-rule="evenodd">
        <g>
            <mask id="b" fill="#fff">
                <use xlink:href="#a"/>
            </mask>
            <path fill="#B59647" d="M21.7 60.121c-8.878 0-17.395-1.898-19.834-2.491V45.29c2.638 1.781 8.685 4.894 18.828 4.894 10.38 0 16.375-2.555 18.83-3.913v11.398c-2.09.612-9.09 2.452-17.824 2.452zm17.807-34.434l-.172 18.515c-1.443.917-7.272 4.104-18.641 4.104-11.489 0-17.485-4.26-18.818-5.34V25.691c1.877-1.072 9.565-5.105 18.818-5.105 9.244 0 16.927 4.025 18.813 5.1zM21.28 10.329c9.828.205 16.026 1.817 18.245 2.502v10.722c-2.931-1.562-10.124-4.846-18.831-4.846-8.704 0-15.893 3.28-18.828 4.843V12.82c2.41-.78 9.407-2.699 19.414-2.491zm19.695-6.687C40.759 3.498 35.54.103 20.673.45 5.884.79.707 3.48.493 3.595L0 3.86v55.225l.692.186c.103.027 10.292 2.73 21.008 2.73 10.746 0 18.719-2.634 19.053-2.747l.638-.213V3.921l-.416-.279z" mask="url(#b)"/>
        </g>
        <path fill="#B59647" d="M18.755 40.486c0-.904.645-1.538 1.548-1.538s1.523.634 1.523 1.538c0 .856-.594 1.514-1.549 1.514-.903 0-1.522-.658-1.522-1.514zm.567-3.42l-.052-.634c-.154-1.319.31-2.76 1.6-4.227 1.162-1.295 1.807-2.247 1.807-3.345 0-1.246-.826-2.076-2.452-2.1-.928 0-1.961.292-2.606.756L17 25.978c.85-.586 2.322-.978 3.69-.978C23.66 25 25 26.734 25 28.591c0 1.661-.98 2.858-2.218 4.25-1.137 1.27-1.55 2.346-1.472 3.59l.026.634h-2.014z"/>
    </g>
</svg>
